<svg id="Layer_1" data-name="Layer 1" xmlns="http://www.w3.org/2000/svg" xmlns:xlink="http://www.w3.org/1999/xlink"
     viewBox="0 0 150 150" width="250px" height="250px">
  <defs>
    <style>.cls-1 {
      fill: url(#linear-gradient);
    }

    .cls-2 {
      fill: url(#linear-gradient-2);
    }

    .cls-3 {
      fill: url(#linear-gradient-3);
    }

    .cls-4 {
      fill: url(#linear-gradient-4);
    }

    .cls-5 {
      fill: url(#linear-gradient-5);
    }

    .cls-6 {
      fill: url(#linear-gradient-6);
    }

    .cls-7 {
      fill: url(#linear-gradient-7);
    }

    .cls-8 {
      fill: url(#linear-gradient-8);
    }

    .cls-9 {
      fill: url(#linear-gradient-9);
    }

    .cls-10 {
      fill: url(#linear-gradient-10);
    }

    .cls-11 {
      fill: url(#linear-gradient-11);
    }

    .cls-12 {
      fill: url(#linear-gradient-12);
    }

    .cls-13 {
      fill: url(#linear-gradient-13);
    }

    .cls-14 {
      fill: url(#linear-gradient-14);
    }

    .cls-15 {
      fill: url(#linear-gradient-15);
    }

    .cls-16 {
      fill: url(#linear-gradient-16);
    }

    .cls-17 {
      fill: url(#linear-gradient-17);
    }

    .cls-18 {
      fill: url(#linear-gradient-18);
    }

    .cls-19 {
      fill: url(#linear-gradient-19);
    }

    .cls-20 {
      fill: url(#linear-gradient-20);
    }

    .cls-21 {
      fill: url(#linear-gradient-21);
    }

    .cls-22 {
      fill: url(#linear-gradient-22);
    }

    .cls-23 {
      fill: url(#linear-gradient-23);
    }

    .cls-24 {
      fill: url(#linear-gradient-24);
    }

    .cls-25 {
      fill: url(#linear-gradient-25);
    }

    .cls-26 {
      fill: url(#linear-gradient-26);
    }

    .cls-27 {
      fill: url(#linear-gradient-27);
    }

    .cls-28 {
      fill: url(#linear-gradient-28);
    }

    .cls-29 {
      fill: url(#linear-gradient-29);
    }

    .cls-30 {
      fill: url(#linear-gradient-30);
    }

    .cls-31 {
      fill: url(#linear-gradient-31);
    }

    .cls-32 {
      fill: url(#linear-gradient-32);
    }

    .cls-33 {
      fill: url(#linear-gradient-33);
    }

    .cls-34 {
      fill: url(#linear-gradient-34);
    }

    .cls-35 {
      fill: url(#linear-gradient-35);
    }

    .cls-36 {
      fill: url(#linear-gradient-36);
    }

    .cls-37 {
      fill: url(#linear-gradient-37);
    }

    .cls-38 {
      fill: url(#linear-gradient-38);
    }

    .cls-39 {
      fill: url(#linear-gradient-39);
    }

    .cls-40 {
      fill: url(#linear-gradient-40);
    }

    .cls-41 {
      fill: url(#linear-gradient-41);
    }

    .cls-42 {
      fill: url(#linear-gradient-42);
    }

    .cls-43 {
      fill: url(#linear-gradient-43);
    }

    .cls-44 {
      fill: url(#linear-gradient-44);
    }

    .cls-45 {
      fill: url(#linear-gradient-45);
    }

    .cls-46 {
      fill: url(#linear-gradient-46);
    }

    .cls-47 {
      fill: url(#linear-gradient-47);
    }</style>
    <linearGradient id="linear-gradient" x1="195.07" y1="149.67" x2="340.53" y2="149.67" gradientUnits="userSpaceOnUse">
      <stop offset="0.41" stop-color="#00954b"/>
      <stop offset="0.47" stop-color="#118d49"/>
      <stop offset="0.6" stop-color="#3e7846"/>
      <stop offset="0.77" stop-color="#86573f"/>
      <stop offset="0.99" stop-color="#e82937"/>
      <stop offset="1" stop-color="#ee2636"/>
    </linearGradient>
    <linearGradient id="linear-gradient-2" x1="5.31" y1="147.78" x2="116.43" y2="147.78" xlink:href="#linear-gradient"/>
    <linearGradient id="linear-gradient-3" x1="150.13" y1="206.27" x2="222.16" y2="206.27"
                    xlink:href="#linear-gradient"/>
    <linearGradient id="linear-gradient-4" x1="93.38" y1="284.86" x2="281.27" y2="284.86"
                    xlink:href="#linear-gradient"/>
    <linearGradient id="linear-gradient-5" x1="158.16" y1="143.81" x2="226.3" y2="143.81"
                    xlink:href="#linear-gradient"/>
    <linearGradient id="linear-gradient-6" x1="81.83" y1="233.45" x2="132.19" y2="233.45"
                    xlink:href="#linear-gradient"/>
    <linearGradient id="linear-gradient-7" x1="115.08" y1="110.27" x2="159" y2="110.27" xlink:href="#linear-gradient"/>
    <linearGradient id="linear-gradient-8" x1="285.49" y1="236.99" x2="328" y2="236.99" xlink:href="#linear-gradient"/>
    <linearGradient id="linear-gradient-9" x1="96.67" y1="92.59" x2="129.65" y2="92.59" xlink:href="#linear-gradient"/>
    <linearGradient id="linear-gradient-10" x1="93.73" y1="119.59" x2="115.05" y2="119.59"
                    xlink:href="#linear-gradient"/>
    <linearGradient id="linear-gradient-11" x1="65.35" y1="105.97" x2="85.47" y2="105.97"
                    xlink:href="#linear-gradient"/>
    <linearGradient id="linear-gradient-12" x1="283.62" y1="199.71" x2="302.37" y2="199.71"
                    xlink:href="#linear-gradient"/>
    <linearGradient id="linear-gradient-13" x1="177.96" y1="97.53" x2="201.97" y2="97.53"
                    xlink:href="#linear-gradient"/>
    <linearGradient id="linear-gradient-14" x1="75.47" y1="93.81" x2="90.83" y2="93.81" xlink:href="#linear-gradient"/>
    <linearGradient id="linear-gradient-15" x1="268.22" y1="209.71" x2="302.39" y2="209.71"
                    xlink:href="#linear-gradient"/>
    <linearGradient id="linear-gradient-16" x1="302.13" y1="162.26" x2="313.78" y2="162.26"
                    xlink:href="#linear-gradient"/>
    <linearGradient id="linear-gradient-17" x1="86.25" y1="108.98" x2="96.69" y2="108.98"
                    xlink:href="#linear-gradient"/>
    <linearGradient id="linear-gradient-18" x1="334.09" y1="259.21" x2="350.91" y2="259.21"
                    xlink:href="#linear-gradient"/>
    <linearGradient id="linear-gradient-19" x1="213.22" y1="226.77" x2="220.33" y2="226.77"
                    xlink:href="#linear-gradient"/>
    <linearGradient id="linear-gradient-20" x1="207.33" y1="109.53" x2="219.62" y2="109.53"
                    xlink:href="#linear-gradient"/>
    <linearGradient id="linear-gradient-21" x1="307.01" y1="212.39" x2="317.7" y2="212.39"
                    xlink:href="#linear-gradient"/>
    <linearGradient id="linear-gradient-22" x1="161.56" y1="146.7" x2="168.83" y2="146.7"
                    xlink:href="#linear-gradient"/>
    <linearGradient id="linear-gradient-23" x1="80" y1="186.86" x2="104.9" y2="186.86" xlink:href="#linear-gradient"/>
    <linearGradient id="linear-gradient-24" x1="318.26" y1="214.72" x2="330.17" y2="214.72"
                    xlink:href="#linear-gradient"/>
    <linearGradient id="linear-gradient-25" x1="145.98" y1="130.13" x2="155.46" y2="130.13"
                    xlink:href="#linear-gradient"/>
    <linearGradient id="linear-gradient-26" x1="227" y1="87.68" x2="235.35" y2="87.68" xlink:href="#linear-gradient"/>
    <linearGradient id="linear-gradient-27" x1="90.12" y1="97.6" x2="96.32" y2="97.6" xlink:href="#linear-gradient"/>
    <linearGradient id="linear-gradient-28" x1="93.6" y1="90.57" x2="100.46" y2="90.57" xlink:href="#linear-gradient"/>
    <linearGradient id="linear-gradient-29" x1="293.84" y1="209.24" x2="302.01" y2="209.24"
                    xlink:href="#linear-gradient"/>
    <linearGradient id="linear-gradient-30" x1="272.37" y1="90.12" x2="279.61" y2="90.12"
                    xlink:href="#linear-gradient"/>
    <linearGradient id="linear-gradient-31" x1="304.21" y1="142.95" x2="310.07" y2="142.95"
                    xlink:href="#linear-gradient"/>
    <linearGradient id="linear-gradient-32" x1="313.68" y1="259.18" x2="318.25" y2="259.18"
                    xlink:href="#linear-gradient"/>
    <linearGradient id="linear-gradient-33" x1="157.8" y1="148.03" x2="162.05" y2="148.03"
                    xlink:href="#linear-gradient"/>
    <linearGradient id="linear-gradient-34" x1="192.37" y1="100.27" x2="198.96" y2="100.27"
                    xlink:href="#linear-gradient"/>
    <linearGradient id="linear-gradient-35" x1="236.29" y1="90.95" x2="239.98" y2="90.95"
                    xlink:href="#linear-gradient"/>
    <linearGradient id="linear-gradient-36" x1="332.03" y1="216.4" x2="340.58" y2="216.4"
                    xlink:href="#linear-gradient"/>
    <linearGradient id="linear-gradient-37" x1="252.92" y1="201.26" x2="256.04" y2="201.26"
                    xlink:href="#linear-gradient"/>
    <linearGradient id="linear-gradient-38" x1="277.09" y1="94.28" x2="281.35" y2="94.28"
                    xlink:href="#linear-gradient"/>
    <linearGradient id="linear-gradient-39" x1="293.55" y1="182.13" x2="295.97" y2="182.13"
                    xlink:href="#linear-gradient"/>
    <linearGradient id="linear-gradient-40" x1="344.05" y1="226" x2="346.31" y2="226" xlink:href="#linear-gradient"/>
    <linearGradient id="linear-gradient-41" x1="280.77" y1="88.7" x2="284.49" y2="88.7" xlink:href="#linear-gradient"/>
    <linearGradient id="linear-gradient-42" x1="175.29" y1="164.82" x2="176.49" y2="164.82"
                    xlink:href="#linear-gradient"/>
    <linearGradient id="linear-gradient-43" x1="301.48" y1="211.37" x2="306.59" y2="211.37"
                    xlink:href="#linear-gradient"/>
    <linearGradient id="linear-gradient-44" x1="355.25" y1="226.39" x2="358.07" y2="226.39"
                    xlink:href="#linear-gradient"/>
    <linearGradient id="linear-gradient-45" x1="341.12" y1="231.21" x2="343.16" y2="231.21"
                    xlink:href="#linear-gradient"/>
    <linearGradient id="linear-gradient-46" x1="106.94" y1="266.52" x2="109.58" y2="266.52"
                    xlink:href="#linear-gradient"/>
    <linearGradient id="linear-gradient-47" x1="314.52" y1="151.04" x2="316.21" y2="151.04"
                    xlink:href="#linear-gradient"/>
  </defs>
  <g id="KOrF3I.tif">
    <path class="cls-1"
          d="M318.91,139.47c-.32-.36-.54-.52-.63-.74-1.19-2.76-2.08-5.61-1.53-8.64s1.23-5.83,1.93-8.72a4,4,0,0,1,.85-1.34,1.57,1.57,0,0,0,.2-2c-.48-.65-1.13-.57-1.86-.34a12.88,12.88,0,0,1-2.48.44c-.75.08-1.52,0-2.29.08-2.82.12-4.13,2.36-2.92,4.94.26.58.74,1.23,0,1.75s-1.64,1.06-2.5.26-1.53-.58-2.37.13a6.64,6.64,0,0,1-2.12.91,3.91,3.91,0,0,1-.91.06c-3.07.33-3.33.65-3.64,3.72a8.53,8.53,0,0,1-.71,2.39c-.31.73-.82,1.39-1.14,2.12a6.21,6.21,0,0,0-.24,1.39,4.61,4.61,0,0,1,1.16-.09c.44.08,1,.18,1.24.49a2.44,2.44,0,0,0,1.89,1.1,3.2,3.2,0,0,1,2.93,2.62,22.9,22.9,0,0,1,.59,11.67,13.08,13.08,0,0,1-1.7,3.56,1.41,1.41,0,0,1-2.09.48c-.87-.48-1.22-.24-1.34.78,0,.38-.05.76-.06,1.15a3.59,3.59,0,0,1-1.17,2.74c-1,.9-.94,1.53.2,2.17a4.51,4.51,0,0,1,2.3,3.61c0,.37-.05,1-.26,1.11a19.15,19.15,0,0,1-3.14,1c-.1,0-.64-.8-.55-1.09a2.75,2.75,0,0,0-1.11-3.5c-.33-.22-.27-1-.42-1.47s-.25-1.08-.48-1.14a2.49,2.49,0,0,0-1.47.28,9.85,9.85,0,0,0-1.16.93,7.34,7.34,0,0,1-.94.44l-.23-.24a4.58,4.58,0,0,0,.5-1c.06-.35.06-.9-.15-1.06a1.16,1.16,0,0,0-1.11,0c-1,.91-1.85,1.91-2.73,2.91a.78.78,0,0,0-.06.64c.23.6,2.48,1.37,3.12,1.12a10.69,10.69,0,0,1,1.73-.59c.23,0,.53.15.8.24a2.75,2.75,0,0,1-.42.82,8.1,8.1,0,0,1-1,.57,1.63,1.63,0,0,0-.33,2.69,28.06,28.06,0,0,1,2.3,3.11,5.71,5.71,0,0,1-.21,6.69,42.49,42.49,0,0,1-3.16,4.06,5.06,5.06,0,0,1-3.94,1.81c-1.59,0-1.84.43-1.26,1.87a.88.88,0,0,1-.51,1.3,3.15,3.15,0,0,1-1.1.32,6.48,6.48,0,0,1-1.28-.22c.22-.35.45-.7.66-1s.7-.89.59-1.09a1.73,1.73,0,0,0-1.14-.73,2.37,2.37,0,0,0-2.62,3.23,8.53,8.53,0,0,0,1.5,2.1,27.86,27.86,0,0,1,2.44,3.14c.75,1.28.45,2.2-.71,3.11a31.14,31.14,0,0,1-2.61,1.87c-1.21.74-1.48.52-2.29-.61a10.45,10.45,0,0,0-2.5-2.42c-.87-.61-1.68-.09-1.71,1a4,4,0,0,0,1.95,3.79,5.46,5.46,0,0,1,3,3.57,8.66,8.66,0,0,0,.88,1.59,3.66,3.66,0,0,1,.2.94c-.34,0-.76.15-1,0-3.1-1.59-5.23-4-5.78-7.5-.22-1.4-.32-2.81-.51-4.21-.28-2.12-1.09-3.05-3.16-3.3a2.86,2.86,0,0,1-2.48-1.91c-.43-1-.78-2.08-1.27-3.07a2.32,2.32,0,0,0-1.14-1.17,5.69,5.69,0,0,0-5.31,1c-1.58,1.33-3,2.87-4.65,4.09-2.33,1.72-2.15,3.92-1.61,6.29.07.33.29.64.34,1a6.21,6.21,0,0,1,0,1.14c-.39,0-.86.07-1.16-.11-1.15-.68-2.26-1.43-3.35-2.21a8.33,8.33,0,0,1-3.85-6.34,4.15,4.15,0,0,0-2.72-4,6.25,6.25,0,0,1-2.29-2.33,4.92,4.92,0,0,0-4.74-2.37c-3.27.19-6.56.26-9.85.3a3,3,0,0,1-1.81-.55,33.39,33.39,0,0,1-3.38-3c-.59-.6-1.15-1.12-1.94-.51a1.22,1.22,0,0,0,0,2,13.64,13.64,0,0,1,3.39,4.57,1.71,1.71,0,0,0,2.29.74c.91-.29,1.82-.6,2.73-.85a3.12,3.12,0,0,1,1.13-.12c1.77.17,2.36,1.1,1.34,2.51a12.24,12.24,0,0,1-3.61,3.56,83.51,83.51,0,0,1-8.64,4c-1.92.82-3.12.34-3.57-1.66-.49-2.19-1.86-3.7-3.19-5.33-1.06-1.29-1.94-2.73-2.9-4.1-.79-1.11-1.66-2.18-2.38-3.34-.83-1.33-1.57-2.71-2.27-4.11-.09-.18.18-.68.41-.87a3.71,3.71,0,0,0,1.1-4.13,1.65,1.65,0,0,0-2-1c-1.32.21-2.64.43-4,.59a2.46,2.46,0,0,1-2.56-3,1.94,1.94,0,0,1,1.45-1,7.79,7.79,0,0,0,3.43-1.13,4.88,4.88,0,0,1,2.39-.51c1.56.05,3.12.36,4.68.44,1.22.06,1.52-.26,1.79-1.43,2,.28,4.06.51,6.08.85a2.08,2.08,0,0,1,1.46,2.57c-.59,2.44.11,3.51,2.61,3.63a8.9,8.9,0,0,0,3.23-.49,1.2,1.2,0,0,0,.26-2.24,4.75,4.75,0,0,1-2.14-3.22,4,4,0,0,0-1.18-2.05c-1.12-1-.92-2.21-.33-3.32.26-.48.56-1.3.34-1.6a2.14,2.14,0,0,0-1.66-.71c-1.09.1-1.41-.6-1.79-1.29-1.54-2.75-.43-4.71,2.71-4.77,1.26,0,2.53.06,3.78,0a5.33,5.33,0,0,0,4.28-7.81,14,14,0,0,1-1.71-6.19,36,36,0,0,0-1.54-6.68,6.11,6.11,0,0,1,.24-4.47,4.55,4.55,0,0,0,.13-4.45l1.35-.44a5.72,5.72,0,0,0-.43-.76,2.57,2.57,0,0,0-.56-.4c-3.17-2.23-3.32-2.68-2.41-6.38a16.68,16.68,0,0,0,.21-2.47c0-.27.11-.66.29-.75a.85.85,0,0,1,.79.16,5.8,5.8,0,0,1,1.08,1.48c.93,1.92,1.77,3.89,2.69,5.82a16.31,16.31,0,0,0,1.42,2.47c.18.25.71.25,1.08.36.09-.39.21-.77.28-1.17a.56.56,0,0,0-.17-.41c-1.7-1.61-1.82-3.9-2.51-5.94-.43-1.25,0-1.78,1.32-1.84.65,0,1.3.06,1.95.06,1.17,0,1.58-.43,1.1-1.46s-.1-1.69,1-2a7.15,7.15,0,0,0,1-.39c1.13-.54,1.24-1,.49-2s-.76-1.63.21-2.58c.49-.48,1-1,1.45-1.48.83-1,1.73-1.61,3.1-1.2.21.07.67,0,.72-.15.51-1.18,1.69-2.09,1.31-3.63-.54-2.15.14-2.84,2.37-2.41.81.15,1.57.56,2.37.75a9.7,9.7,0,0,0,1.53.06,10.52,10.52,0,0,1,2.26.31c.83.27,1.55.84,2.37,1.14a1.71,1.71,0,0,1,1.31,1.9,16.5,16.5,0,0,1-.76,3.08c-.3,1-.79,1.83-1.1,2.77a9.55,9.55,0,0,0-.26,1.7l.38.15a10.71,10.71,0,0,0,.79-1,4.49,4.49,0,0,1,3.33-2.35,9.48,9.48,0,0,0,1.65-.49,4.56,4.56,0,0,1,3.87,0,4.23,4.23,0,0,0,1.68.33c1.67.14,1.86,0,1.74-1.67-.07-.88.29-1.19,1.15-1a21.53,21.53,0,0,1,2.82.45,6.49,6.49,0,0,1,1.93,1.26,2.73,2.73,0,0,1,.48,1c1,2.59,1.64,2.79,3.9,1.28a11.39,11.39,0,0,1,2.56-1.23,3.23,3.23,0,0,0,1.93-2.12c1-2.48,2.25-3.34,4.73-2.37,4.94,1.94,10.14,1.72,15.25,2.27a24.52,24.52,0,0,0,4.68-.19,3.62,3.62,0,0,0,1.83-.6c2.11-1.56,4.57-1.87,7.06-2a22.68,22.68,0,0,1,7.36.79c2.88.73,5.89,1,8.82,1.5,1.6.29,3.14.91,4.75,1.15a10.57,10.57,0,0,0,3.1-.25,5.6,5.6,0,0,0,1.13-.55,2.31,2.31,0,0,1,2.84.45c.68,1,.11,1.94-.27,2.8-.17.37-.94.59-1.46.64a6.37,6.37,0,0,1-1.81-.28,2.92,2.92,0,0,0-3.64,1.62,1.47,1.47,0,0,0,.25,1.34,4,4,0,0,0,1.4.72c1.63.78,1.9,2.14.48,3.2a10.24,10.24,0,0,1-3.24,1.61,4.85,4.85,0,0,0-3.65,4.45c0,1,0,2,0,3,0,.64-.25,1.22-1,1.09a4.57,4.57,0,0,0-4.29,1.21c-1.21,1.14-1.58,1.49-1.25,3.08a4.22,4.22,0,0,0,.42.92c.36.73.72,1.46,1.09,2.18.75,1.48.18,2.72-.68,3.92-.58.81-1.08,1.68-1.66,2.49a6.32,6.32,0,0,0-1.58,4.3A4.33,4.33,0,0,1,318.91,139.47Z"/>
    <path class="cls-2"
          d="M112,150.56c-.49.2-.79.23-.94.39a3.51,3.51,0,0,1-3.67,1,8.89,8.89,0,0,0-7.79,1.95,80.76,80.76,0,0,1-7.57,5,13.73,13.73,0,0,1-2.57.91,13.27,13.27,0,0,0-1.53.7c-1,.55-2,1.12-3.35,1.86A4.07,4.07,0,0,0,88,162c3.31-1.9,6.53-3.95,9.85-5.82a34,34,0,0,1,4.8-2.07c.37-.14.92.17,1.38.27a6.25,6.25,0,0,1-.36,1.21c-.53,1-.22,1.64,1,1.64a2.76,2.76,0,0,0,1.22-.22c1.29-.67,2.52-.38,4.09.24a8.18,8.18,0,0,1-1.35.88c-1.43.54-2.88,1-4.33,1.5-1.79.59-2.51.06-2.65-1.82,0-.32-.31-.61-.48-.91-.3.19-.73.3-.88.58a4.59,4.59,0,0,0-.43,1.52,3.54,3.54,0,0,1-3.28,3.43c-3.17.31-4.57,2.06-4.9,5.12a6.1,6.1,0,0,1-3.73,5.35,4.86,4.86,0,0,0-3,5.88,9.26,9.26,0,0,1,.11,2.73c-.14,1.1-.72,1.3-1.57.61a3.06,3.06,0,0,1-1.26-3.33c.44-1.81,0-2.71-1.78-3.19a16.94,16.94,0,0,0-11.23.76,4.47,4.47,0,0,0-1.89,1.89,12.66,12.66,0,0,0-1.73,6.46,3,3,0,0,0,2,3c2.55,1.06,4.55.49,6-1.83A3.5,3.5,0,0,1,76.23,184a1.77,1.77,0,0,1,1.37.53c.19.25,0,1-.22,1.32-.67,1-1.5,1.83-2.2,2.79-.87,1.18-.65,2,.73,2.46a8.78,8.78,0,0,0,2.36.3,6.36,6.36,0,0,0,1.14-.15c2.36-.32,2.72.45,1.87,2.24a4.7,4.7,0,0,0-.18.67c-.59,2.21-.41,2.48,1.79,3,.48.11,1.33-.09,1.19.83s-.81.89-1.51.81-1.53-.14-2.29-.19c-1.88-.11-3.4-.71-4.14-2.65a3.37,3.37,0,0,0-2.42-1.77c-1.61-.52-3.19-1.18-4.8-1.75a5.48,5.48,0,0,0-1.34-.26c-.65-.06-1.3-.06-2-.08a7.68,7.68,0,0,1-5.8-2.54,23.38,23.38,0,0,1-5.09-8.21,59.2,59.2,0,0,0-3.22-7.08c-.25-.49-1.18-1.12-1.49-1-.87.39-.62,1.29-.28,2s.79,1.22,1.13,1.85c.9,1.64,1.79,3.27,2.59,4.94.09.2-.49,1-.54.95-.58-.25-1.38-.46-1.62-.94-1.09-2.1-2-4.3-3-6.41-1.24-2.46-2.66-4.82-3.88-7.28-1.75-3.56-2.79-7.32-2-11.31a14.52,14.52,0,0,1,1.64-3.89,5.91,5.91,0,0,0-.28-6.69c-1.07-1.48-1-3.09-.71-4.74.28-1.8.14-3.37-1.51-4.6a3.64,3.64,0,0,1-1-2c-.24-1-.19-2.13-.42-3.17a8.81,8.81,0,0,0-1-2.89c-2.55-3.88-4.46-4.57-9-3.59-2,.43-4,.67-6,1.1a8.37,8.37,0,0,0-2.32,1,76.16,76.16,0,0,1-13.41,6.2c-1,.34-2.07.71-3.18-.19L6.82,133c3.44-1.39,6.9-2.73,10.29-4.21a8.44,8.44,0,0,0,2.49-2c.94-1,.7-1.86-.47-2.62A16.71,16.71,0,0,1,17,122.49a4.15,4.15,0,0,1-1.21-5.08c.92-2.1,2.32-3.7,4.79-3.9.76-.06,1.53.06,2.3,0s1.34-.17,1.41-1-.45-1.23-1.25-1.3a4.08,4.08,0,0,1-.79-.14c-1-.29-2-.68-2.14-1.83a2.59,2.59,0,0,1,1.52-2.62c1.72-1,3.2-1,4.06.66.18.32.79.42,1.19.62.18-.43.52-.87.5-1.29a14.39,14.39,0,0,0-.48-2,17.82,17.82,0,0,1-.53-2.79c-.07-1.13.54-1.7,1.65-1.46a3.87,3.87,0,0,0,3.55-1.09,11.25,11.25,0,0,1,8.23-2.5,3.45,3.45,0,0,1,3.07,1.87A10.6,10.6,0,0,0,48.29,103c1.79.75,3.21,1.66,3.7,3.72.26,1.13.93,1.33,2,.77a9.79,9.79,0,0,1,5.11-1A8.89,8.89,0,0,1,64.8,109c1.31,1.17,2.66,2.3,4,3.47a1.89,1.89,0,0,1,.75,2,1.13,1.13,0,0,0,1.15,1.5,2.9,2.9,0,0,1,3.08,2.19c.21.71,1,.65,1.37-.1.48-1,.75-2,2-2.29s1.77.87,2.54,1.47c.92.72,1.83,1.46,2.68,2.27,1.3,1.23,2.21,1.14,3.31-.29a22.19,22.19,0,0,1,2.54-2.77,2.44,2.44,0,0,1,3.75.69c1.53,2.28,2.78,2.38,4.62.37a1.48,1.48,0,0,1,2.13-.37c.83.62.54,1.37.08,2.13a5.9,5.9,0,0,0-.75,1.73,1.91,1.91,0,0,1-1.42,1.61,7.56,7.56,0,0,0-1.59.64c-1.09.59-1.15,1.1-.24,1.91.45.41,1,.75,1.42,1.15.77.69.76,1.2-.08,1.73a5.07,5.07,0,0,1-4.4.63,2.33,2.33,0,0,1-1.3-1.26c-.36-1.12-1.09-1.07-1.78-.66-2.07,1.22-4.1,2.51-6.1,3.84-2.37,1.58-2.38,7,1,8a6.93,6.93,0,0,1,2.46,2,3.4,3.4,0,0,0,2.78,1.3c1.13-.09,1.48.47,1.25,1.59-.15.72-.31,1.43-.43,2.14s.24,1.36,1,1.36c.29,0,.66-.65.87-1.06a3.08,3.08,0,0,0,.1-1c.17-2.1.28-2.24,2.27-2.87,1.44-.46,1.82-1.06,1.61-2.58a14.16,14.16,0,0,1-.32-1.8,5.31,5.31,0,0,1,.28-1.76c.42-1.29.93-2.56,1.39-3.84.13-.36.2-.74.32-1.1.31-.9.91-1.06,1.72-.65l2.61,1.29c.07,0,.18.08.19.13.34,1.51,2.07,2.38,1.93,4.14a1.45,1.45,0,0,0,1.15,1.73,2.12,2.12,0,0,0,2.55-.73,11.8,11.8,0,0,1,1-1.4.94.94,0,0,1,.77-.3c.2.09.29.47.41.74a.67.67,0,0,1,0,.34,3.28,3.28,0,0,0,1,3.62A1.45,1.45,0,0,1,111,141c-.29,1.51.75,2.12,1.73,2.79s2,1.32,2.19,2.65a2.86,2.86,0,0,1-.88,2.9c-1.57,1.42-1.52,1.73.19,3.05a19.16,19.16,0,0,1,2,1.73,1.14,1.14,0,0,1,.21,1,1.1,1.1,0,0,1-.93.45c-1.57-.33-3.12-.74-4.65-1.2-.14-.05-.25-.68-.15-1C111,152.51,111.46,151.68,112,150.56Zm-35.46,4.87.15.4,1.52-.18c1.28-.19,2.55-.42,3.83-.55a1.94,1.94,0,0,1,1.18.32c.27.18.39.58.58.89a3.22,3.22,0,0,1-1,.4,4.36,4.36,0,0,0-3.9,4.36c.06.55.73,1,1.12,1.54a13.26,13.26,0,0,0,1.27-1.09,1.41,1.41,0,0,0,.2-.76A1.65,1.65,0,0,1,83,159.28a1.45,1.45,0,0,1,1.71.82,9.21,9.21,0,0,0,.76.94,3.43,3.43,0,0,1,2.82-2.33,1.23,1.23,0,0,0,.13-.92A2.68,2.68,0,0,0,86,156.36a1.78,1.78,0,0,1-2.07-1.63,2.66,2.66,0,0,0-4-1.64c-.76.5-1.57.94-2.33,1.44A13.63,13.63,0,0,0,76.55,155.43Z"/>
    <path class="cls-3"
          d="M150.41,191.5c.17-2.51.33-5,.52-7.54a3.41,3.41,0,0,1,1.55-2.82,16.14,16.14,0,0,0,6.73-7.83,4.06,4.06,0,0,1,3.54-2.38c4-.54,7.93-1.16,11.89-1.76a4.82,4.82,0,0,0,1-.3c.64-.23,1.39-.77,1.87,0a4.22,4.22,0,0,1,.9,2.55c-.15,1,.19,1.33,1,1.54a18.24,18.24,0,0,1,6.39,2.74c.82.61,1.43.16,1.9-.57,1.33-2.09,1.43-2.12,3.78-1.32.87.3,1.75.56,2.61.87a8.47,8.47,0,0,0,5.19.32,2,2,0,0,1,2.66,1.24c.33.73.8,1.4,1.17,2.11a1.39,1.39,0,0,1,.26.86c-.38,1.46.56,2.43,1.14,3.58a19.24,19.24,0,0,1,1.56,4.15,8.19,8.19,0,0,0,3.51,5.28,19.44,19.44,0,0,1,3.45,3.16c1.53,1.64,2.7,2,4.8,1.16.71-.28,1.41-.61,2.12-.9,1.31-.53,2.07-.09,2.23,1.32a4.5,4.5,0,0,1-1.41,3.85c-2.55,2.43-5.1,4.86-7.76,7.15a11.06,11.06,0,0,0-3.89,6.57,8.76,8.76,0,0,0,.41,3.25c.25,1.19.65,2.36,1,3.54a1.87,1.87,0,0,1-.79,2.2c-1.46,1-2.91,2.11-4.36,3.17a3.22,3.22,0,0,0-1.32,3.09,4.9,4.9,0,0,1-.78,2.52c-1.15,1.92-2.51,3.72-3.65,5.66-1.75,3-4.18,4.73-7.76,4.51a6.07,6.07,0,0,0-4.14,1,3.85,3.85,0,0,1-1.06.45c-2.06.72-4.09-.84-3.45-2.89,1-3.09.09-5.85-.82-8.72a72.32,72.32,0,0,1-2.17-8.3,8.53,8.53,0,0,1,.36-4,12.55,12.55,0,0,0,.58-5.87,5.6,5.6,0,0,0-1.25-2.62,8.4,8.4,0,0,1-2.38-6.69c.18-1.5-.33-1.94-1.77-2.27a8.52,8.52,0,0,1-2.58-1.1,3.13,3.13,0,0,0-3-.52c-.35.14-.74.19-1.08.36-3.12,1.57-6.54,1.53-9.88,1.69-2.81.13-6.89-3-7.78-5.81-.56-1.81-.81-3.71-1.21-5.57Z"/>
    <path class="cls-4"
          d="M187.2,294.75H95.1c-.66,0-1.56.31-1.7-.82s.52-1.61,1.43-1.91a2.42,2.42,0,0,1,.45-.1,6.75,6.75,0,0,0,1.36-.17c.66-.21,1.28-.56,1.94-.77a2.84,2.84,0,0,1,1.39-.2c1.62.42,3.18,1.07,4.81,1.35a4.88,4.88,0,0,0,2.35-.68c1-.43,2-1,2.92-1.46a4.12,4.12,0,0,0,1-.59,3.6,3.6,0,0,1,4.54-.59c1.47.8,2.62.93,3.82-.51a2.79,2.79,0,0,1,2.86-.75c1.83.41,3.67.77,5.5,1.12a3.5,3.5,0,0,0,1.25,0,5,5,0,0,1,4.06.7,1.5,1.5,0,0,0,1.19.26c1.79-.73,3.57-1.5,5.27-2.4.31-.16.27-1,.37-1.53a7.55,7.55,0,0,1,.42-2c.31-.61.95-.59,1.11.18a3.17,3.17,0,0,0,2.51,2.4c.76.24,1.18.6,1,1.5s.35,1.22,1,1.36,1.18-.43,1.18-1.07c0-3.22,2.4-4.57,4.69-6a23.71,23.71,0,0,1,2.37-1.17,2,2,0,0,1,.84-.32c2.16.05,3.11-1.3,3.79-3.07a2,2,0,0,1,1.07-1.09,11.08,11.08,0,0,1,2.92-.42,1.9,1.9,0,0,1,2,1.59,1.58,1.58,0,0,0,1.6,1.35,3.58,3.58,0,0,1,1.1.29,5.79,5.79,0,0,0,4.35.17,1.63,1.63,0,0,1,1.52.45c.63,1.33,1.76,1.45,3,1.54,1.49.11,1.73.49,1.17,1.89-1,2.47-2.31,4.65-4.8,5.93a3.33,3.33,0,0,0-1.31,1.37,1.48,1.48,0,0,0,.19,1.33c.19.21.82.11,1.24.05.24,0,.44-.28.66-.43,2.53-1.76,5.05-3.54,7.59-5.28a3.59,3.59,0,0,1,1.36-.59,8.11,8.11,0,0,0,4.55-2.73,12.1,12.1,0,0,1,7.65-3.79c3.42-.55,6.88-1,10.32-1.43l2.83-.42a12.27,12.27,0,0,1,6.05,1,4,4,0,0,0,4-.62c1.95-1.4,3.75-1.26,5.27.59a3.74,3.74,0,0,0,4.18,1.43,68.22,68.22,0,0,1,8-1,17.83,17.83,0,0,0,7.89-2.9,4.06,4.06,0,0,1,4.9.08,26.85,26.85,0,0,1,3,2.11c3.54,3.31,7.93,4.67,12.52,5.55a9.52,9.52,0,0,1,5.93,3.34,9.65,9.65,0,0,0,3.48,2.31c2.18,1,4.48,1.78,6.68,2.76a3.5,3.5,0,0,1,1.47,1.36c.47.75,0,1.43-.87,1.51-.3,0-.61,0-.92,0Z"/>
    <path class="cls-5"
          d="M201.1,130c.18-2.36,1.69-3.85,4-3.73-.27-.55-.47-1-.7-1.42-.13-.23-.34-.43-.45-.67-.31-.63-.59-1.27-.88-1.91a9.23,9.23,0,0,1,1.83.15c.78.22,1.67.39,1.54,1.62,0,.39.35.83.54,1.25a3.88,3.88,0,0,0,1.24-.61c.56-.62,1-1.38,1.47-2a2.24,2.24,0,0,1,2.2-.79,14.18,14.18,0,0,0,4.13-.55c.81-.21.41-.87.08-1.38a14.13,14.13,0,0,1-.73-1.39c.54.08,1.09.13,1.62.23,1.23.21,2.46.43,3.69.67,2,.38,3.49,2.53,2.61,4.26-1.73,3.41-.63,6.53.26,9.78.4,1.49.33,3.1.68,4.61a17.69,17.69,0,0,0,1.44,4.28,5.22,5.22,0,0,1,.39,4.3c-.76,2.22-2,3.13-5.61,3.09a19.33,19.33,0,0,0-2.85.05c-2.77.39-3.89,2.37-2.85,5,.2.49.56.92.74,1.42.1.29.11.82-.07,1-1.69,1.45-1.75,3.19-1,5.11a3.19,3.19,0,0,1,.13.44,1.53,1.53,0,0,1-.05.43c-1.1-.17-2.21-.32-3.31-.51-1.39-.23-2.77-.48-4.15-.76a1.92,1.92,0,0,1-.76-.47c-.46-.39-.9-.82-1.34-1.24a2.54,2.54,0,0,0-3.33-.47c-1.41.79-1.66.63-2.44-.71a14.4,14.4,0,0,0-1.29-1.65,7.12,7.12,0,0,0-1.46,1.62,45.55,45.55,0,0,0-1.76,4.69c-.23.72-.25,1.15-1.26.73a4,4,0,0,0-2.35.28c-.2.07-.35.87-.23,1.24a7.35,7.35,0,0,0,.91,1.31c.38.63.37,1.38-.28,1.71a1.73,1.73,0,0,1-1.61-.1c-1.25-1.43-2.43-3-2.24-5.05.12-1.44-.32-2-1.71-2.42a9.61,9.61,0,0,1-4.39-2.36,2,2,0,0,0-1.31-.58,3.93,3.93,0,0,0-1.4.52,5.8,5.8,0,0,0,.7,1.09,12.46,12.46,0,0,0,1.94,1.77,14.44,14.44,0,0,0,3,1.58c1.34.47,1.72,1,1.12,2.27a9.94,9.94,0,0,1-1.23,2.06,2,2,0,0,1-2.68.45c-.95-.6-.85-1.41-.49-2.32.55-1.41.31-2-1-2.69-1.2-.64-2.37-1.38-3.63-1.9a2.91,2.91,0,0,0-2.07-.08c-2.82,1.25-5.64,2.5-7.52,5.21-1.5,2.17-5.2,2.85-7.64,1.69a1.67,1.67,0,0,1-1-1.88c.15-1.55.28-3.11.39-4.66.08-1.14.67-1.62,1.65-1.08,1.61.88,3.29.54,4.94.48,1.32,0,1.68-.88,1-2.09-.27-.5-.63-1-.94-1.44a2.11,2.11,0,0,1,.66-3.24,4.62,4.62,0,0,1,1-.49,9.15,9.15,0,0,0,5.19-3.74,4.61,4.61,0,0,1,2-1.42,2.48,2.48,0,0,0,1.67-2.47,7.47,7.47,0,0,1,.32-2.25c.1-.33.6-.54.92-.8a6.15,6.15,0,0,1,.67,1.12c.09.26-.09.6-.1.9-.06,1.53.62,2.05,2.06,1.55a16.33,16.33,0,0,1,2.36-.86,6.53,6.53,0,0,1,2.53,0c1.18.25,1.87.1,2.17-1a3.53,3.53,0,0,1,2.39-2.41,13,13,0,0,0,2.38-1.12,7.89,7.89,0,0,0,1.56-1.74,10.15,10.15,0,0,0,1.15-1.8,1.87,1.87,0,0,0,.18-1.31c-.08-.21-.84-.37-1.15-.23a33.88,33.88,0,0,0-3,1.61,2.25,2.25,0,0,1-2.86-.2,2.91,2.91,0,0,1-1.28-3,5.07,5.07,0,0,1,1.75-3.24.44.44,0,0,0,.17-.16c.25-.59.49-1.19.73-1.79a6.59,6.59,0,0,0-1.52-.58,1.43,1.43,0,0,0-1.77,1.1,6.46,6.46,0,0,1-2.28,3.59c-1.44,1.4-1.49,2.44-.22,4a1.85,1.85,0,0,1,0,2.59,1.68,1.68,0,0,0-.26,2c.35.67,0,1-.6,1.18a3.73,3.73,0,0,1-4.85-3.59,5.19,5.19,0,0,0-.22-1.15,5.6,5.6,0,0,0-1.06.71,2.78,2.78,0,0,1-2.88,1c-1.07-.3-1.36-1.26-1.51-2.24-.07-.45-.12-.91-.17-1.37a1.7,1.7,0,0,1,1.25-1.94c3.3-1.16,4.62-4,5.84-6.92a36.12,36.12,0,0,1,1.82-4.54c.5-.85,1.63-1.33,2.47-2,2.5-1.93,5.24-3,8.45-2.31.77.16,1.52.22,1.32,1.41-.05.31.61.88,1,1.09a3.47,3.47,0,0,0,1.58.2,4.71,4.71,0,0,1,3.52,1.38,5.59,5.59,0,0,0,1.92,1c.92.34,1.41.85,1.2,1.89s-.85,1.69-1.91,1.54-2.23-.52-3.36-.72a3.6,3.6,0,0,0-1.14.2c.18.34.37.67.56,1,.32.57.63,1.15,1,1.69a3.45,3.45,0,0,0,1,1.2c.19.1.71-.45,1.11-.65a1.93,1.93,0,0,1,.9-.25A4.82,4.82,0,0,1,201.1,130Z"/>
    <path class="cls-6"
          d="M94.89,233.06c0-1.65,0-3.29,0-4.93a2.05,2.05,0,0,0-1.32-2.08c-.46-.19-.87-.49-1.32-.7a10.7,10.7,0,0,1-6.13-6.41,10.41,10.41,0,0,0-3.52-5,1.58,1.58,0,0,1-.25-2.51,3.14,3.14,0,0,0,1-2.59,3,3,0,0,1,1.59-2.94c.67-.43,1.54-1.09,1.66-1.75a13.64,13.64,0,0,0-.11-4.08c-.05-.39-.75-.67-1.12-1a4.54,4.54,0,0,1-.52-.7c.29-.18.65-.56.86-.49,1.22.42,2.06-.25,2.92-.89.55-.41,1.13-.79,1.65-1.25a3,3,0,0,1,4.08-.33,7.22,7.22,0,0,0,5.62,1,5.11,5.11,0,0,1,5.74,2.29,4.72,4.72,0,0,0,4.49,2.25c.38,0,.77.09,1.15.07,2.67-.16,4.16,1.56,5.53,3.46a1.21,1.21,0,0,1-.12,1.75c-.56.58-.28.94.41,1.11a2.38,2.38,0,0,0,.46,0c2.08,0,4.1.18,5.87,1.51a3,3,0,0,0,1.64.41c2.76,0,4.74,1.54,6.56,3.36a1.58,1.58,0,0,1,.25,2.1,26.19,26.19,0,0,1-2.31,3.68,14.29,14.29,0,0,0-3.33,9,3.88,3.88,0,0,1-3.14,4.07,7.69,7.69,0,0,0-5.63,4.92,16.74,16.74,0,0,1-1.89,3c-.74,1.15-1.51,2.29-2.22,3.46a3.71,3.71,0,0,1-2.71,1.92c-.91.13-1.3.4-.83,1.42.8,1.73.15,2.92-1.71,3.27a3.28,3.28,0,0,0-2.45,1.67,3.56,3.56,0,0,1-1.48,1.18,1.93,1.93,0,0,0-1.25,2.48,3.8,3.8,0,0,1-.52,3.59c-.47.6-.29,1.18.24,1.74,1.22,1.28,1.18,1.66.36,3.22a9.17,9.17,0,0,0-.91,2.67,2.88,2.88,0,0,0,1.45,3A7,7,0,0,1,104.9,270c.76.85.47,1.66-.65,1.95a7.58,7.58,0,0,1-8-4,27.87,27.87,0,0,1-2.38-11.25,23.84,23.84,0,0,0-.51-4.9,20.64,20.64,0,0,1,.28-7.39c.64-3.76,1.08-7.55,1.6-11.33Z"/>
    <path class="cls-7"
          d="M132.76,86.84l4.08-.24a12,12,0,0,0,5.61-2.13c2.9-1.78,5.78-1.31,8.61.22a1.31,1.31,0,0,1,.52.43,6,6,0,0,0,2.78,2.74c.32.15.51.92.49,1.39-.06,1.42.26,1.93,1.64,2.24a8,8,0,0,1,1.65.43c1,.48,1.13,1.2.4,2-.86,1-1.78,1.9-2.67,2.84a6.88,6.88,0,0,0-2.05,6.9,4.58,4.58,0,0,1-.93,4.29,11.49,11.49,0,0,0-1.29,2.87,23.36,23.36,0,0,0-1.39,8.08,3,3,0,0,1-.93,1.88,9.79,9.79,0,0,1-5.58,2.94,11,11,0,0,0-5.58,2.2,20.64,20.64,0,0,1-3.62,2,7.22,7.22,0,0,0-3.52,3.46c-.68,1.46-1.41,2.89-2.14,4.32-.94,1.81-2,2-3.52.59a15.54,15.54,0,0,1-3.95-7.76c-.53-2.16-.56-4.17,1-5.91a12.61,12.61,0,0,1,.92-.87,3.2,3.2,0,0,0,.8-4.46c-.47-.84-1-1.63-1.45-2.47a4.47,4.47,0,0,1-.1-3.88,23,23,0,0,0,1.16-3.58,1.93,1.93,0,0,0-1.73-2.5c-.93-.19-1.9-.22-2.85-.34a5.17,5.17,0,0,1-4-3.62c-.19-.82.28-1.06,1-.94s1.25.37,1.89.45c.26,0,.56-.24.84-.37-.17-.23-.29-.53-.52-.65-.39-.23-.87-.29-1.27-.52A1.91,1.91,0,0,1,116,96.77c.17-.91.94-1,1.68-1.08a22.65,22.65,0,0,0,3.42-.36,8.14,8.14,0,0,0,2.51-1.23,1.57,1.57,0,0,0,.53-1.94,1.63,1.63,0,0,1,1.5-2.36,3.14,3.14,0,0,0,2.55-1.53C129.23,86.81,131.06,86.79,132.76,86.84Z"/>
    <path class="cls-8"
          d="M309.5,246l-1.32,1c-.8.59-1.32.42-1.61-.54,0,0,0-.08,0-.11-.77-2.94-1-3.29-4.07-3a42.71,42.71,0,0,0-6.43,1.48c-2.33.61-4.61,1.37-7,1.85a3.91,3.91,0,0,1-2.56-.57c-1.3-.83-1.34-1.66-.31-2.84a3,3,0,0,0,.69-2.54,56.54,56.54,0,0,1-.58-6.6c0-2.37,1.39-3.78,3.71-4.3,1.19-.27,2.38-.58,3.58-.81a2.56,2.56,0,0,0,2-1.64c.49-1.17,1.11-2.17,2.59-2.27.34,0,.67-.46.95-.76,1.21-1.3,2.49-2.35,4.48-2a2.24,2.24,0,0,0,1.54-.57,6.4,6.4,0,0,1,4-1.55c.75,0,1.5-.29,2.26-.33a4,4,0,0,1,1.2.36c-.15.44-.16,1-.46,1.31-1.81,1.64-1.83,1.73.23,3.1.79.53,1.61,1,2.39,1.58a1.26,1.26,0,0,0,2.09-.46,7.17,7.17,0,0,0,.6-1.94c.21-1,.29-2.05.55-3,.1-.37.56-.64.85-1,.25.33.5.66.74,1,0,.06,0,.16.05.22a28.44,28.44,0,0,1,2.73,7.19c.17.59.92,1,1.32,1.55,1.3,1.83,2.58,3.69,3.83,5.56a2.2,2.2,0,0,1,.42,1.18c-.12,2.77-.1,5.61-1.7,8.06s-3.24,4.82-4.88,7.22a5,5,0,0,1-4.92,2.28,7.62,7.62,0,0,1-6.23-3.75,3.26,3.26,0,0,1-.52-3.23,3,3,0,0,0,.07-1Z"/>
    <path class="cls-9"
          d="M121.46,80.22c1.89.37,3.83.63,5.67,1.18a4,4,0,0,1,2,1.62c1.08,1.64.59,3.36-1.27,4-2.84,1-5,2.82-7.35,4.59-.87.66-1.92,1.08-2.82,1.71-1.18.82-2.27,1.76-3.43,2.62-.8.59-1.66,1.12-2.47,1.71-.56.41-1.06.9-1.61,1.33-.38.3-.78.73-1.21.79-1,.13-2,.06-3,.1a6.86,6.86,0,0,0-1.7.17c-.35.1-.62.49-.93.75a3.57,3.57,0,0,0,.89.73c.53.19,1.13.18,1.68.34a1.54,1.54,0,0,1,1.29,1.76,1.48,1.48,0,0,1-1.62,1.34c-2-.12-4-.32-6-.61a3,3,0,0,1-1.55-.9,1.46,1.46,0,0,1-.15-2.24c.88-.86.68-1.59-.1-2.34a2.86,2.86,0,0,1-1-2.9,1.87,1.87,0,0,1,3-1.26,13.58,13.58,0,0,0,1.64,1,1.62,1.62,0,0,0,1.26-.09c.16-.09.14-.77,0-1.1-.86-2.13-.58-4.38-.52-6.55,0-.93,1-1.93,1.69-2.71s1.49-1.4,1.57-2.55c0-.31.4-.83.62-.84a1.23,1.23,0,0,1,1,.57A36.86,36.86,0,0,1,108.1,86c.08.28-.1.67,0,.89s.57.84.89.87.83-.51.85-.82a2.78,2.78,0,0,0-.41-1.67c-1-1.52-.9-2.08.89-2.57,2.69-.74,5.37-1.48,8.08-2.11a17.18,17.18,0,0,1,3-.18Z"/>
    <path class="cls-10"
          d="M105.06,120.14c0-3.25-1.29-4.53-4.29-4.72a30.74,30.74,0,0,1-4.48-.72,3.48,3.48,0,0,1-1.36-.83c-1.4-1.14-1.54-2-.59-3.56a10.53,10.53,0,0,1,4.42-3.89,1.82,1.82,0,0,1,2.55.45c.26.33.92.4,1.42.48s1.31,0,1.92.14c2.4.6,2.35.67,2.72,3.11a4.8,4.8,0,0,0,1.21,2.2c.73.87,1.67,1.56,2.44,2.4a2.1,2.1,0,0,1,.17,2.84c-.09.12-.16.26-.24.39-1.18,1.89-1,2.28,1,3a3.25,3.25,0,0,1,1.05.65c.56.51,1,1.11,1.59,1.6s.56.79.07,1.32a16.7,16.7,0,0,0-1.82,2.28c-.47.73-.84.68-1.45.17a8.53,8.53,0,0,0-1.57-.87,8.16,8.16,0,0,0,.67,1.61c.59.9.44,3.84-.4,4.53a1.61,1.61,0,0,1-1.35.29,44.16,44.16,0,0,1-4.63-2.41,2.09,2.09,0,0,1-.62-1.48c-.11-1.25-.38-1.64-1.64-1.74-.65-.05-1.3,0-2,0s-1.44-.29-1.3-1.22.52-1.75,1.51-1.5A3.83,3.83,0,0,0,104,123.4,4.37,4.37,0,0,0,105.06,120.14Z"/>
    <path class="cls-11"
          d="M81.17,107.12a15,15,0,0,0,.7-1.56c.15-.48.16-1,.28-1.47.36-1.57,1.26-1.76,2.81-1.13a1.45,1.45,0,0,1,.47,1.37,17.44,17.44,0,0,1-1.75,2.8c-1.32,1.87-1.34,2.09-.12,4,1.32,2,1.3,2.09-.93,2.89a5.39,5.39,0,0,1-4.1,0,6.42,6.42,0,0,0-3.26,0c-3.46.58-3.5.56-5.19-2.72-1-1.89-.39-3.72.37-5.51a3,3,0,0,0,.39-1.2,9.4,9.4,0,0,1-2.17.73,5.55,5.55,0,0,1-2.6-.27c-.95-.39-.93-1.26-.1-1.89a12.66,12.66,0,0,1,1.29-.74c1.42-.83,2.68-1.74,2.93-3.57A1.24,1.24,0,0,1,72,97.65,23,23,0,0,1,75.7,99a2.74,2.74,0,0,1,1.69,3.17c-.24,1.16.54,1.84,1.87,1.82,1.68,0,1.8.11,1.49,1.71a3,3,0,0,0,0,.79C80.75,106.61,80.86,106.69,81.17,107.12Z"/>
    <path class="cls-12"
          d="M294,202.48a2.12,2.12,0,0,1-.33.66,1.69,1.69,0,0,0-.21,2.61,1.25,1.25,0,0,1-.1,1.15c-.49.72-1.18,1.3-1.66,2a12.31,12.31,0,0,0-.59,1.68c-.2.42-.48,1-.84,1.11a5.81,5.81,0,0,1-6.42-3.27,3.23,3.23,0,0,1,.27-3,1.76,1.76,0,0,1,1.92-.93A4.81,4.81,0,0,0,291,201a10.75,10.75,0,0,1,.59-2.44,8.73,8.73,0,0,1,1.79-2.53c1-.9,1.22-1.95.76-3.77a12.7,12.7,0,0,1-.3-3.26c0-.72.19-1.5,1.21-1.49s2.3.86,2.05,1.71c-.67,2.31.48,3.29,2.36,4.14a4.3,4.3,0,0,1,1.56,2,21.44,21.44,0,0,1,1.24,3.33c.37,1.23,0,1.91-1.22,2.27a10.15,10.15,0,0,1-2.69.37c-.92,0-1.37-.55-1.24-1.52a17.83,17.83,0,0,0,.23-2.62c0-1.11-.55-1.43-1.58-1.09-2.14.71-3.35,2.2-3.38,4A2.33,2.33,0,0,0,294,202.48Z"/>
    <path class="cls-13"
          d="M202,92.32A6.59,6.59,0,0,1,194.85,96a9.25,9.25,0,0,0-1.82-.14c-.67,0-1,.17-1,1.1a2.57,2.57,0,0,1-1.22,1.82,6,6,0,0,0-3.19,3.7,1.55,1.55,0,0,1-1.31.74,7.77,7.77,0,0,1-5.84-3.6c-.56-1-1.18-1.87-1.72-2.84A7.29,7.29,0,0,1,178,95c-.16-.68.16-1.11.93-1.06,1.41.09,2.82.14,4.21.3a2.61,2.61,0,0,1,1.13.69,7.49,7.49,0,0,1,.79.89l.33-.13c-.08-.52-.17-1-.24-1.57-.12-.78.18-1.11,1-.86.51.17,1,.39,1.51.54a1.54,1.54,0,0,0,1.92-.61,1.3,1.3,0,0,1,1.68-.59,6.39,6.39,0,0,0,4.11-.23A11,11,0,0,1,202,92.32Z"/>
    <path class="cls-14"
          d="M86.78,93c.69.69.12,1.36-.28,2.06-.58,1-.47,1.21.71,1.25,1,.05,1.5.58,1.56,1.72a1.31,1.31,0,0,1-1.35,1.52c-.63,0-1.28-.12-1.92-.14-1.13,0-2.25-.08-3.38-.06-.53,0-1.06.17-1.59.21-1.44.13-1.59-.09-1.55-1.54a2.3,2.3,0,0,0-.66-1.35c-.5-.6-1-1-.51-2,.41-.76-.37-.86-.91-1.06a10.16,10.16,0,0,1-1.43-.82,13.82,13.82,0,0,1,1.31-1.44c.19-.17.58-.1.88-.15,1.15-.21,2.33-.33,3.45-.65,2.65-.76,5.28-1.62,7.92-2.43a1.44,1.44,0,0,1,.78-.11,4.82,4.82,0,0,1,1,.5c-.23.39-.42,1.08-.69,1.11-1,.11-1.24.82-1.66,1.52A11.66,11.66,0,0,1,86.78,93Z"/>
    <path class="cls-15"
          d="M302.35,217c-1,0-2,.13-3,.14-5.82.07-11.64.26-17.38-1-2-.43-3.9-.93-5-2.83a.82.82,0,0,0-.24-.25c-3.43-2.25-5.19-5.93-7.71-9a6.7,6.7,0,0,1-.73-1.89,13.6,13.6,0,0,1,1.88.47,26.54,26.54,0,0,1,8,5.63,8.34,8.34,0,0,1,2.41,4.59,1.56,1.56,0,0,0,.8.93,7.94,7.94,0,0,0,1.77.46c2,.45,4,.72,5.9,1.36,2.81.93,5.66.82,8.53.79,1.26,0,2.52,0,3.78,0a6.31,6.31,0,0,1,1.06.16Z"/>
    <path class="cls-16"
          d="M313.78,152.46c0,.62,0,1.08,0,1.54,0,.64-1.72,2-2.5,2a7.94,7.94,0,0,0-1.35.23c.13.45.12,1.05.42,1.34a6.32,6.32,0,0,1,1.91,6.63,2,2,0,0,0,0,.69c.15,2-.28,2.8-2.25,3.54a29.27,29.27,0,0,1-3.08.87,2.6,2.6,0,0,0-2.27,2.11c-.08.43-.7,1.16-.89,1.11a2.33,2.33,0,0,1-1.36-1c-.93-1.69.65-4.53,2.64-4.9a5.77,5.77,0,0,0,4.73-5,6.87,6.87,0,0,0-.76-3.12c-.58-1.35-1.16-2.55-.09-4,.27-.35-.07-1.15-.11-1.74s.18-1.11.83-.64A3.94,3.94,0,0,0,313.78,152.46Z"/>
    <path class="cls-17"
          d="M90.12,103.47c.09,0,.37,0,.45.06,1,1.26,2.24.72,3.45.44a2.59,2.59,0,0,1,1.14,0c.52.12,1,.34,1.53.51A4.53,4.53,0,0,1,96,106a20.51,20.51,0,0,1-3,2.38A2.25,2.25,0,0,0,91.63,111a11.12,11.12,0,0,1,.19,2.16,1.19,1.19,0,0,1-1.37,1.33,7.31,7.31,0,0,1-2.6-1.19c-.25-.18-.28-1-.1-1.42a1.87,1.87,0,0,0-.23-1.86,11.82,11.82,0,0,1-1.26-3.83C86.1,104.92,88.33,103.44,90.12,103.47Z"/>
    <path class="cls-18"
          d="M335.07,269c-.25-.24-.83-.56-.95-1a1.79,1.79,0,0,1,.41-1.5,13,13,0,0,1,2.58-1.69,10,10,0,0,0,4-3.49,10.59,10.59,0,0,1,1.15-1.43,1.37,1.37,0,0,1,2.32.08,2.8,2.8,0,0,0,.79.47c.13-.3.41-.61.37-.88-.41-2.86.59-5.77-.38-8.59a.8.8,0,0,1,0-.57c.18-.34.42-.65.64-1a3.69,3.69,0,0,1,.62,1c.33,1.28.48,2.61.88,3.86s.87,1.44,2.17,1.19a4,4,0,0,1,1.23.12c-.21.33-.34.8-.64,1a6.26,6.26,0,0,0-2.68,3.45,4.24,4.24,0,0,1-2.7,2.59,12,12,0,0,0-5.62,4A5.83,5.83,0,0,1,335.07,269Z"/>
    <path class="cls-19"
          d="M220.33,222.49c-.51,1.5-1,2.93-1.47,4.38-.39,1.24-.72,2.49-1.07,3.74a3.7,3.7,0,0,1-2.52,2.46c-1.09.42-1.91.08-2-1.06a16.51,16.51,0,0,1,.25-3.49,12.29,12.29,0,0,0,.34-1.55c0-1.94,1.07-3,2.63-3.95a8.17,8.17,0,0,0,2.16-2.22c.47-.63.81-.7,1.15,0A10.79,10.79,0,0,1,220.33,222.49Z"/>
    <path class="cls-20"
          d="M211.17,116.92a2.84,2.84,0,0,1-2.89-1.12,2.66,2.66,0,0,1-.77-2.92c.86-2.16,1.64-4.35,2.51-6.5a2.1,2.1,0,0,1,.86-1,12.37,12.37,0,0,1,2.88-1.4,9,9,0,0,0,3.74-1.6c.69-.59,1.48-.22,1.95.67s-.12,1.21-.77,1.57c-1.63.9-3.26,1.8-4.84,2.77-2.23,1.36-2.93,3.75-3.72,6a4.55,4.55,0,0,0,.34,2.29A5.88,5.88,0,0,0,211.17,116.92Z"/>
    <path class="cls-21"
          d="M317.69,213.57c0,.61,0,1.22,0,1.83s.22,1.24-.71,1.27-2.35-.6-2.3-1.22a1.77,1.77,0,0,0-1.25-1.85c-.76-.34-1.58-.53-2.36-.83a23,23,0,0,1-2.6-1.14c-.27-.14-.38-.58-.55-.9a3.53,3.53,0,0,0-.5-1c-.67-.66-.46-1,.28-1.36a2.11,2.11,0,0,1,3,1.19c.66,1.39.71,1.36,2,.52a2.89,2.89,0,0,1,1.68-.49C317.32,209.73,317.68,210.19,317.69,213.57Z"/>
    <path class="cls-22"
          d="M161.91,152.56l2.48-1.58-1.26-.42.33-2c.34-.32,1-.78,1-.93a13.22,13.22,0,0,0-1.09-1.59,13.66,13.66,0,0,1-1.79-3.42c-.11-.47,1-1.33,1.62-1.85s1.21-.5,1.21.56c0,.15,0,.36.12.42,1.21.79,1,1.56-.16,2.27.93,1,1.78,2,2.59,2.93a1.56,1.56,0,0,1,.38.81.93.93,0,0,0,.88,1,1.17,1.17,0,0,1,.62.94,2.6,2.6,0,0,1-2.49,2.55c-1.2.21-2.38.5-3.58.73a3,3,0,0,1-.72-.06Z"/>
    <path class="cls-23"
          d="M104.52,190.3l-1.87-.66a12.66,12.66,0,0,0-5.77-.41,16.85,16.85,0,0,1-3.31.22,12,12,0,0,1-3.12-.91c-1.16-.46-2.27-1.06-3.39-1.62a5.52,5.52,0,0,1-1.53-.94,4.13,4.13,0,0,0-3.9-1.12,2.84,2.84,0,0,1-.89.12c-.29-.08-.7-.31-.74-.54s.24-.61.48-.77a2.16,2.16,0,0,1,1-.24,8.5,8.5,0,0,1,5.86,1.5c2.67,2.07,5.76,2.41,9,2.28,2.81-.12,5.28,1.06,7.73,2.25.27.13.56.24.84.36Z"/>
    <path class="cls-24"
          d="M327.6,218.12a4,4,0,0,1-5-.78,1.82,1.82,0,0,0-2.57-.66c-1.48.67-1.8.44-1.81-1.21,0-1.18,0-2.37,0-3.55s.26-1.35,1.3-.85a11.27,11.27,0,0,1,2.55,1.71,3.5,3.5,0,0,0,3.63.74c1.14-.37,2.21-.93,3.33-1.34a3.09,3.09,0,0,1,1.09,0c-.17.35-.27.93-.54,1-1.26.43-2.59.67-3.85,1.1a7.78,7.78,0,0,0-1.59,1.07,11.92,11.92,0,0,0,1.44,1.78A9.3,9.3,0,0,0,327.6,218.12Z"/>
    <path class="cls-25"
          d="M150.61,132.86c-2.28,0-2.85-.41-3.52-2.21a4.44,4.44,0,0,0-.61-1c-.35-.51-.84-1-.15-1.59s1.57-1.07,2.27-.36c1.08,1.11,2.06.79,3.2.27a2.64,2.64,0,0,1,1.74-.31,3.3,3.3,0,0,1,1.88,1.39c.2.44-.34,1.4-.79,1.92A5.9,5.9,0,0,1,150.61,132.86Z"/>
    <path class="cls-26"
          d="M233.42,91.31c-1.56-.37-3.13-.69-4.67-1.12a1.72,1.72,0,0,1-1.35-2.08,7,7,0,0,0-.3-1.52,5.33,5.33,0,0,1,0-1.64c.16-.83.65-1.14,1.51-.69s2.16.59,2.39,2c.05.29.75.6,1.19.7a4.25,4.25,0,0,1,3.21,3.25c0,.26-.35.72-.65.85a3.65,3.65,0,0,1-1.24,0Z"/>
    <path class="cls-27"
          d="M93.59,97.42a6,6,0,0,0,.29,1.78,4.89,4.89,0,0,0,1.19,1.35c.29.28.73.43,1,.74.53.67.26,1.43-.56,1.36a22.14,22.14,0,0,1-3.82-.85,1.11,1.11,0,0,1-.62-.77c-.36-2.09-1.6-4.12-.46-6.33.14-.28,0-.69.11-1a9.6,9.6,0,0,1,.52-1.13c.39.18.9.27,1.15.58A5.66,5.66,0,0,1,93.59,97.42Z"/>
    <path class="cls-28"
          d="M93.6,90a12.57,12.57,0,0,1,1-2.09,1.3,1.3,0,0,1,2.31.37,4.82,4.82,0,0,0,2.49,2.79,2.3,2.3,0,0,1,1,1.54c.07.53-1.5,1-2.27.89a4.88,4.88,0,0,0-1.31.09c-.86.06-1.72.15-2.58.15-.15,0-.41-.37-.43-.59C93.75,92.28,93.71,91.36,93.6,90Z"/>
    <path class="cls-29"
          d="M302,205.75l-4.51,2.44.13.46a11.38,11.38,0,0,0,1.31-.08c.37-.06.74-.32,1.09-.3a2.93,2.93,0,0,1,1,.45c-.26.28-.46.68-.77.81a8.44,8.44,0,0,1-1.35.18c-.75.15-1.09.52-.59,1.29a3,3,0,0,1,.5,1.15,1.09,1.09,0,0,1-.3.85c-.1.09-.64-.06-.76-.25-.72-1.05-1.31-1.05-2.1,0-.62.8-1.12.28-1.47-.38-.94-1.8.26-4.46,2.44-5.35a6.77,6.77,0,0,1,1.55-.39c1.09-.15,2.22-.18,3-1.12.12-.13.43-.09.65-.12Z"/>
    <path class="cls-30"
          d="M275.48,92.43c-1.4-.05-3.42-2.51-3.07-3.67a1.54,1.54,0,0,1,1.17-.77c1.39-.13,2.8-.09,4.2-.17.81,0,1.45.11,1.74.94s-.22,1.3-.79,1.71c-.74.54-1.49,1.06-2.26,1.55A5.83,5.83,0,0,1,275.48,92.43Z"/>
    <path class="cls-31"
          d="M304.7,135.79a7.14,7.14,0,0,1,.68,1.07c.76,1.88,1.47,3.77,2.23,5.64a6.39,6.39,0,0,0,.82,1.63c.6.76,1.14,1.38-.13,2-.15.07-.16.8,0,1.07a10.35,10.35,0,0,0,1.36,1.54c.4.41.62.92,0,1.22a1.47,1.47,0,0,1-1.35-.05,4.77,4.77,0,0,1-.82-1.85c-.79-2.95-1.52-5.92-2.31-8.86-.16-.62-.55-1.18-.75-1.8a9.9,9.9,0,0,1-.28-1.44Z"/>
    <path class="cls-32"
          d="M313.68,259.54c.11-2.76,1.09-3.48,3.87-2.75a.8.8,0,0,1,.58,1.23,23.48,23.48,0,0,1-1.78,3,1.89,1.89,0,0,1-1.48.76c-.43-.1-.75-.82-1-1.33A2.85,2.85,0,0,1,313.68,259.54Z"/>
    <path class="cls-33"
          d="M160.44,145.44c1.45,0,1.94.86,1.4,1.82a1.3,1.3,0,0,0-.24.62c.08,1.69-1.29,2.11-2.41,2.68a1.41,1.41,0,0,1-1.13-.23,1,1,0,0,1-.24-.88,5.82,5.82,0,0,1,1.59-3.32A7,7,0,0,1,160.44,145.44Z"/>
    <path class="cls-34"
          d="M196.17,102.11a23.54,23.54,0,0,1-3.32-1.58c-.78-.52-.56-1.18.35-1.46.69-.21,1.4-.36,2.1-.53s1.44-.24,1.72.86c.09.36.9.53,1.37.81.21.13.59.34.57.44a1,1,0,0,1-.48.68C197.75,101.63,197,101.84,196.17,102.11Z"/>
    <path class="cls-35"
          d="M236.86,88.48a24.38,24.38,0,0,1,2.89,1.4c.24.15.31,1,.13,1.27a12.23,12.23,0,0,1-1.61,1.92c-.48.52-1.09.44-1.27-.18a25.18,25.18,0,0,1-.71-3.68C236.26,89,236.63,88.76,236.86,88.48Z"/>
    <path class="cls-36"
          d="M340.58,219.2a1.38,1.38,0,0,1-1.74-1c-.47-1.55-1.65-2.07-3-2.47a16.48,16.48,0,0,1-2.58-.92c-.43-.21-.71-.7-1.22-1.23C335,213.33,340.29,217,340.58,219.2Z"/>
    <path class="cls-37"
          d="M256,201.75c-.24.34-.51,1.12-1,1.33-.35.14-1-.49-1.57-.78,0,0,0-.06-.06-.09a1.88,1.88,0,0,1-.11-2.34,1.51,1.51,0,0,1,1.26-.43C255.49,199.68,255.89,200.48,256,201.75Z"/>
    <path class="cls-38"
          d="M277.09,92.93c1.33.45,2.61.83,3.84,1.34.6.26.52.75-.08,1C279,95.92,277.41,96,277.09,92.93Z"/>
    <path class="cls-39"
          d="M293.55,182.54a16.09,16.09,0,0,1,.93-2c.15-.24.73-.5.9-.4a1.3,1.3,0,0,1,.58,1,12.42,12.42,0,0,1-.63,2.54c-.25.7-.78.7-1.22.15A5.78,5.78,0,0,1,293.55,182.54Z"/>
    <path class="cls-40"
          d="M345.83,228.5a10,10,0,0,1-1.78-4.37.81.81,0,0,1,.49-.63c.29,0,.81.17.86.36.35,1.49.61,3,.91,4.51Z"/>
    <path class="cls-41"
          d="M282.59,89.68l-1.82-.94a6.07,6.07,0,0,1,1.53-.8c.82-.16,1.94-.62,2.19.7C284.52,88.85,283.32,89.29,282.59,89.68Z"/>
    <path class="cls-42"
          d="M175.3,167.11c0-1.48,0-2.78,0-4.09,0-.17.23-.39.4-.47a.6.6,0,0,1,.49.18c.49.46.29,3.74-.25,4.17A2.91,2.91,0,0,1,175.3,167.11Z"/>
    <path class="cls-43" d="M306.59,211.44c-1.7,1.08-4.53.63-5.11-.74Z"/>
    <path class="cls-44"
          d="M358.07,225.64l-2.47,1.94c-.12-.19-.39-.52-.34-.56a23.91,23.91,0,0,1,1.82-1.81C357.15,225.15,357.47,225.37,358.07,225.64Z"/>
    <path class="cls-45" d="M341.14,230l2,2.41C341.94,232.85,341,231.74,341.14,230Z"/>
    <path class="cls-46"
          d="M109.47,267.14a13.79,13.79,0,0,1-1.82,0c-.26,0-.47-.36-.71-.55.3-.24.66-.72.89-.67a8.71,8.71,0,0,1,1.75.77Z"/>
    <path class="cls-47" d="M314.52,151.64l1.29-1.5.4.35c-.44.48-.88,1-1.31,1.45Z"/>
  </g>
</svg>
