<?xml version="1.0" encoding="UTF-8"?>
<svg width="565px" height="115px" viewBox="0 0 565 115" version="1.1" xmlns="http://www.w3.org/2000/svg" xmlns:xlink="http://www.w3.org/1999/xlink">
    <!-- Generator: Sketch 59.1 (86144) - https://sketch.com -->
    <title>cdd-logo</title>
    <desc>Created with Sketch.</desc>
    <defs>
        <linearGradient x1="50%" y1="0%" x2="50%" y2="100%" id="linearGradient-1">
            <stop stop-color="#FE3D5D" offset="0%"></stop>
            <stop stop-color="#FD973E" offset="100%"></stop>
        </linearGradient>
    </defs>
    <g id="Logo" stroke="none" stroke-width="1" fill="none" fill-rule="evenodd">
        <g id="cdd-logo" fill-rule="nonzero">
            <g>
                <path d="M71.34,26.488 C70.4039953,25.479995 69.4980044,24.8080017 68.622,24.472 C67.7459956,24.1359983 66.8640044,23.968 65.976,23.968 C64.6559934,23.968 63.4620053,24.2019977 62.394,24.67 C61.3259947,25.1380023 60.4080038,25.7859959 59.64,26.614 C58.8719962,27.4420041 58.2780021,28.4079945 57.858,29.512 C57.4379979,30.6160055 57.228,31.8039936 57.228,33.076 C57.228,34.4440068 57.4379979,35.7039942 57.858,36.856 C58.2780021,38.0080058 58.8719962,39.0039958 59.64,39.844 C60.4080038,40.6840042 61.3259947,41.3439976 62.394,41.824 C63.4620053,42.3040024 64.6559934,42.544 65.976,42.544 C67.0080052,42.544 68.0099951,42.2980025 68.982,41.806 C69.9540049,41.3139975 70.8599958,40.5280054 71.7,39.448 L75.444,42.112 C74.2919942,43.6960079 72.8880083,44.8479964 71.232,45.568 C69.5759917,46.2880036 67.8120094,46.648 65.94,46.648 C63.9719902,46.648 62.1660082,46.3300032 60.522,45.694 C58.8779918,45.0579968 57.4620059,44.1580058 56.274,42.994 C55.0859941,41.8299942 54.1560034,40.4320082 53.484,38.8 C52.8119966,37.1679918 52.476,35.35601 52.476,33.364 C52.476,31.3239898 52.8119966,29.4700083 53.484,27.802 C54.1560034,26.1339917 55.0859941,24.7120059 56.274,23.536 C57.4620059,22.3599941 58.8779918,21.4540032 60.522,20.818 C62.1660082,20.1819968 63.9719902,19.864 65.94,19.864 C67.6680086,19.864 69.2699926,20.1699969 70.746,20.782 C72.2220074,21.3940031 73.5959936,22.4319927 74.868,23.896 L71.34,26.488 Z M77.244,37.36 C77.244,35.9919932 77.4899975,34.7500056 77.982,33.634 C78.4740025,32.5179944 79.1399958,31.564004 79.98,30.772 C80.8200042,29.979996 81.8159942,29.3680022 82.968,28.936 C84.1200058,28.5039978 85.3439935,28.288 86.64,28.288 C87.9360065,28.288 89.1599942,28.5039978 90.312,28.936 C91.4640058,29.3680022 92.4599958,29.979996 93.3,30.772 C94.1400042,31.564004 94.8059975,32.5179944 95.298,33.634 C95.7900025,34.7500056 96.036,35.9919932 96.036,37.36 C96.036,38.7280068 95.7900025,39.9699944 95.298,41.086 C94.8059975,42.2020056 94.1400042,43.155996 93.3,43.948 C92.4599958,44.740004 91.4640058,45.3519978 90.312,45.784 C89.1599942,46.2160022 87.9360065,46.432 86.64,46.432 C85.3439935,46.432 84.1200058,46.2160022 82.968,45.784 C81.8159942,45.3519978 80.8200042,44.740004 79.98,43.948 C79.1399958,43.155996 78.4740025,42.2020056 77.982,41.086 C77.4899975,39.9699944 77.244,38.7280068 77.244,37.36 Z M81.564,37.36 C81.564,38.0320034 81.6779989,38.6799969 81.906,39.304 C82.1340011,39.9280031 82.4699978,40.4799976 82.914,40.96 C83.3580022,41.4400024 83.8919969,41.8239986 84.516,42.112 C85.1400031,42.4000014 85.847996,42.544 86.64,42.544 C87.432004,42.544 88.1399969,42.4000014 88.764,42.112 C89.3880031,41.8239986 89.9219978,41.4400024 90.366,40.96 C90.8100022,40.4799976 91.1459989,39.9280031 91.374,39.304 C91.6020011,38.6799969 91.716,38.0320034 91.716,37.36 C91.716,36.6879966 91.6020011,36.0400031 91.374,35.416 C91.1459989,34.7919969 90.8100022,34.2400024 90.366,33.76 C89.9219978,33.2799976 89.3880031,32.8960014 88.764,32.608 C88.1399969,32.3199986 87.432004,32.176 86.64,32.176 C85.847996,32.176 85.1400031,32.3199986 84.516,32.608 C83.8919969,32.8960014 83.3580022,33.2799976 82.914,33.76 C82.4699978,34.2400024 82.1340011,34.7919969 81.906,35.416 C81.6779989,36.0400031 81.564,36.6879966 81.564,37.36 Z M99.888,28.72 L103.992,28.72 L103.992,31.42 L104.064,31.42 C104.448002,30.6039959 105.065996,29.8780032 105.918,29.242 C106.770004,28.6059968 107.915993,28.288 109.356,28.288 C112.068014,28.288 113.867996,29.3559893 114.756,31.492 C115.380003,30.3879945 116.159995,29.5780026 117.096,29.062 C118.032005,28.5459974 119.147994,28.288 120.444,28.288 C121.596006,28.288 122.567996,28.4799981 123.36,28.864 C124.152004,29.2480019 124.793998,29.7759966 125.286,30.448 C125.778002,31.1200034 126.131999,31.9059955 126.348,32.806 C126.564001,33.7060045 126.672,34.6719948 126.672,35.704 L126.672,46 L122.352,46 L122.352,36.208 C122.352,35.6799974 122.304,35.1700025 122.208,34.678 C122.112,34.1859975 121.944001,33.7540019 121.704,33.382 C121.463999,33.0099981 121.140002,32.7160011 120.732,32.5 C120.323998,32.2839989 119.796003,32.176 119.148,32.176 C118.475997,32.176 117.906002,32.3019987 117.438,32.554 C116.969998,32.8060013 116.586002,33.1419979 116.286,33.562 C115.985999,33.9820021 115.770001,34.4619973 115.638,35.002 C115.505999,35.5420027 115.44,36.0879972 115.44,36.64 L115.44,46 L111.12,46 L111.12,35.704 C111.12,34.6239946 110.892002,33.7660032 110.436,33.13 C109.979998,32.4939968 109.224005,32.176 108.168,32.176 C107.447996,32.176 106.842002,32.2959988 106.35,32.536 C105.857998,32.7760012 105.450002,33.099998 105.126,33.508 C104.801998,33.916002 104.568001,34.3839974 104.424,34.912 C104.279999,35.4400026 104.208,35.9919971 104.208,36.568 L104.208,46 L99.888,46 L99.888,28.72 Z M131.388,28.72 L135.492,28.72 L135.492,31.312 L135.564,31.312 C136.188003,30.2559947 137.027995,29.4880024 138.084,29.008 C139.140005,28.5279976 140.279994,28.288 141.504,28.288 C142.824007,28.288 144.011995,28.5219977 145.068,28.99 C146.124005,29.4580023 147.023996,30.0999959 147.768,30.916 C148.512004,31.7320041 149.075998,32.6919945 149.46,33.796 C149.844002,34.9000055 150.036,36.0879936 150.036,37.36 C150.036,38.6320064 149.832002,39.8199945 149.424,40.924 C149.015998,42.0280055 148.446004,42.9879959 147.714,43.804 C146.981996,44.6200041 146.100005,45.2619977 145.068,45.73 C144.035995,46.1980023 142.908006,46.432 141.684,46.432 C140.867996,46.432 140.148003,46.3480008 139.524,46.18 C138.899997,46.0119992 138.348002,45.7960013 137.868,45.532 C137.388,45.2679987 136.980002,44.9860015 136.644,44.686 C136.307998,44.3859985 136.032001,44.0920014 135.816,43.804 L135.708,43.804 L135.708,54.208 L131.388,54.208 L131.388,28.72 Z M145.716,37.36 C145.716,36.6879966 145.602001,36.0400031 145.374,35.416 C145.145999,34.7919969 144.810002,34.2400024 144.366,33.76 C143.921998,33.2799976 143.388003,32.8960014 142.764,32.608 C142.139997,32.3199986 141.432004,32.176 140.64,32.176 C139.847996,32.176 139.140003,32.3199986 138.516,32.608 C137.891997,32.8960014 137.358002,33.2799976 136.914,33.76 C136.469998,34.2400024 136.134001,34.7919969 135.906,35.416 C135.677999,36.0400031 135.564,36.6879966 135.564,37.36 C135.564,38.0320034 135.677999,38.6799969 135.906,39.304 C136.134001,39.9280031 136.469998,40.4799976 136.914,40.96 C137.358002,41.4400024 137.891997,41.8239986 138.516,42.112 C139.140003,42.4000014 139.847996,42.544 140.64,42.544 C141.432004,42.544 142.139997,42.4000014 142.764,42.112 C143.388003,41.8239986 143.921998,41.4400024 144.366,40.96 C144.810002,40.4799976 145.145999,39.9280031 145.374,39.304 C145.602001,38.6799969 145.716,38.0320034 145.716,37.36 Z M154.14,28.72 L158.46,28.72 L158.46,46 L154.14,46 L154.14,28.72 Z M153.528,22.852 C153.528,22.1559965 153.785997,21.5500026 154.302,21.034 C154.818003,20.5179974 155.471996,20.26 156.264,20.26 C157.056004,20.26 157.721997,20.5059975 158.262,20.998 C158.802003,21.4900025 159.072,22.1079963 159.072,22.852 C159.072,23.5960037 158.802003,24.2139975 158.262,24.706 C157.721997,25.1980025 157.056004,25.444 156.264,25.444 C155.471996,25.444 154.818003,25.1860026 154.302,24.67 C153.785997,24.1539974 153.528,23.5480035 153.528,22.852 Z M163.5,18.784 L167.82,18.784 L167.82,46 L163.5,46 L163.5,18.784 Z M176.244,38.872 C176.388001,40.1680065 176.891996,41.1759964 177.756,41.896 C178.620004,42.6160036 179.663994,42.976 180.888,42.976 C181.968005,42.976 182.873996,42.7540022 183.606,42.31 C184.338004,41.8659978 184.979997,41.3080034 185.532,40.636 L188.628,42.976 C187.619995,44.2240062 186.492006,45.1119974 185.244,45.64 C183.995994,46.1680026 182.688007,46.432 181.32,46.432 C180.023994,46.432 178.800006,46.2160022 177.648,45.784 C176.495994,45.3519978 175.500004,44.740004 174.66,43.948 C173.819996,43.155996 173.154002,42.2020056 172.662,41.086 C172.169998,39.9699944 171.924,38.7280068 171.924,37.36 C171.924,35.9919932 172.169998,34.7500056 172.662,33.634 C173.154002,32.5179944 173.819996,31.564004 174.66,30.772 C175.500004,29.979996 176.495994,29.3680022 177.648,28.936 C178.800006,28.5039978 180.023994,28.288 181.32,28.288 C182.520006,28.288 183.617995,28.4979979 184.614,28.918 C185.610005,29.3380021 186.461996,29.943996 187.17,30.736 C187.878004,31.528004 188.429998,32.5059942 188.826,33.67 C189.222002,34.8340058 189.42,36.1719924 189.42,37.684 L189.42,38.872 L176.244,38.872 Z M185.1,35.632 C185.076,34.3599936 184.680004,33.3580037 183.912,32.626 C183.143996,31.8939963 182.076007,31.528 180.708,31.528 C179.411994,31.528 178.386004,31.8999963 177.63,32.644 C176.873996,33.3880037 176.412001,34.3839938 176.244,35.632 L185.1,35.632 Z M193.452,28.72 L197.772,28.72 L197.772,31.456 L197.844,31.456 C198.324002,30.447995 199.007996,29.6680028 199.896,29.116 C200.784004,28.5639972 201.803994,28.288 202.956,28.288 C203.220001,28.288 203.477999,28.3119998 203.73,28.36 C203.982001,28.4080002 204.239999,28.4679996 204.504,28.54 L204.504,32.716 C204.143998,32.6199995 203.790002,32.5420003 203.442,32.482 C203.093998,32.4219997 202.752002,32.392 202.416,32.392 C201.407995,32.392 200.598003,32.5779981 199.986,32.95 C199.373997,33.3220019 198.906002,33.7479976 198.582,34.228 C198.257998,34.7080024 198.042001,35.1879976 197.934,35.668 C197.825999,36.1480024 197.772,36.5079988 197.772,36.748 L197.772,46 L193.452,46 L193.452,28.72 Z M218.508,20.512 L228.552,20.512 C230.232008,20.512 231.851992,20.7699974 233.412,21.286 C234.972008,21.8020026 236.351994,22.5879947 237.552,23.644 C238.752006,24.7000053 239.711996,26.025992 240.432,27.622 C241.152004,29.218008 241.512,31.0959892 241.512,33.256 C241.512,35.4400109 241.098004,37.329992 240.27,38.926 C239.441996,40.522008 238.374007,41.8419948 237.066,42.886 C235.757993,43.9300052 234.306008,44.7099974 232.71,45.226 C231.113992,45.7420026 229.548008,46 228.012,46 L218.508,46 L218.508,20.512 Z M226.428,41.896 C227.844007,41.896 229.181994,41.7340016 230.442,41.41 C231.702006,41.0859984 232.799995,40.5820034 233.736,39.898 C234.672005,39.2139966 235.409997,38.3260055 235.95,37.234 C236.490003,36.1419945 236.76,34.8160078 236.76,33.256 C236.76,31.7199923 236.520002,30.4000055 236.04,29.296 C235.559998,28.1919945 234.894004,27.2980034 234.042,26.614 C233.189996,25.9299966 232.182006,25.4260016 231.018,25.102 C229.853994,24.7779984 228.576007,24.616 227.184,24.616 L223.044,24.616 L223.044,41.896 L226.428,41.896 Z M245.436,28.72 L249.756,28.72 L249.756,31.456 L249.828,31.456 C250.308002,30.447995 250.991996,29.6680028 251.88,29.116 C252.768004,28.5639972 253.787994,28.288 254.94,28.288 C255.204001,28.288 255.461999,28.3119998 255.714,28.36 C255.966001,28.4080002 256.223999,28.4679996 256.488,28.54 L256.488,32.716 C256.127998,32.6199995 255.774002,32.5420003 255.426,32.482 C255.077998,32.4219997 254.736002,32.392 254.4,32.392 C253.391995,32.392 252.582003,32.5779981 251.97,32.95 C251.357997,33.3220019 250.890002,33.7479976 250.566,34.228 C250.241998,34.7080024 250.026001,35.1879976 249.918,35.668 C249.809999,36.1480024 249.756,36.5079988 249.756,36.748 L249.756,46 L245.436,46 L245.436,28.72 Z M259.512,28.72 L263.832,28.72 L263.832,46 L259.512,46 L259.512,28.72 Z M258.9,22.852 C258.9,22.1559965 259.157997,21.5500026 259.674,21.034 C260.190003,20.5179974 260.843996,20.26 261.636,20.26 C262.428004,20.26 263.093997,20.5059975 263.634,20.998 C264.174003,21.4900025 264.444,22.1079963 264.444,22.852 C264.444,23.5960037 264.174003,24.2139975 263.634,24.706 C263.093997,25.1980025 262.428004,25.444 261.636,25.444 C260.843996,25.444 260.190003,25.1860026 259.674,24.67 C259.157997,24.1539974 258.9,23.5480035 258.9,22.852 Z M266.46,28.72 L271.176,28.72 L275.784,40.816 L275.856,40.816 L280.5,28.72 L284.928,28.72 L278.124,46 L273.516,46 L266.46,28.72 Z M290.94,38.872 C291.084001,40.1680065 291.587996,41.1759964 292.452,41.896 C293.316004,42.6160036 294.359994,42.976 295.584,42.976 C296.664005,42.976 297.569996,42.7540022 298.302,42.31 C299.034004,41.8659978 299.675997,41.3080034 300.228,40.636 L303.324,42.976 C302.315995,44.2240062 301.188006,45.1119974 299.94,45.64 C298.691994,46.1680026 297.384007,46.432 296.016,46.432 C294.719994,46.432 293.496006,46.2160022 292.344,45.784 C291.191994,45.3519978 290.196004,44.740004 289.356,43.948 C288.515996,43.155996 287.850002,42.2020056 287.358,41.086 C286.865998,39.9699944 286.62,38.7280068 286.62,37.36 C286.62,35.9919932 286.865998,34.7500056 287.358,33.634 C287.850002,32.5179944 288.515996,31.564004 289.356,30.772 C290.196004,29.979996 291.191994,29.3680022 292.344,28.936 C293.496006,28.5039978 294.719994,28.288 296.016,28.288 C297.216006,28.288 298.313995,28.4979979 299.31,28.918 C300.306005,29.3380021 301.157996,29.943996 301.866,30.736 C302.574004,31.528004 303.125998,32.5059942 303.522,33.67 C303.918002,34.8340058 304.116,36.1719924 304.116,37.684 L304.116,38.872 L290.94,38.872 Z M299.796,35.632 C299.772,34.3599936 299.376004,33.3580037 298.608,32.626 C297.839996,31.8939963 296.772007,31.528 295.404,31.528 C294.107994,31.528 293.082004,31.8999963 292.326,32.644 C291.569996,33.3880037 291.108001,34.3839938 290.94,35.632 L299.796,35.632 Z M308.148,28.72 L312.252,28.72 L312.252,31.492 L312.324,31.492 C312.732002,30.6279957 313.355996,29.8780032 314.196,29.242 C315.036004,28.6059968 316.175993,28.288 317.616,28.288 C318.768006,28.288 319.745996,28.4799981 320.55,28.864 C321.354004,29.2480019 322.007997,29.7519969 322.512,30.376 C323.016003,31.0000031 323.375999,31.7199959 323.592,32.536 C323.808001,33.3520041 323.916,34.2039956 323.916,35.092 L323.916,46 L319.596,46 L319.596,37.252 C319.596,36.7719976 319.572,36.2380029 319.524,35.65 C319.476,35.0619971 319.350001,34.5100026 319.146,33.994 C318.941999,33.4779974 318.624002,33.0460017 318.192,32.698 C317.759998,32.3499983 317.172004,32.176 316.428,32.176 C315.707996,32.176 315.102002,32.2959988 314.61,32.536 C314.117998,32.7760012 313.710002,33.099998 313.386,33.508 C313.061998,33.916002 312.828001,34.3839974 312.684,34.912 C312.539999,35.4400026 312.468,35.9919971 312.468,36.568 L312.468,46 L308.148,46 L308.148,28.72 Z M339.864,20.512 L349.908,20.512 C351.588008,20.512 353.207992,20.7699974 354.768,21.286 C356.328008,21.8020026 357.707994,22.5879947 358.908,23.644 C360.108006,24.7000053 361.067996,26.025992 361.788,27.622 C362.508004,29.218008 362.868,31.0959892 362.868,33.256 C362.868,35.4400109 362.454004,37.329992 361.626,38.926 C360.797996,40.522008 359.730007,41.8419948 358.422,42.886 C357.113993,43.9300052 355.662008,44.7099974 354.066,45.226 C352.469992,45.7420026 350.904008,46 349.368,46 L339.864,46 L339.864,20.512 Z M347.784,41.896 C349.200007,41.896 350.537994,41.7340016 351.798,41.41 C353.058006,41.0859984 354.155995,40.5820034 355.092,39.898 C356.028005,39.2139966 356.765997,38.3260055 357.306,37.234 C357.846003,36.1419945 358.116,34.8160078 358.116,33.256 C358.116,31.7199923 357.876002,30.4000055 357.396,29.296 C356.915998,28.1919945 356.250004,27.2980034 355.398,26.614 C354.545996,25.9299966 353.538006,25.4260016 352.374,25.102 C351.209994,24.7779984 349.932007,24.616 348.54,24.616 L344.4,24.616 L344.4,41.896 L347.784,41.896 Z M370.248,38.872 C370.392001,40.1680065 370.895996,41.1759964 371.76,41.896 C372.624004,42.6160036 373.667994,42.976 374.892,42.976 C375.972005,42.976 376.877996,42.7540022 377.61,42.31 C378.342004,41.8659978 378.983997,41.3080034 379.536,40.636 L382.632,42.976 C381.623995,44.2240062 380.496006,45.1119974 379.248,45.64 C377.999994,46.1680026 376.692007,46.432 375.324,46.432 C374.027994,46.432 372.804006,46.2160022 371.652,45.784 C370.499994,45.3519978 369.504004,44.740004 368.664,43.948 C367.823996,43.155996 367.158002,42.2020056 366.666,41.086 C366.173998,39.9699944 365.928,38.7280068 365.928,37.36 C365.928,35.9919932 366.173998,34.7500056 366.666,33.634 C367.158002,32.5179944 367.823996,31.564004 368.664,30.772 C369.504004,29.979996 370.499994,29.3680022 371.652,28.936 C372.804006,28.5039978 374.027994,28.288 375.324,28.288 C376.524006,28.288 377.621995,28.4979979 378.618,28.918 C379.614005,29.3380021 380.465996,29.943996 381.174,30.736 C381.882004,31.528004 382.433998,32.5059942 382.83,33.67 C383.226002,34.8340058 383.424,36.1719924 383.424,37.684 L383.424,38.872 L370.248,38.872 Z M379.104,35.632 C379.08,34.3599936 378.684004,33.3580037 377.916,32.626 C377.147996,31.8939963 376.080007,31.528 374.712,31.528 C373.415994,31.528 372.390004,31.8999963 371.634,32.644 C370.877996,33.3880037 370.416001,34.3839938 370.248,35.632 L379.104,35.632 Z M385.116,28.72 L389.832,28.72 L394.44,40.816 L394.512,40.816 L399.156,28.72 L403.584,28.72 L396.78,46 L392.172,46 L385.116,28.72 Z M409.596,38.872 C409.740001,40.1680065 410.243996,41.1759964 411.108,41.896 C411.972004,42.6160036 413.015994,42.976 414.24,42.976 C415.320005,42.976 416.225996,42.7540022 416.958,42.31 C417.690004,41.8659978 418.331997,41.3080034 418.884,40.636 L421.98,42.976 C420.971995,44.2240062 419.844006,45.1119974 418.596,45.64 C417.347994,46.1680026 416.040007,46.432 414.672,46.432 C413.375994,46.432 412.152006,46.2160022 411,45.784 C409.847994,45.3519978 408.852004,44.740004 408.012,43.948 C407.171996,43.155996 406.506002,42.2020056 406.014,41.086 C405.521998,39.9699944 405.276,38.7280068 405.276,37.36 C405.276,35.9919932 405.521998,34.7500056 406.014,33.634 C406.506002,32.5179944 407.171996,31.564004 408.012,30.772 C408.852004,29.979996 409.847994,29.3680022 411,28.936 C412.152006,28.5039978 413.375994,28.288 414.672,28.288 C415.872006,28.288 416.969995,28.4979979 417.966,28.918 C418.962005,29.3380021 419.813996,29.943996 420.522,30.736 C421.230004,31.528004 421.781998,32.5059942 422.178,33.67 C422.574002,34.8340058 422.772,36.1719924 422.772,37.684 L422.772,38.872 L409.596,38.872 Z M418.452,35.632 C418.428,34.3599936 418.032004,33.3580037 417.264,32.626 C416.495996,31.8939963 415.428007,31.528 414.06,31.528 C412.763994,31.528 411.738004,31.8999963 410.982,32.644 C410.225996,33.3880037 409.764001,34.3839938 409.596,35.632 L418.452,35.632 Z M426.876,18.784 L431.196,18.784 L431.196,46 L426.876,46 L426.876,18.784 Z M435.3,37.36 C435.3,35.9919932 435.545998,34.7500056 436.038,33.634 C436.530002,32.5179944 437.195996,31.564004 438.036,30.772 C438.876004,29.979996 439.871994,29.3680022 441.024,28.936 C442.176006,28.5039978 443.399994,28.288 444.696,28.288 C445.992006,28.288 447.215994,28.5039978 448.368,28.936 C449.520006,29.3680022 450.515996,29.979996 451.356,30.772 C452.196004,31.564004 452.861998,32.5179944 453.354,33.634 C453.846002,34.7500056 454.092,35.9919932 454.092,37.36 C454.092,38.7280068 453.846002,39.9699944 453.354,41.086 C452.861998,42.2020056 452.196004,43.155996 451.356,43.948 C450.515996,44.740004 449.520006,45.3519978 448.368,45.784 C447.215994,46.2160022 445.992006,46.432 444.696,46.432 C443.399994,46.432 442.176006,46.2160022 441.024,45.784 C439.871994,45.3519978 438.876004,44.740004 438.036,43.948 C437.195996,43.155996 436.530002,42.2020056 436.038,41.086 C435.545998,39.9699944 435.3,38.7280068 435.3,37.36 Z M439.62,37.36 C439.62,38.0320034 439.733999,38.6799969 439.962,39.304 C440.190001,39.9280031 440.525998,40.4799976 440.97,40.96 C441.414002,41.4400024 441.947997,41.8239986 442.572,42.112 C443.196003,42.4000014 443.903996,42.544 444.696,42.544 C445.488004,42.544 446.195997,42.4000014 446.82,42.112 C447.444003,41.8239986 447.977998,41.4400024 448.422,40.96 C448.866002,40.4799976 449.201999,39.9280031 449.43,39.304 C449.658001,38.6799969 449.772,38.0320034 449.772,37.36 C449.772,36.6879966 449.658001,36.0400031 449.43,35.416 C449.201999,34.7919969 448.866002,34.2400024 448.422,33.76 C447.977998,33.2799976 447.444003,32.8960014 446.82,32.608 C446.195997,32.3199986 445.488004,32.176 444.696,32.176 C443.903996,32.176 443.196003,32.3199986 442.572,32.608 C441.947997,32.8960014 441.414002,33.2799976 440.97,33.76 C440.525998,34.2400024 440.190001,34.7919969 439.962,35.416 C439.733999,36.0400031 439.62,36.6879966 439.62,37.36 Z M458.124,28.72 L462.228,28.72 L462.228,31.312 L462.3,31.312 C462.924003,30.2559947 463.763995,29.4880024 464.82,29.008 C465.876005,28.5279976 467.015994,28.288 468.24,28.288 C469.560007,28.288 470.747995,28.5219977 471.804,28.99 C472.860005,29.4580023 473.759996,30.0999959 474.504,30.916 C475.248004,31.7320041 475.811998,32.6919945 476.196,33.796 C476.580002,34.9000055 476.772,36.0879936 476.772,37.36 C476.772,38.6320064 476.568002,39.8199945 476.16,40.924 C475.751998,42.0280055 475.182004,42.9879959 474.45,43.804 C473.717996,44.6200041 472.836005,45.2619977 471.804,45.73 C470.771995,46.1980023 469.644006,46.432 468.42,46.432 C467.603996,46.432 466.884003,46.3480008 466.26,46.18 C465.635997,46.0119992 465.084002,45.7960013 464.604,45.532 C464.124,45.2679987 463.716002,44.9860015 463.38,44.686 C463.043998,44.3859985 462.768001,44.0920014 462.552,43.804 L462.444,43.804 L462.444,54.208 L458.124,54.208 L458.124,28.72 Z M472.452,37.36 C472.452,36.6879966 472.338001,36.0400031 472.11,35.416 C471.881999,34.7919969 471.546002,34.2400024 471.102,33.76 C470.657998,33.2799976 470.124003,32.8960014 469.5,32.608 C468.875997,32.3199986 468.168004,32.176 467.376,32.176 C466.583996,32.176 465.876003,32.3199986 465.252,32.608 C464.627997,32.8960014 464.094002,33.2799976 463.65,33.76 C463.205998,34.2400024 462.870001,34.7919969 462.642,35.416 C462.413999,36.0400031 462.3,36.6879966 462.3,37.36 C462.3,38.0320034 462.413999,38.6799969 462.642,39.304 C462.870001,39.9280031 463.205998,40.4799976 463.65,40.96 C464.094002,41.4400024 464.627997,41.8239986 465.252,42.112 C465.876003,42.4000014 466.583996,42.544 467.376,42.544 C468.168004,42.544 468.875997,42.4000014 469.5,42.112 C470.124003,41.8239986 470.657998,41.4400024 471.102,40.96 C471.546002,40.4799976 471.881999,39.9280031 472.11,39.304 C472.338001,38.6799969 472.452,38.0320034 472.452,37.36 Z M480.624,28.72 L484.728,28.72 L484.728,31.42 L484.8,31.42 C485.184002,30.6039959 485.801996,29.8780032 486.654,29.242 C487.506004,28.6059968 488.651993,28.288 490.092,28.288 C492.804014,28.288 494.603996,29.3559893 495.492,31.492 C496.116003,30.3879945 496.895995,29.5780026 497.832,29.062 C498.768005,28.5459974 499.883994,28.288 501.18,28.288 C502.332006,28.288 503.303996,28.4799981 504.096,28.864 C504.888004,29.2480019 505.529998,29.7759966 506.022,30.448 C506.514002,31.1200034 506.867999,31.9059955 507.084,32.806 C507.300001,33.7060045 507.408,34.6719948 507.408,35.704 L507.408,46 L503.088,46 L503.088,36.208 C503.088,35.6799974 503.04,35.1700025 502.944,34.678 C502.848,34.1859975 502.680001,33.7540019 502.44,33.382 C502.199999,33.0099981 501.876002,32.7160011 501.468,32.5 C501.059998,32.2839989 500.532003,32.176 499.884,32.176 C499.211997,32.176 498.642002,32.3019987 498.174,32.554 C497.705998,32.8060013 497.322002,33.1419979 497.022,33.562 C496.721999,33.9820021 496.506001,34.4619973 496.374,35.002 C496.241999,35.5420027 496.176,36.0879972 496.176,36.64 L496.176,46 L491.856,46 L491.856,35.704 C491.856,34.6239946 491.628002,33.7660032 491.172,33.13 C490.715998,32.4939968 489.960005,32.176 488.904,32.176 C488.183996,32.176 487.578002,32.2959988 487.086,32.536 C486.593998,32.7760012 486.186002,33.099998 485.862,33.508 C485.537998,33.916002 485.304001,34.3839974 485.16,34.912 C485.015999,35.4400026 484.944,35.9919971 484.944,36.568 L484.944,46 L480.624,46 L480.624,28.72 Z M515.58,38.872 C515.724001,40.1680065 516.227996,41.1759964 517.092,41.896 C517.956004,42.6160036 518.999994,42.976 520.224,42.976 C521.304005,42.976 522.209996,42.7540022 522.942,42.31 C523.674004,41.8659978 524.315997,41.3080034 524.868,40.636 L527.964,42.976 C526.955995,44.2240062 525.828006,45.1119974 524.58,45.64 C523.331994,46.1680026 522.024007,46.432 520.656,46.432 C519.359994,46.432 518.136006,46.2160022 516.984,45.784 C515.831994,45.3519978 514.836004,44.740004 513.996,43.948 C513.155996,43.155996 512.490002,42.2020056 511.998,41.086 C511.505998,39.9699944 511.26,38.7280068 511.26,37.36 C511.26,35.9919932 511.505998,34.7500056 511.998,33.634 C512.490002,32.5179944 513.155996,31.564004 513.996,30.772 C514.836004,29.979996 515.831994,29.3680022 516.984,28.936 C518.136006,28.5039978 519.359994,28.288 520.656,28.288 C521.856006,28.288 522.953995,28.4979979 523.95,28.918 C524.946005,29.3380021 525.797996,29.943996 526.506,30.736 C527.214004,31.528004 527.765998,32.5059942 528.162,33.67 C528.558002,34.8340058 528.756,36.1719924 528.756,37.684 L528.756,38.872 L515.58,38.872 Z M524.436,35.632 C524.412,34.3599936 524.016004,33.3580037 523.248,32.626 C522.479996,31.8939963 521.412007,31.528 520.044,31.528 C518.747994,31.528 517.722004,31.8999963 516.966,32.644 C516.209996,33.3880037 515.748001,34.3839938 515.58,35.632 L524.436,35.632 Z M532.788,28.72 L536.892,28.72 L536.892,31.492 L536.964,31.492 C537.372002,30.6279957 537.995996,29.8780032 538.836,29.242 C539.676004,28.6059968 540.815993,28.288 542.256,28.288 C543.408006,28.288 544.385996,28.4799981 545.19,28.864 C545.994004,29.2480019 546.647997,29.7519969 547.152,30.376 C547.656003,31.0000031 548.015999,31.7199959 548.232,32.536 C548.448001,33.3520041 548.556,34.2039956 548.556,35.092 L548.556,46 L544.236,46 L544.236,37.252 C544.236,36.7719976 544.212,36.2380029 544.164,35.65 C544.116,35.0619971 543.990001,34.5100026 543.786,33.994 C543.581999,33.4779974 543.264002,33.0460017 542.832,32.698 C542.399998,32.3499983 541.812004,32.176 541.068,32.176 C540.347996,32.176 539.742002,32.2959988 539.25,32.536 C538.757998,32.7760012 538.350002,33.099998 538.026,33.508 C537.701998,33.916002 537.468001,34.3839974 537.324,34.912 C537.179999,35.4400026 537.108,35.9919971 537.108,36.568 L537.108,46 L532.788,46 L532.788,28.72 Z M551.436,32.392 L551.436,28.72 L555,28.72 L555,23.716 L559.32,23.716 L559.32,28.72 L564.072,28.72 L564.072,32.392 L559.32,32.392 L559.32,39.952 C559.32,40.8160043 559.481998,41.4999975 559.806,42.004 C560.130002,42.5080025 560.771995,42.76 561.732,42.76 C562.116002,42.76 562.535998,42.7180004 562.992,42.634 C563.448002,42.5499996 563.807999,42.412001 564.072,42.22 L564.072,45.856 C563.615998,46.0720011 563.058003,46.2219996 562.398,46.306 C561.737997,46.3900004 561.156003,46.432 560.652,46.432 C559.499994,46.432 558.558004,46.3060013 557.826,46.054 C557.093996,45.8019987 556.518002,45.4180026 556.098,44.902 C555.677998,44.3859974 555.390001,43.7440038 555.234,42.976 C555.077999,42.2079962 555,41.320005 555,40.312 L555,32.392 L551.436,32.392 Z M60.912,71.008 L62.544,71.008 L67.32,88 L65.544,88 L64.32,83.488 L55.32,83.488 L52.776,88 L51.12,88 L60.912,71.008 Z M61.416,72.736 L56.136,82.048 L63.936,82.048 L61.416,72.736 Z M71.056,84.856 C71.3760016,85.576 71.839997,86.1119982 72.448,86.464 C73.056003,86.8160018 73.7839958,86.992 74.632,86.992 C75.1600026,86.992 75.6679976,86.9120008 76.156,86.752 C76.6440024,86.5919992 77.0799981,86.3680014 77.464,86.08 C77.8480019,85.7919986 78.1679987,85.444002 78.424,85.036 C78.6800013,84.627998 78.8479996,84.1680026 78.928,83.656 C79.0080004,83.063997 78.952001,82.576 78.76,82.192 C78.567999,81.8079981 78.2840019,81.4920012 77.908,81.244 C77.5319981,80.9959988 77.0920025,80.7840009 76.588,80.608 C76.0839975,80.4319991 75.5720026,80.2560009 75.052,80.08 C74.5319974,79.9039991 74.0240025,79.7040011 73.528,79.48 C73.0319975,79.2559989 72.6040018,78.9640018 72.244,78.604 C71.8839982,78.2439982 71.6160009,77.7920027 71.44,77.248 C71.2639991,76.7039973 71.2319994,76.032004 71.344,75.232 C71.4560006,74.4799962 71.7039981,73.8120029 72.088,73.228 C72.4720019,72.6439971 72.9439972,72.156002 73.504,71.764 C74.0640028,71.371998 74.6839966,71.076 75.364,70.876 C76.0440034,70.675999 76.7439964,70.576 77.464,70.576 C78.3920046,70.576 79.2279963,70.7399984 79.972,71.068 C80.7160037,71.3960016 81.3199977,71.9439962 81.784,72.712 L80.272,73.696 C79.9519984,73.1359972 79.5440025,72.7160014 79.048,72.436 C78.5519975,72.1559986 77.9360037,72.016 77.2,72.016 C76.6879974,72.016 76.1920024,72.0839993 75.712,72.22 C75.2319976,72.3560007 74.8000019,72.5559987 74.416,72.82 C74.0319981,73.0840013 73.7080013,73.415998 73.444,73.816 C73.1799987,74.216002 73.0080004,74.6879973 72.928,75.232 C72.8319995,75.8720032 72.883999,76.395998 73.084,76.804 C73.284001,77.212002 73.5679982,77.5479987 73.936,77.812 C74.3040018,78.076 74.7399975,78.2919992 75.244,78.46 C75.7480025,78.6280008 76.2599974,78.7959992 76.78,78.964 C77.3000026,79.1320008 77.8079975,79.319999 78.304,79.528 C78.8000025,79.736001 79.2319982,80.0119983 79.6,80.356 C79.9680018,80.7000017 80.2399991,81.1359974 80.416,81.664 C80.5920009,82.1920026 80.6240006,82.855996 80.512,83.656 C80.4,84.4240038 80.1560019,85.103997 79.78,85.696 C79.4039981,86.288003 78.9440027,86.787998 78.4,87.196 C77.8559973,87.604002 77.2520033,87.911999 76.588,88.12 C75.9239967,88.328001 75.2480034,88.432 74.56,88.432 C73.4399944,88.432 72.4320045,88.236002 71.536,87.844 C70.6399955,87.451998 69.9280026,86.7920046 69.4,85.864 L71.056,84.856 Z M89.864,72.448 L84.056,72.448 L84.248,71.008 L97.448,71.008 L97.256,72.448 L91.448,72.448 L89.264,88 L87.68,88 L89.864,72.448 Z M94.584,81.664 L100.512,81.664 L100.32,82.96 L94.392,82.96 L94.584,81.664 Z M112.936,86.056 L112.888,86.056 C112.615999,86.4400019 112.292002,86.7719986 111.916,87.052 C111.539998,87.3320014 111.140002,87.5639991 110.716,87.748 C110.291998,87.9320009 109.860002,88.0679996 109.42,88.156 C108.979998,88.2440004 108.552002,88.288 108.136,88.288 C107.287996,88.288 106.524003,88.1440014 105.844,87.856 C105.163997,87.5679986 104.604002,87.1640026 104.164,86.644 C103.723998,86.1239974 103.408001,85.5080036 103.216,84.796 C103.023999,84.0839964 102.991999,83.3040042 103.12,82.456 C103.232001,81.6079958 103.483998,80.8280036 103.876,80.116 C104.268002,79.4039964 104.755997,78.7880026 105.34,78.268 C105.924003,77.7479974 106.595996,77.3440014 107.356,77.056 C108.116004,76.7679986 108.919996,76.624 109.768,76.624 C110.184002,76.624 110.599998,76.6679996 111.016,76.756 C111.432002,76.8440004 111.827998,76.9799991 112.204,77.164 C112.580002,77.3480009 112.911999,77.5799986 113.2,77.86 C113.488001,78.1400014 113.719999,78.4719981 113.896,78.856 L113.944,78.856 L115.216,69.856 L116.656,69.856 L114.112,88 L112.672,88 L112.936,86.056 Z M113.584,82.456 C113.68,81.8319969 113.648001,81.2440028 113.488,80.692 C113.327999,80.1399972 113.068002,79.660002 112.708,79.252 C112.347998,78.843998 111.904003,78.5200012 111.376,78.28 C110.847997,78.0399988 110.256003,77.92 109.6,77.92 C108.927997,77.92 108.304003,78.0399988 107.728,78.28 C107.151997,78.5200012 106.644002,78.843998 106.204,79.252 C105.763998,79.660002 105.404001,80.1399972 105.124,80.692 C104.843999,81.2440028 104.656,81.8319969 104.56,82.456 C104.464,83.0800031 104.479999,83.6679972 104.608,84.22 C104.736001,84.7720028 104.959998,85.251998 105.28,85.66 C105.600002,86.068002 106.015997,86.3919988 106.528,86.632 C107.040003,86.8720012 107.631997,86.992 108.304,86.992 C108.960003,86.992 109.587997,86.8720012 110.188,86.632 C110.788003,86.3919988 111.323998,86.068002 111.796,85.66 C112.268002,85.251998 112.659998,84.7720028 112.972,84.22 C113.284002,83.6679972 113.488,83.0800031 113.584,82.456 Z M119.48,88 L118.04,88 L119.192,79.6870002 C119.208,79.5610005 119.224,79.4240007 119.24,79.276 L119.285,78.829 L119.285,78.829 L119.372,77.7946669 L119.372,77.7946669 L119.44592,77.0056001 C119.44944,76.9720002 119.4528,76.9408001 119.456,76.912 L120.896,76.912 C120.874667,77.1893347 120.849778,77.4595556 120.821333,77.7226663 L120.742694,78.4078375 C120.721469,78.626613 120.716571,78.7759996 120.728,78.856 C121.192002,78.1999967 121.739997,77.6640021 122.372,77.248 C123.004003,76.8319979 123.735996,76.624 124.568,76.624 C124.824001,76.624 125.095999,76.6639996 125.384,76.744 L125.024,78.16 C124.847999,78.0959997 124.672001,78.064 124.496,78.064 C123.871997,78.064 123.320002,78.163999 122.84,78.364 C122.359998,78.564001 121.944002,78.8399982 121.592,79.192 C121.239998,79.5440018 120.960001,79.9559976 120.752,80.428 C120.543999,80.9000024 120.4,81.4079973 120.32,81.952 L119.48,88 Z M128.208,76.912 L129.648,76.912 L128.112,88 L126.672,88 L128.208,76.912 Z M128.472,72.52 C128.52,72.2159985 128.659999,71.960001 128.892,71.752 C129.124001,71.543999 129.391998,71.44 129.696,71.44 C130.000002,71.44 130.243999,71.543999 130.428,71.752 C130.612001,71.960001 130.68,72.2159985 130.632,72.52 C130.6,72.8240015 130.464001,73.079999 130.224,73.288 C129.983999,73.496001 129.712002,73.6 129.408,73.6 C129.103998,73.6 128.864001,73.496001 128.688,73.288 C128.511999,73.079999 128.44,72.8240015 128.472,72.52 Z M132.568,76.912 L134.2,76.912 L136.576,86.44 L141.496,76.912 L142.96,76.912 L137.056,88 L135.568,88 L132.568,76.912 Z M154.184,85.912 C153.495997,86.7600042 152.716004,87.3679982 151.844,87.736 C150.971996,88.1040018 150.040005,88.288 149.048,88.288 C148.199996,88.288 147.452003,88.1440014 146.804,87.856 C146.155997,87.5679986 145.620002,87.1640026 145.196,86.644 C144.771998,86.124 144.476001,85.5080036 144.308,84.796 C144.139999,84.0839964 144.119999,83.2960043 144.248,82.432 C144.360001,81.5999958 144.603998,80.8320035 144.98,80.128 C145.356002,79.4239965 145.827997,78.8120026 146.396,78.292 C146.964003,77.7719974 147.603996,77.3640015 148.316,77.068 C149.028004,76.7719985 149.791996,76.624 150.608,76.624 C151.456004,76.624 152.183997,76.7719985 152.792,77.068 C153.400003,77.3640015 153.891998,77.7559976 154.268,78.244 C154.644002,78.7320024 154.899999,79.2879969 155.036,79.912 C155.172001,80.5360031 155.192,81.1679968 155.096,81.808 L154.952,82.816 L145.64,82.816 C145.592,83.1200015 145.596,83.5079976 145.652,83.98 C145.708,84.4520024 145.863999,84.9119978 146.12,85.36 C146.376001,85.8080022 146.747998,86.1919984 147.236,86.512 C147.724002,86.8320016 148.391996,86.992 149.24,86.992 C149.976004,86.992 150.715996,86.8160018 151.46,86.464 C152.204004,86.1119982 152.799998,85.632003 153.248,85.024 L154.184,85.912 Z M153.68,81.52 C153.744,81.0239975 153.712,80.5600022 153.584,80.128 C153.455999,79.6959978 153.240002,79.3160016 152.936,78.988 C152.631998,78.6599984 152.260002,78.400001 151.82,78.208 C151.379998,78.015999 150.896003,77.92 150.368,77.92 C149.583996,77.92 148.908003,78.0799984 148.34,78.4 C147.771997,78.7200016 147.304002,79.0879979 146.936,79.504 C146.567998,79.92 146.292001,80.323998 146.108,80.716 C145.923999,81.108002 145.824,81.3759993 145.808,81.52 L153.68,81.52 Z M159.288,88 L157.848,88 L159,79.6870002 C159.016,79.5610005 159.032,79.4240007 159.048,79.276 L159.093,78.829 L159.093,78.829 L159.18,77.7946669 L159.18,77.7946669 L159.25392,77.0056001 C159.25744,76.9720002 159.2608,76.9408001 159.264,76.912 L160.704,76.912 C160.682667,77.1893347 160.657778,77.4595556 160.629333,77.7226663 L160.550694,78.4078375 C160.529469,78.626613 160.524571,78.7759996 160.536,78.856 L160.608,78.856 C160.800001,78.5519985 161.035999,78.2640014 161.316,77.992 C161.596001,77.7199986 161.911998,77.484001 162.264,77.284 C162.616002,77.083999 162.999998,76.9240006 163.416,76.804 C163.832002,76.6839994 164.263998,76.624 164.712,76.624 C165.576004,76.624 166.263997,76.7599986 166.776,77.032 C167.288003,77.3040014 167.667999,77.6599978 167.916,78.1 C168.164001,78.5400022 168.304,79.0479971 168.336,79.624 C168.368,80.2000029 168.344,80.791997 168.264,81.4 L167.352,88 L165.912,88 L166.824,81.472 C166.888,81.0239978 166.912,80.5880021 166.896,80.164 C166.88,79.7399979 166.792001,79.3600017 166.632,79.024 C166.471999,78.6879983 166.228002,78.420001 165.9,78.22 C165.571998,78.019999 165.120003,77.92 164.544,77.92 C164.015997,77.92 163.504002,78.0119991 163.008,78.196 C162.511998,78.3800009 162.064002,78.6599981 161.664,79.036 C161.263998,79.4120019 160.924001,79.8839972 160.644,80.452 C160.363999,81.0200028 160.168001,81.6879962 160.056,82.456 L159.288,88 Z M180.464,69.856 L181.904,69.856 L180.632,78.856 L180.68,78.856 C180.952001,78.4719981 181.275998,78.1400014 181.652,77.86 C182.028002,77.5799986 182.427998,77.3480009 182.852,77.164 C183.276002,76.9799991 183.707998,76.8440004 184.148,76.756 C184.588002,76.6679996 185.015998,76.624 185.432,76.624 C186.280004,76.624 187.039997,76.7679986 187.712,77.056 C188.384003,77.3440014 188.943998,77.7479974 189.392,78.268 C189.840002,78.7880026 190.155999,79.4039964 190.34,80.116 C190.524001,80.8280036 190.560001,81.6079958 190.448,82.456 C190.319999,83.3040042 190.064002,84.0839964 189.68,84.796 C189.295998,85.5080036 188.808003,86.1239974 188.216,86.644 C187.623997,87.1640026 186.952004,87.5679986 186.2,87.856 C185.447996,88.1440014 184.648004,88.288 183.8,88.288 C183.383998,88.288 182.968002,88.2440004 182.552,88.156 C182.135998,88.0679996 181.740002,87.9320009 181.364,87.748 C180.987998,87.5639991 180.652001,87.3320014 180.356,87.052 C180.059999,86.7719986 179.832001,86.4400019 179.672,86.056 L179.624,86.056 L179.36,88 L177.92,88 L180.464,69.856 Z M179.984,82.456 C179.888,83.0800031 179.919999,83.6679972 180.08,84.22 C180.240001,84.7720028 180.499998,85.251998 180.86,85.66 C181.220002,86.068002 181.663997,86.3919988 182.192,86.632 C182.720003,86.8720012 183.311997,86.992 183.968,86.992 C184.640003,86.992 185.263997,86.8720012 185.84,86.632 C186.416003,86.3919988 186.923998,86.068002 187.364,85.66 C187.804002,85.251998 188.163999,84.7720028 188.444,84.22 C188.724001,83.6679972 188.912,83.0800031 189.008,82.456 C189.104,81.8319969 189.088001,81.2440028 188.96,80.692 C188.831999,80.1399972 188.608002,79.660002 188.288,79.252 C187.967998,78.843998 187.552003,78.5200012 187.04,78.28 C186.527997,78.0399988 185.936003,77.92 185.264,77.92 C184.607997,77.92 183.980003,78.0399988 183.38,78.28 C182.779997,78.5200012 182.244002,78.843998 181.772,79.252 C181.299998,79.660002 180.908002,80.1399972 180.596,80.692 C180.283998,81.2440028 180.08,81.8319969 179.984,82.456 Z M203.112,84.88 C203.088,85.0360008 203.064,85.2167496 203.04,85.4222495 L202.971,86.083 L202.971,86.083 L202.82112,87.7984001 C202.81344,87.8751999 202.8064,87.9423997 202.8,88 L201.36,88 C201.381333,87.7226653 201.406222,87.4524444 201.434667,87.1893337 L201.513306,86.5041625 C201.534531,86.285387 201.539429,86.1360004 201.528,86.056 L201.456,86.056 C201.263999,86.3600015 201.028001,86.6479986 200.748,86.92 C200.467999,87.1920014 200.152002,87.427999 199.8,87.628 C199.447998,87.828001 199.064002,87.9879994 198.648,88.108 C198.231998,88.2280006 197.800002,88.288 197.352,88.288 C196.487996,88.288 195.800003,88.1520014 195.288,87.88 C194.775997,87.6079986 194.396001,87.2520022 194.148,86.812 C193.899999,86.3719978 193.76,85.8640029 193.728,85.288 C193.696,84.7119971 193.72,84.120003 193.8,83.512 L194.712,76.912 L196.152,76.912 L195.24,83.44 C195.176,83.8880022 195.152,84.3239979 195.168,84.748 C195.184,85.1720021 195.271999,85.5519983 195.432,85.888 C195.592001,86.2240017 195.835998,86.491999 196.164,86.692 C196.492002,86.892001 196.943997,86.992 197.52,86.992 C198.048003,86.992 198.559998,86.9000009 199.056,86.716 C199.552002,86.5319991 199.999998,86.2520019 200.4,85.876 C200.800002,85.4999981 201.139999,85.0280028 201.42,84.46 C201.700001,83.8919972 201.895999,83.2240038 202.008,82.456 L202.776,76.912 L204.216,76.912 L203.112,84.88 Z M208.816,76.912 L210.256,76.912 L208.72,88 L207.28,88 L208.816,76.912 Z M209.08,72.52 C209.128,72.2159985 209.267999,71.960001 209.5,71.752 C209.732001,71.543999 209.999998,71.44 210.304,71.44 C210.608002,71.44 210.851999,71.543999 211.036,71.752 C211.220001,71.960001 211.288,72.2159985 211.24,72.52 C211.208,72.8240015 211.072001,73.079999 210.832,73.288 C210.591999,73.496001 210.320002,73.6 210.016,73.6 C209.711998,73.6 209.472001,73.496001 209.296,73.288 C209.119999,73.079999 209.048,72.8240015 209.08,72.52 Z M215.984,69.856 L217.424,69.856 L214.88,88 L213.44,88 L215.984,69.856 Z M229.32,86.056 L229.272,86.056 C228.999999,86.4400019 228.676002,86.7719986 228.3,87.052 C227.923998,87.3320014 227.524002,87.5639991 227.1,87.748 C226.675998,87.9320009 226.244002,88.0679996 225.804,88.156 C225.363998,88.2440004 224.936002,88.288 224.52,88.288 C223.671996,88.288 222.908003,88.1440014 222.228,87.856 C221.547997,87.5679986 220.988002,87.1640026 220.548,86.644 C220.107998,86.1239974 219.792001,85.5080036 219.6,84.796 C219.407999,84.0839964 219.375999,83.3040042 219.504,82.456 C219.616001,81.6079958 219.867998,80.8280036 220.26,80.116 C220.652002,79.4039964 221.139997,78.7880026 221.724,78.268 C222.308003,77.7479974 222.979996,77.3440014 223.74,77.056 C224.500004,76.7679986 225.303996,76.624 226.152,76.624 C226.568002,76.624 226.983998,76.6679996 227.4,76.756 C227.816002,76.8440004 228.211998,76.9799991 228.588,77.164 C228.964002,77.3480009 229.295999,77.5799986 229.584,77.86 C229.872001,78.1400014 230.103999,78.4719981 230.28,78.856 L230.328,78.856 L231.6,69.856 L233.04,69.856 L230.496,88 L229.056,88 L229.32,86.056 Z M229.968,82.456 C230.064,81.8319969 230.032001,81.2440028 229.872,80.692 C229.711999,80.1399972 229.452002,79.660002 229.092,79.252 C228.731998,78.843998 228.288003,78.5200012 227.76,78.28 C227.231997,78.0399988 226.640003,77.92 225.984,77.92 C225.311997,77.92 224.688003,78.0399988 224.112,78.28 C223.535997,78.5200012 223.028002,78.843998 222.588,79.252 C222.147998,79.660002 221.788001,80.1399972 221.508,80.692 C221.227999,81.2440028 221.04,81.8319969 220.944,82.456 C220.848,83.0800031 220.863999,83.6679972 220.992,84.22 C221.120001,84.7720028 221.343998,85.251998 221.664,85.66 C221.984002,86.068002 222.399997,86.3919988 222.912,86.632 C223.424003,86.8720012 224.015997,86.992 224.688,86.992 C225.344003,86.992 225.971997,86.8720012 226.572,86.632 C227.172003,86.3919988 227.707998,86.068002 228.18,85.66 C228.652002,85.251998 229.043998,84.7720028 229.356,84.22 C229.668002,83.6679972 229.872,83.0800031 229.968,82.456 Z M247.856,78.208 L244.688,78.208 L243.68,85.432 C243.6,85.9280025 243.675999,86.3119986 243.908,86.584 C244.140001,86.8560014 244.495998,86.992 244.976,86.992 C245.248001,86.992 245.531999,86.9560004 245.828,86.884 C246.124001,86.8119996 246.407999,86.72 246.68,86.608 L246.608,87.904 C246.335999,88.0000005 246.016002,88.0879996 245.648,88.168 C245.279998,88.2480004 244.960001,88.288 244.688,88.288 C244.175997,88.288 243.748002,88.2120008 243.404,88.06 C243.059998,87.9079992 242.792001,87.7040013 242.6,87.448 C242.407999,87.1919987 242.284,86.8920017 242.228,86.548 C242.1832,86.2727986 242.1768,85.9796807 242.2088,85.6686406 L243.248,78.208 L240.848,78.208 L241.016,76.912 L243.416,76.912 L243.872,73.72 L245.312,73.72 L244.856,76.912 L248.024,76.912 L247.856,78.208 Z M249.6,82.456 C249.712001,81.6079958 249.963998,80.8280036 250.356,80.116 C250.748002,79.4039964 251.235997,78.7880026 251.82,78.268 C252.404003,77.7479974 253.075996,77.3440014 253.836,77.056 C254.596004,76.7679986 255.399996,76.624 256.248,76.624 C257.096004,76.624 257.855997,76.7679986 258.528,77.056 C259.200003,77.3440014 259.759998,77.7479974 260.208,78.268 C260.656002,78.7880026 260.971999,79.4039964 261.156,80.116 C261.340001,80.8280036 261.376001,81.6079958 261.264,82.456 C261.135999,83.3040042 260.880002,84.0839964 260.496,84.796 C260.111998,85.5080036 259.624003,86.124 259.032,86.644 C258.439997,87.1640026 257.768004,87.5679986 257.016,87.856 C256.263996,88.1440014 255.464004,88.288 254.616,88.288 C253.767996,88.288 253.004003,88.1440014 252.324,87.856 C251.643997,87.5679986 251.084002,87.1640026 250.644,86.644 C250.203998,86.124 249.888001,85.5080036 249.696,84.796 C249.503999,84.0839964 249.471999,83.3040042 249.6,82.456 Z M251.04,82.456 C250.944,83.0800031 250.959999,83.6679972 251.088,84.22 C251.216001,84.7720028 251.439998,85.251998 251.76,85.66 C252.080002,86.068002 252.495997,86.3919988 253.008,86.632 C253.520003,86.8720012 254.111997,86.992 254.784,86.992 C255.456003,86.992 256.079997,86.8720012 256.656,86.632 C257.232003,86.3919988 257.739998,86.068002 258.18,85.66 C258.620002,85.251998 258.979999,84.7720028 259.26,84.22 C259.540001,83.6679972 259.728,83.0800031 259.824,82.456 C259.92,81.8319969 259.904001,81.2440028 259.776,80.692 C259.647999,80.1399972 259.424002,79.660002 259.104,79.252 C258.783998,78.843998 258.368003,78.5200012 257.856,78.28 C257.343997,78.0399988 256.752003,77.92 256.08,77.92 C255.407997,77.92 254.784003,78.0399988 254.208,78.28 C253.631997,78.5200012 253.124002,78.843998 252.684,79.252 C252.243998,79.660002 251.884001,80.1399972 251.604,80.692 C251.323999,81.2440028 251.136,81.8319969 251.04,82.456 Z M264.256,82.456 C264.368001,81.6079958 264.619998,80.8280036 265.012,80.116 C265.404002,79.4039964 265.891997,78.7880026 266.476,78.268 C267.060003,77.7479974 267.731996,77.3440014 268.492,77.056 C269.252004,76.7679986 270.055996,76.624 270.904,76.624 C271.752004,76.624 272.511997,76.7679986 273.184,77.056 C273.856003,77.3440014 274.415998,77.7479974 274.864,78.268 C275.312002,78.7880026 275.627999,79.4039964 275.812,80.116 C275.996001,80.8280036 276.032001,81.6079958 275.92,82.456 C275.791999,83.3040042 275.536002,84.0839964 275.152,84.796 C274.767998,85.5080036 274.280003,86.124 273.688,86.644 C273.095997,87.1640026 272.424004,87.5679986 271.672,87.856 C270.919996,88.1440014 270.120004,88.288 269.272,88.288 C268.423996,88.288 267.660003,88.1440014 266.98,87.856 C266.299997,87.5679986 265.740002,87.1640026 265.3,86.644 C264.859998,86.124 264.544001,85.5080036 264.352,84.796 C264.159999,84.0839964 264.127999,83.3040042 264.256,82.456 Z M265.696,82.456 C265.6,83.0800031 265.615999,83.6679972 265.744,84.22 C265.872001,84.7720028 266.095998,85.251998 266.416,85.66 C266.736002,86.068002 267.151997,86.3919988 267.664,86.632 C268.176003,86.8720012 268.767997,86.992 269.44,86.992 C270.112003,86.992 270.735997,86.8720012 271.312,86.632 C271.888003,86.3919988 272.395998,86.068002 272.836,85.66 C273.276002,85.251998 273.635999,84.7720028 273.916,84.22 C274.196001,83.6679972 274.384,83.0800031 274.48,82.456 C274.576,81.8319969 274.560001,81.2440028 274.432,80.692 C274.303999,80.1399972 274.080002,79.660002 273.76,79.252 C273.439998,78.843998 273.024003,78.5200012 272.512,78.28 C271.999997,78.0399988 271.408003,77.92 270.736,77.92 C270.063997,77.92 269.440003,78.0399988 268.864,78.28 C268.287997,78.5200012 267.780002,78.843998 267.34,79.252 C266.899998,79.660002 266.540001,80.1399972 266.26,80.692 C265.979999,81.2440028 265.792,81.8319969 265.696,82.456 Z M281.552,69.856 L282.992,69.856 L280.448,88 L279.008,88 L281.552,69.856 Z" id="CompilerDrivenDevelopmentAST-drivenbuildtool" fill="#FFFFFF"></path>
                <path d="M23.6639209,87.7724033 C23.6639209,93.0032509 24.6128406,97.3947548 26.5107084,100.947047 C28.4085762,104.499339 31.5716418,106.958581 36,108.324847 L33.6869852,115 C26.0955139,112.892046 20.6787642,109.49595 17.4365733,104.811609 C14.1943825,100.127268 12.5733114,94.4475894 12.5733114,87.7724033 L12.5733114,75.6517312 C12.5733114,71.2406433 11.5551996,67.8152702 9.51894563,65.3755092 C7.48269163,62.9357482 4.30974148,61.7158859 0,61.7158859 L0,53.2841141 C4.30974148,53.2841141 7.48269163,52.0642518 9.51894563,49.6244908 C11.5551996,47.1847298 12.5733114,43.7593567 12.5733114,39.3482688 L12.5733114,27.2275967 C12.5733114,20.5524106 14.1943825,14.8727322 17.4365733,10.188391 C20.6787642,5.5040499 26.0955139,2.10795351 33.6869852,0 L36,6.61659878 C31.5716418,8.02190112 28.4085762,10.5006611 26.5107084,14.0529532 C24.6128406,17.6052452 23.6639209,21.9967491 23.6639209,27.2275967 L23.6639209,39.3482688 C23.6639209,43.4080312 22.8435008,47.0090644 21.2026359,50.1514766 C19.561771,53.2938888 17.0609723,55.7433721 13.7001647,57.5 C17.0609723,59.2566279 19.561771,61.7061112 21.2026359,64.8485234 C22.8435008,67.9909356 23.6639209,71.5919688 23.6639209,75.6517312 L23.6639209,87.7724033 Z" id="{" fill="url(#linearGradient-1)"></path>
            </g>
        </g>
    </g>
</svg>