<?xml version="1.0" encoding="UTF-8"?>
<svg width="779px" height="797px" viewBox="0 0 779 797" version="1.1" xmlns="http://www.w3.org/2000/svg" xmlns:xlink="http://www.w3.org/1999/xlink">
    <!-- Generator: Sketch 59.1 (86144) - https://sketch.com -->
    <title>cdd-diagram</title>
    <desc>Created with Sketch.</desc>
    <defs>
        <path d="M614.187512,490.917757 L614.163084,490.90311 C579.948503,496.677061 446.077967,435.414366 414.213409,415.79465 L414.021238,415.680733 C386.798098,398.915444 287.678621,335.975894 276.086475,308.635878 C274.11428,303.976683 272.396141,299.224728 270.90763,294.404422 L270.879944,294.388149 C261.914678,256.660553 257.201603,224.809433 225.535731,205.308515 C180.395088,177.509576 121.252019,191.542491 93.4360808,236.650264 C65.6152568,281.75641 79.6600256,340.859668 124.79904,368.655352 C156.468169,388.157897 190.555722,377.212126 224.814275,369.083353 L224.837075,369.094745 C259.053285,363.325676 374.639211,408.254989 406.503769,427.874706 L406.694311,427.99025 C433.919079,444.753911 551.319909,524.025215 562.913683,551.365232 C564.887508,556.021172 566.607275,560.774755 568.094158,565.59506 L568.121843,565.612961 C577.087109,603.340557 581.800184,635.193304 613.469314,654.694222 C658.6067,682.489906 717.749768,668.455364 745.568964,623.349218 C773.381645,578.2447 759.340133,519.141442 714.19949,491.347386 C682.533618,471.84484 648.444436,482.787356 614.187512,490.917757 Z" id="path-1"></path>
        <filter x="-2.1%" y="-2.9%" width="104.7%" height="106.7%" filterUnits="objectBoundingBox" id="filter-2">
            <feMorphology radius="1" operator="dilate" in="SourceAlpha" result="shadowSpreadOuter1"></feMorphology>
            <feOffset dx="2" dy="2" in="shadowSpreadOuter1" result="shadowOffsetOuter1"></feOffset>
            <feGaussianBlur stdDeviation="4" in="shadowOffsetOuter1" result="shadowBlurOuter1"></feGaussianBlur>
            <feColorMatrix values="0 0 0 0 0   0 0 0 0 0   0 0 0 0 0  0 0 0 0.0758850524 0" type="matrix" in="shadowBlurOuter1"></feColorMatrix>
        </filter>
        <path d="M580.464075,537.800381 L580.446129,537.778263 C546.320132,531.501926 441.476053,428.147404 418.243502,398.81258 L418.101882,398.639807 C398.254565,373.574727 326.639317,280.530039 325.0971,250.874079 C324.837381,245.821338 324.848123,240.768323 325.098021,235.729616 L325.077571,235.704855 C329.556575,197.18621 336.021458,165.643981 312.934978,136.488746 C280.024446,94.9272796 219.648601,87.8857851 178.082402,120.759615 C136.512169,153.630245 129.495429,213.972735 162.405544,255.530586 C185.494528,284.688464 221.270024,286.061434 256.242737,290.140001 L256.260266,290.158503 C290.386124,296.439985 383.634636,378.192444 406.867187,407.527268 L407.00672,407.701013 C426.856124,432.765121 510.064435,547.409229 511.608182,577.065745 C511.870545,582.115985 511.860777,587.171087 511.609348,592.209236 L511.629241,592.235527 C507.150238,630.754172 500.684799,662.29793 523.774339,691.454279 C556.682924,733.011573 617.059325,740.051538 658.628028,707.180351 C700.190053,674.308465 707.209853,613.96709 674.297651,572.410211 C651.211728,543.253447 615.435815,541.876862 580.464075,537.800381 Z" id="path-3"></path>
        <filter x="-2.5%" y="-2.2%" width="105.8%" height="105.1%" filterUnits="objectBoundingBox" id="filter-4">
            <feMorphology radius="1" operator="dilate" in="SourceAlpha" result="shadowSpreadOuter1"></feMorphology>
            <feOffset dx="2" dy="2" in="shadowSpreadOuter1" result="shadowOffsetOuter1"></feOffset>
            <feGaussianBlur stdDeviation="4" in="shadowOffsetOuter1" result="shadowBlurOuter1"></feGaussianBlur>
            <feColorMatrix values="0 0 0 0 0   0 0 0 0 0   0 0 0 0 0  0 0 0 0.0758850524 0" type="matrix" in="shadowBlurOuter1"></feColorMatrix>
        </filter>
        <circle id="path-5" cx="78" cy="78" r="78"></circle>
        <filter x="-9.0%" y="-9.0%" width="120.5%" height="120.5%" filterUnits="objectBoundingBox" id="filter-6">
            <feMorphology radius="1" operator="dilate" in="SourceAlpha" result="shadowSpreadOuter1"></feMorphology>
            <feOffset dx="2" dy="2" in="shadowSpreadOuter1" result="shadowOffsetOuter1"></feOffset>
            <feGaussianBlur stdDeviation="4" in="shadowOffsetOuter1" result="shadowBlurOuter1"></feGaussianBlur>
            <feColorMatrix values="0 0 0 0 0   0 0 0 0 0   0 0 0 0 0  0 0 0 0.0758850524 0" type="matrix" in="shadowBlurOuter1"></feColorMatrix>
        </filter>
        <linearGradient x1="100%" y1="50%" x2="1.63624043%" y2="50%" id="linearGradient-7">
            <stop stop-color="#239AF8" offset="0%"></stop>
            <stop stop-color="#0068FF" offset="100%"></stop>
        </linearGradient>
        <linearGradient x1="100%" y1="50%" x2="1.63624043%" y2="50%" id="linearGradient-8">
            <stop stop-color="#239AF8" offset="0%"></stop>
            <stop stop-color="#0068FF" offset="100%"></stop>
        </linearGradient>
        <linearGradient x1="100%" y1="50%" x2="1.63624043%" y2="50%" id="linearGradient-9">
            <stop stop-color="#239AF8" offset="0%"></stop>
            <stop stop-color="#0068FF" offset="100%"></stop>
        </linearGradient>
        <linearGradient x1="100%" y1="50%" x2="1.63624043%" y2="50%" id="linearGradient-10">
            <stop stop-color="#239AF8" offset="0%"></stop>
            <stop stop-color="#0068FF" offset="100%"></stop>
        </linearGradient>
        <linearGradient x1="100%" y1="50%" x2="1.63624043%" y2="50%" id="linearGradient-11">
            <stop stop-color="#239AF8" offset="0%"></stop>
            <stop stop-color="#0068FF" offset="100%"></stop>
        </linearGradient>
        <linearGradient x1="100%" y1="50%" x2="1.63624043%" y2="50%" id="linearGradient-12">
            <stop stop-color="#239AF8" offset="0%"></stop>
            <stop stop-color="#0068FF" offset="100%"></stop>
        </linearGradient>
        <linearGradient x1="100%" y1="50%" x2="1.63624043%" y2="50%" id="linearGradient-13">
            <stop stop-color="#239AF8" offset="0%"></stop>
            <stop stop-color="#0068FF" offset="100%"></stop>
        </linearGradient>
        <linearGradient x1="100%" y1="50%" x2="1.63624043%" y2="50%" id="linearGradient-14">
            <stop stop-color="#239AF8" offset="0%"></stop>
            <stop stop-color="#0068FF" offset="100%"></stop>
        </linearGradient>
        <linearGradient x1="100%" y1="50%" x2="1.63624043%" y2="50%" id="linearGradient-15">
            <stop stop-color="#239AF8" offset="0%"></stop>
            <stop stop-color="#0068FF" offset="100%"></stop>
        </linearGradient>
        <linearGradient x1="100%" y1="50%" x2="1.63624043%" y2="50%" id="linearGradient-16">
            <stop stop-color="#239AF8" offset="0%"></stop>
            <stop stop-color="#0068FF" offset="100%"></stop>
        </linearGradient>
        <linearGradient x1="100%" y1="50%" x2="1.63624043%" y2="50%" id="linearGradient-17">
            <stop stop-color="#239AF8" offset="0%"></stop>
            <stop stop-color="#0068FF" offset="100%"></stop>
        </linearGradient>
        <linearGradient x1="100%" y1="50%" x2="1.63624043%" y2="50%" id="linearGradient-18">
            <stop stop-color="#239AF8" offset="0%"></stop>
            <stop stop-color="#0068FF" offset="100%"></stop>
        </linearGradient>
        <linearGradient x1="100%" y1="50%" x2="1.63624043%" y2="50%" id="linearGradient-19">
            <stop stop-color="#239AF8" offset="0%"></stop>
            <stop stop-color="#0068FF" offset="100%"></stop>
        </linearGradient>
        <linearGradient x1="100%" y1="50%" x2="1.63624043%" y2="50%" id="linearGradient-20">
            <stop stop-color="#239AF8" offset="0%"></stop>
            <stop stop-color="#0068FF" offset="100%"></stop>
        </linearGradient>
        <linearGradient x1="100%" y1="50%" x2="1.63624043%" y2="50%" id="linearGradient-21">
            <stop stop-color="#239AF8" offset="0%"></stop>
            <stop stop-color="#0068FF" offset="100%"></stop>
        </linearGradient>
        <linearGradient x1="100%" y1="50%" x2="1.63624043%" y2="50%" id="linearGradient-22">
            <stop stop-color="#239AF8" offset="0%"></stop>
            <stop stop-color="#0068FF" offset="100%"></stop>
        </linearGradient>
        <linearGradient x1="100%" y1="50%" x2="1.63624043%" y2="50%" id="linearGradient-23">
            <stop stop-color="#239AF8" offset="0%"></stop>
            <stop stop-color="#0068FF" offset="100%"></stop>
        </linearGradient>
        <linearGradient x1="100%" y1="50%" x2="1.63624043%" y2="50%" id="linearGradient-24">
            <stop stop-color="#239AF8" offset="0%"></stop>
            <stop stop-color="#0068FF" offset="100%"></stop>
        </linearGradient>
        <circle id="path-25" cx="78" cy="78" r="78"></circle>
        <filter x="-9.0%" y="-9.0%" width="120.5%" height="120.5%" filterUnits="objectBoundingBox" id="filter-26">
            <feMorphology radius="1" operator="dilate" in="SourceAlpha" result="shadowSpreadOuter1"></feMorphology>
            <feOffset dx="2" dy="2" in="shadowSpreadOuter1" result="shadowOffsetOuter1"></feOffset>
            <feGaussianBlur stdDeviation="4" in="shadowOffsetOuter1" result="shadowBlurOuter1"></feGaussianBlur>
            <feColorMatrix values="0 0 0 0 0   0 0 0 0 0   0 0 0 0 0  0 0 0 0.0758850524 0" type="matrix" in="shadowBlurOuter1"></feColorMatrix>
        </filter>
        <linearGradient x1="22.6617373%" y1="0.809703219%" x2="73.4402305%" y2="85.4989149%" id="linearGradient-27">
            <stop stop-color="#FF5F8A" offset="0%"></stop>
            <stop stop-color="#FF005D" offset="100%"></stop>
        </linearGradient>
        <circle id="path-28" cx="78" cy="78" r="78"></circle>
        <filter x="-9.0%" y="-9.0%" width="120.5%" height="120.5%" filterUnits="objectBoundingBox" id="filter-29">
            <feMorphology radius="1" operator="dilate" in="SourceAlpha" result="shadowSpreadOuter1"></feMorphology>
            <feOffset dx="2" dy="2" in="shadowSpreadOuter1" result="shadowOffsetOuter1"></feOffset>
            <feGaussianBlur stdDeviation="4" in="shadowOffsetOuter1" result="shadowBlurOuter1"></feGaussianBlur>
            <feColorMatrix values="0 0 0 0 0   0 0 0 0 0   0 0 0 0 0  0 0 0 0.0758850524 0" type="matrix" in="shadowBlurOuter1"></feColorMatrix>
        </filter>
        <linearGradient x1="50%" y1="0%" x2="50%" y2="100%" id="linearGradient-30">
            <stop stop-color="#C7E900" offset="0%"></stop>
            <stop stop-color="#95CF00" offset="100%"></stop>
        </linearGradient>
        <circle id="path-31" cx="78" cy="78" r="78"></circle>
        <filter x="-9.0%" y="-9.0%" width="120.5%" height="120.5%" filterUnits="objectBoundingBox" id="filter-32">
            <feMorphology radius="1" operator="dilate" in="SourceAlpha" result="shadowSpreadOuter1"></feMorphology>
            <feOffset dx="2" dy="2" in="shadowSpreadOuter1" result="shadowOffsetOuter1"></feOffset>
            <feGaussianBlur stdDeviation="4" in="shadowOffsetOuter1" result="shadowBlurOuter1"></feGaussianBlur>
            <feColorMatrix values="0 0 0 0 0   0 0 0 0 0   0 0 0 0 0  0 0 0 0.0758850524 0" type="matrix" in="shadowBlurOuter1"></feColorMatrix>
        </filter>
        <linearGradient x1="50%" y1="0%" x2="50%" y2="100%" id="linearGradient-33">
            <stop stop-color="#FAD961" offset="0%"></stop>
            <stop stop-color="#F76B1C" offset="100%"></stop>
        </linearGradient>
        <linearGradient x1="50%" y1="0%" x2="50%" y2="100%" id="linearGradient-34">
            <stop stop-color="#FAD961" offset="0%"></stop>
            <stop stop-color="#F76B1C" offset="100%"></stop>
        </linearGradient>
        <linearGradient x1="50%" y1="0%" x2="50%" y2="100%" id="linearGradient-35">
            <stop stop-color="#FAD961" offset="0%"></stop>
            <stop stop-color="#F76B1C" offset="100%"></stop>
        </linearGradient>
        <circle id="path-36" cx="78" cy="78" r="78"></circle>
        <filter x="-9.0%" y="-9.0%" width="120.5%" height="120.5%" filterUnits="objectBoundingBox" id="filter-37">
            <feMorphology radius="1" operator="dilate" in="SourceAlpha" result="shadowSpreadOuter1"></feMorphology>
            <feOffset dx="2" dy="2" in="shadowSpreadOuter1" result="shadowOffsetOuter1"></feOffset>
            <feGaussianBlur stdDeviation="4" in="shadowOffsetOuter1" result="shadowBlurOuter1"></feGaussianBlur>
            <feColorMatrix values="0 0 0 0 0   0 0 0 0 0   0 0 0 0 0  0 0 0 0.0758850524 0" type="matrix" in="shadowBlurOuter1"></feColorMatrix>
        </filter>
        <linearGradient x1="0%" y1="100%" x2="100%" y2="0%" id="linearGradient-38">
            <stop stop-color="#00E6FF" offset="0%"></stop>
            <stop stop-color="#3073FF" offset="100%"></stop>
        </linearGradient>
    </defs>
    <g id="Diagram" stroke="none" stroke-width="1" fill="none" fill-rule="evenodd">
        <g id="Artboard-Copy" transform="translate(-40.000000, 0.000000)">
            <g id="cdd-diagram" transform="translate(8.000000, -46.000000)">
                <g id="Fill-923" opacity="0.135579427" transform="translate(419.500000, 430.000000) rotate(-300.000000) translate(-419.500000, -430.000000) ">
                    <use fill="black" fill-opacity="1" filter="url(#filter-2)" xlink:href="#path-1"></use>
                    <use fill="#B5B5B5" fill-rule="evenodd" xlink:href="#path-1"></use>
                </g>
                <g id="Fill-923-Copy" opacity="0.135579427" transform="translate(418.352163, 413.969369) rotate(-50.000000) translate(-418.352163, -413.969369) ">
                    <use fill="black" fill-opacity="1" filter="url(#filter-4)" xlink:href="#path-3"></use>
                    <use fill="#B5B5B5" fill-rule="evenodd" xlink:href="#path-3"></use>
                </g>
                <g id="Group-2" transform="translate(80.841033, 96.000000)" fill="#E6E6E6" fill-rule="nonzero">
                    <path d="M678,164.380415 L569.758195,129 L546.258232,240.489747 L587.932544,216.413829 C640.352341,340.6179 593.990463,487.071709 474.603145,556.043677 C374.435487,613.912139 252.7172,599.927272 168.062245,530.534777 L136,569.8153 C236.56132,652.264367 381.077518,668.822996 500.025697,600.104726 C643.682776,517.111727 698.143115,339.738505 631.919657,191.001768 L678,164.380415 Z" id="Path"></path>
                    <path d="M108.120606,514 L131.685035,402.585117 L90.335934,426.495134 C38.0625685,302.41134 84.5040949,156.058714 203.854632,87.0445562 C299.940812,31.4829554 415.926873,41.8825921 499.852738,104.049597 L530,63.24549 C430.31135,-10.5966234 292.600177,-22.9456258 178.487778,43.0395919 C34.8633,126.090098 -19.9711904,303.503335 46.1190256,452.063454 L0,478.731669 L108.120606,514 Z" id="Path"></path>
                </g>
                <g id="xcode" transform="translate(56.000000, 335.000000)">
                    <g id="Oval">
                        <use fill="black" fill-opacity="1" filter="url(#filter-6)" xlink:href="#path-5"></use>
                        <use fill="#FFFFFF" fill-rule="evenodd" xlink:href="#path-5"></use>
                    </g>
                    <g id="develop+developing+folder+xcode+icon-1320184805988529988_0" transform="translate(24.000000, 26.000000)" fill-rule="nonzero">
                        <path d="M78.7803157,43.6231884 C78.9964583,42.9412813 79.1817234,42.3523615 79.336111,41.7634417 C81.1887621,35.0683534 83.0722907,28.3732651 85.6351247,21.8951473 C86.7775929,18.9815441 88.7228765,17.3387678 91.7488733,16.9978142 C93.7559119,16.7808437 95.8864607,16.5948691 97.2450715,18.5166074 C98.1405195,19.7254428 99.1594776,20.4383457 100.610721,20.6863119 C101.290026,20.7792992 101.969332,20.9652739 102.61776,21.2132402 C103.513208,21.5541937 103.85286,21.1822444 104.09988,20.3453583 C104.871818,17.6177298 105.674634,14.921097 106.477449,12.2244642 C107.372897,9.1558821 107.372897,9.18687788 104.408656,8.13302139 C103.173555,7.69908048 102.061964,7.51310581 100.765109,8.07102983 C98.6654373,8.93891165 96.7510312,8.59795808 95.0527677,6.89319023 C93.2618717,5.09543504 91.2239555,3.70062499 88.7846315,2.83274317 C81.7754349,0.384076628 74.5809732,-0.700775639 67.2012464,0.477063965 C63.6503319,1.03498799 60.1920498,1.99585714 57.1969306,4.13456589 C56.7646453,4.44452368 56.4249926,4.81647303 56.0235849,5.18842238 C60.0994173,4.84746881 64.0208621,4.78547725 67.9423069,5.3124055 C70.5977734,5.65335907 72.9753423,6.55223666 74.7353608,8.81492853 C76.5880119,11.2016035 77.0202972,14.0222194 77.2673173,16.8738311 C77.60697,20.8722866 76.8659096,24.7157632 75.7543189,28.528244 C74.5809732,32.5576953 73.4693826,36.6491381 72.3269144,40.6785894 C72.1725268,41.2055176 72.0490168,41.6704543 72.7591997,41.856429 C74.7353608,42.4453488 76.6806445,43.0032728 78.7803157,43.6231884 Z" id="Path" fill="url(#linearGradient-7)"></path>
                        <path d="M59.7941586,104.982772 C61.7499286,105.138183 63.333171,104.236796 64.326578,102.496186 C64.9164134,101.47047 65.382073,100.320424 65.6614687,99.1703786 C68.6416897,86.8306995 71.5908667,74.4910204 74.5400437,62.120259 C75.7507585,56.991677 76.8993854,51.863095 78.1411441,46.7345131 C78.3894959,45.739879 78.1411441,45.3358089 77.1787811,45.1182327 C75.8749344,44.8074095 74.5710877,44.4344217 73.267241,44.0303516 C70.8768554,43.3154584 71.342515,43.4087053 70.6285037,45.3979735 C64.7611936,62.1513413 58.8628395,78.8736269 52.9955294,95.6269947 C52.7471777,96.3108056 52.5298699,97.0567812 52.4988259,97.7716744 C52.3125621,101.998869 55.2927831,104.951689 59.7941586,104.982772 Z" id="Path" fill="url(#linearGradient-8)"></path>
                        <path d="M0.0878239507,30.4229784 C0.210932983,31.4430484 0.334042016,32.3085624 0.457151048,33.1431652 C1.34969153,39.0781182 2.27300928,45.0130712 3.13477251,50.9480242 C4.02731299,56.9138884 4.88907622,62.9106638 5.75083945,68.876528 C6.64337993,74.9042147 7.53592042,80.9009901 8.45923816,86.9286767 C9.01322881,90.730756 9.59799671,94.5328353 10.1519874,98.3658257 C10.2750964,99.1695173 10.5520917,99.5404519 11.5061867,99.3858958 C17.1076477,98.4585594 22.7091087,97.5621342 28.3105697,96.6966202 C36.3126568,95.4292605 44.2839666,94.2237231 52.2860537,92.9563634 C52.5938263,92.8945409 52.8400444,92.5236064 53.1170397,92.2763167 C52.7784899,92.0908494 52.3783855,91.750826 52.0706129,91.7817373 C47.7002423,92.3999615 43.3606489,93.0800082 38.9902782,93.7600549 C30.1572051,95.1510595 21.3241321,96.5111529 12.5218362,97.9330688 C11.5985185,98.0876248 11.2907459,97.8712463 11.1676369,96.9748211 C10.6444235,93.1109194 10.0904328,89.277929 9.50566494,85.4449385 C8.24379735,76.9134435 6.92037525,68.3819486 5.65850767,59.8813649 C4.27353106,50.6080008 2.9193317,41.3037256 1.50357782,31.9994503 C1.34969153,30.9793802 1.68824137,30.515712 2.70389089,30.3920672 C4.48897186,30.1447775 6.27405283,29.8356653 8.02835655,29.5574644 C15.2917895,28.3828383 22.5552224,27.177301 29.8186553,26.0026749 C36.1587705,24.9516936 42.5296629,23.9007123 48.8697781,22.8497311 C54.7790116,21.8914835 60.6574679,20.9332358 66.5667015,19.944077 C69.3366547,19.4804088 72.0758307,19.0476518 74.8457839,18.5221612 C75.1843338,18.4603388 75.4305518,17.9657593 75.7075472,17.6875584 C75.3382201,17.5330024 74.968893,17.3784463 74.5995659,17.2548014 C74.5072341,17.2238902 74.3841251,17.2857126 74.261016,17.3166239 C70.8139631,17.9039369 67.3669102,18.49125 63.9506346,19.0476518 C56.6872016,20.2531891 49.4237687,21.4278153 42.1603358,22.6333526 C35.389339,23.7461563 28.6183422,24.8898712 21.8473454,26.0026749 C14.8916851,27.1463898 7.93602477,28.3210159 0.980364436,29.4338196 C0.210932983,29.5574644 -0.189171372,29.7738429 0.0878239507,30.4229784 Z" id="Path" fill="url(#linearGradient-9)"></path>
                        <path d="M88.1053575,20.3207407 C87.919886,20.3207407 87.7344145,20.3207407 87.548943,20.2898551 C87.4562073,21.0619968 87.178,21.8650242 87.2707358,22.6371659 C87.6107669,25.138905 88.1053575,27.6406441 88.5072124,30.1423833 C89.6200414,36.8445733 90.7328704,43.577649 91.8456994,50.279839 C92.9585284,56.982029 94.0713574,63.7151047 95.2150983,70.4172947 C95.9260724,74.7104026 96.6679584,79.0035105 97.3789325,83.2657327 C97.5025801,83.9143317 97.3789325,84.3776167 96.5752226,84.5011594 C90.6401347,85.4277295 84.7050467,86.3542995 78.7699588,87.2808696 C75.9569744,87.7132689 73.14399,88.1765539 70.3310056,88.6707246 C70.0837102,88.7016103 69.8673268,89.103124 69.6509434,89.3502093 C69.9600626,89.5046377 70.2382698,89.7826087 70.5164771,89.7826087 C71.4129226,89.7208374 72.2784563,89.566409 73.14399,89.4428663 C79.7282282,88.3927536 86.3124664,87.3426409 92.8657927,86.2925282 C94.8441553,85.9836715 96.7916061,85.6439291 98.9245283,85.3041868 C95.338746,63.591562 91.7220518,41.9715942 88.1053575,20.3207407 Z" id="Path" fill="url(#linearGradient-10)"></path>
                        <path d="M64.415539,59.3478261 C65.1217952,58.6337999 64.9989681,58.1060414 64.5076594,57.5161936 C62.5731315,55.1878473 60.7000172,52.8595009 58.7654893,50.5311546 C53.3918007,43.9807402 47.9874053,37.3992812 42.6137167,30.8178222 C42.1838216,30.2900637 41.8153401,29.5760375 41.6925129,28.8930559 C41.4775654,27.5581374 42.3680623,26.3473973 43.6577476,25.8196388 C45.0395532,25.2918803 46.2371181,25.6644157 47.4039762,27.0614235 C52.6855444,33.4566148 57.9978195,39.8518061 63.2793877,46.2469973 C64.5383662,47.7681836 65.8280514,49.2893699 67.1484435,50.8726454 C67.8239929,50.1586192 67.7318725,49.6308607 67.2405639,49.0410129 C65.1217952,46.4953543 63.0030266,43.918651 60.8842579,41.3729923 C56.6160138,36.2195858 52.3784765,31.0661792 48.0795256,25.9748619 C46.3599453,23.9569617 43.749868,23.8327832 41.8460469,25.5091926 C39.9729325,27.1545573 39.8808122,29.4829037 41.6310993,31.5939377 C48.2637664,39.696583 54.8964335,47.7681836 61.5291006,55.8708289 C62.4810111,57.0505244 63.4329217,58.1681306 64.415539,59.3478261 Z" id="Path" fill="url(#linearGradient-11)"></path>
                        <path d="M43.4056604,46.0607056 C43.1894054,45.9058535 42.9422568,45.6890605 42.6642146,45.5651788 C40.532558,44.7599479 38.4009015,44.0166578 36.2692449,43.2114268 C35.5895863,42.9636635 35.2806506,43.2114268 35.033502,43.7998648 C31.1409117,53.4006954 27.2483215,62.9705555 23.3557312,72.571386 C23.0467955,73.2837057 23.2630505,73.6243804 23.9118155,73.8721437 C25.9198978,74.6773747 27.9279801,75.4516352 29.9051688,76.3497774 C30.9864439,76.8453042 31.4189539,76.5975408 31.8205703,75.5135761 C35.5277992,66.0056568 39.2968151,56.5287079 43.0349375,47.051759 C43.1276182,46.8349661 43.2202989,46.5252619 43.4056604,46.0607056 Z" id="Path" fill="url(#linearGradient-12)"></path>
                        <path d="M63.5943396,59.5461403 C62.0541235,57.5810339 60.6371246,55.9590413 59.4665604,54.2122801 C58.4192134,52.5902875 57.2486491,51.748099 55.3079768,52.5590953 C54.8459119,52.7462483 54.3222385,52.7462483 53.8293693,52.8086326 C49.70159,53.5260524 45.6046151,54.2434722 41.4768359,54.960892 C40.8299451,55.0856607 40.2754673,55.2416215 39.9982284,56.0214257 C39.197316,58.3296459 38.3347949,60.606674 37.5030782,62.9148942 C37.4106652,63.1644315 37.4106652,63.4763532 37.3490566,63.9130435 C46.1282886,62.4782039 54.6918903,61.0433643 63.5943396,59.5461403 Z" id="Path" fill="url(#linearGradient-13)"></path>
                        <path d="M28.7688679,56.8115942 C23.7783607,57.6459621 19.0312929,58.4185249 14.1320755,59.2219903 C14.4668046,61.5396788 14.8319637,63.7337573 15.0754031,65.9587382 C15.1971227,66.9167162 15.5927117,67.0403262 16.4447495,66.9167162 C18.9400031,66.5149835 21.4656867,66.1750558 23.9913702,65.8660307 C24.7521182,65.7733232 25.238997,65.464298 25.5432962,64.7535402 C26.4561939,62.5285592 27.4299514,60.3035782 28.3732789,58.0785973 C28.5254285,57.7077671 28.5862884,57.398742 28.7688679,56.8115942 Z" id="Path" fill="url(#linearGradient-14)"></path>
                        <path d="M83.2768417,75.7933816 C80.3194409,73.9332366 77.3922176,72.104094 74.1933962,70.1199394 C74.3141065,70.7089853 74.2537513,71.3910385 74.5555269,71.732065 C75.1289006,72.3831158 75.8229845,72.9411593 76.5774234,73.3441907 C77.6034605,73.9332366 78.6898526,74.336268 79.7460672,74.8633091 C81.2851228,75.6383695 82.4016925,76.7544565 82.4016925,78.6766063 C82.4016925,78.9866304 82.5525803,79.2966546 82.6732905,79.6376812 C82.8543559,79.5446739 82.914711,79.5136715 82.9750661,79.4826691 C83.0655988,79.3896618 83.1259539,79.2966546 83.186309,79.2036473 C84.9969626,76.4444323 85.1176729,73.4061955 84.3330563,70.3059539 C83.4579071,66.8336833 81.888674,63.8264489 78.59932,62.0903136 C77.6939932,61.6252774 77.1206195,62.0283088 76.4567132,62.493345 C75.7626293,62.9893837 75.3703211,63.5784296 75.5513864,64.6325117 C76.0342274,64.3224876 76.4567132,64.1054707 76.7584888,63.7954465 C77.5129278,62.9893837 78.2070117,63.1753982 79.0519833,63.7334417 C82.3715149,66.1206277 84.4537665,72.1350965 83.2768417,75.7933816 Z" id="Path" fill="url(#linearGradient-15)"></path>
                        <path d="M21.1981132,89.1207665 C21.3210571,89.1826048 21.444001,89.2444432 21.5669448,89.2753623 C24.6098059,85.4413856 27.6834029,81.607409 30.7877358,77.6806748 C30.3266963,77.4333215 30.0500726,77.2478065 29.7427129,77.1241298 C27.7756108,76.3202315 25.8085087,75.5781715 23.8721426,74.743354 C22.9500635,74.3414048 22.6734398,74.6196773 22.6119678,75.5781715 C22.3660801,78.1753815 22.0587204,80.7725915 21.7820966,83.4007206 C21.5669448,85.317709 21.382529,87.2346973 21.1981132,89.1207665 Z" id="Path" fill="url(#linearGradient-16)"></path>
                        <path d="M41.1100147,35.5072464 C39.3036818,35.693391 38.1202222,36.4379694 37.4350614,38.0201986 C36.9679063,39.1680904 36.5318949,40.3159821 36.0024525,41.4328498 C35.6910158,42.0843559 35.7844468,42.4876692 36.5318949,42.735862 C38.618521,43.4494164 40.705147,44.2250189 42.7606294,45.0316455 C43.5080775,45.3108625 43.8195142,45.0626696 44.0998073,44.4111635 C44.5669623,43.2322477 45.0964048,42.0533318 45.5947035,40.8744159 C46.2487206,39.2921868 45.9684276,37.9581504 44.5358187,37.0274274 C43.5080775,36.3759212 42.2623306,36.003632 41.1100147,35.5072464 Z" id="Path" fill="url(#linearGradient-17)"></path>
                        <path d="M77.2649245,56.8115942 C79.8198979,56.4775975 82.3444549,56.1436007 84.8385955,55.7488773 C85.05151,55.718514 85.3252571,55.1719739 85.2948408,54.9290672 C84.9906773,52.9250868 84.6256811,50.890743 84.1998522,48.9171259 C84.1390195,48.6134925 83.6219416,48.1884058 83.3177781,48.1884058 C82.0402914,48.2794958 80.7628047,48.4616759 79.485318,48.6742192 C78.8465747,48.7653092 78.3903294,49.0689426 78.7553256,49.9798428 C79.9111469,49.8280261 81.0973845,49.6458461 82.2836222,49.5547561 C82.5573693,49.5243927 83.0744473,49.7672994 83.1048636,49.9494795 C83.4394435,51.4676465 83.6827743,53.0465401 83.9869377,54.6557971 C82.009875,54.9290672 80.1544777,55.1719739 78.3294967,55.4148806 C77.660337,55.5059706 77.0520101,55.6577873 77.2649245,56.8115942 Z" id="Path" fill="url(#linearGradient-18)"></path>
                        <path d="M78.7494382,43.6231884 C76.6806445,43.0027599 74.7044833,42.4443742 72.7591997,41.8859885 C72.0490168,41.6688385 72.1725268,41.2345385 72.3269144,40.7071743 C73.4693826,36.6433673 74.5809732,32.5795604 75.7543189,28.5467749 C76.8659096,24.7311394 77.60697,20.853461 77.2673173,16.8827184 C77.0202972,14.0287471 76.6188894,11.2368186 74.7353608,8.81714734 C72.9753423,6.55258317 70.5977734,5.65296179 67.9423069,5.31172609 C64.0208621,4.78436183 60.1302948,4.84640468 56.0235849,5.18764038 C56.4249926,4.84640468 56.7646453,4.44312613 57.1969306,4.13291186 C60.1920498,1.9924334 63.6503319,1.03076917 67.2012464,0.47238348 C74.6118508,-0.706430745 81.7754349,0.410340626 88.7846315,2.83001193 C91.2239555,3.66759046 93.2618717,5.0945761 95.0527677,6.89381886 C96.7510312,8.59999735 98.6654373,8.94123304 100.765109,8.07263309 C102.061964,7.5142474 103.173555,7.70037597 104.408656,8.13467594 C107.372897,9.18940446 107.372897,9.15838303 106.477449,12.2295043 C105.674634,14.9283685 104.871818,17.6272326 104.09988,20.3571182 C103.85286,21.1946967 103.513208,21.5359324 102.61776,21.2257181 C101.969332,20.9775467 101.290026,20.7914182 100.610721,20.6983539 C99.1594776,20.4812039 98.109642,19.7677111 97.2450715,18.526854 C95.8555832,16.6345469 93.7559119,16.7896541 91.7488733,17.0068041 C88.7228765,17.3480398 86.7775929,18.9921754 85.6351247,21.9081895 C83.0722907,28.3916678 81.1887621,35.092296 79.336111,41.7929242 C79.1508459,42.3513099 78.9655808,42.9096956 78.7494382,43.6231884 Z" id="Path" fill="url(#linearGradient-7)"></path>
                        <path d="M59.7836324,104.475642 C55.2872579,104.444795 52.3413574,101.545085 52.4964048,97.3189135 C52.5274143,96.6094102 52.7444806,95.869059 52.9925564,95.1904036 C58.853348,78.563348 64.7451491,61.9671404 70.6369501,45.3709328 C71.3191587,43.3966627 70.885026,43.3349668 73.2727559,44.0136221 C74.575154,44.3837978 75.8775521,44.7848214 77.1799502,45.0933011 C78.1412441,45.3092369 78.3893199,45.7102605 78.1412441,46.6973955 C76.9008649,51.7873105 75.7535142,56.8772254 74.5441445,61.9671404 C71.598244,74.2137843 68.6523435,86.4912762 65.6754334,98.7379201 C65.3963481,99.879295 64.9312059,101.02067 64.3420258,102.038653 C63.318713,103.735291 61.7372296,104.629882 59.7836324,104.475642 Z" id="Path" fill="url(#linearGradient-19)"></path>
                        <path d="M0.0874850789,30.4229784 C-0.189398794,29.7738429 0.210544578,29.5574644 1.01043132,29.4338196 C7.96329301,28.3210159 14.9161547,27.1463898 21.8690164,26.0026749 C28.6372888,24.8898712 35.4055613,23.7461563 42.1738337,22.6333526 C49.4343441,21.4278153 56.6948546,20.2531891 63.955365,19.0476518 C67.401031,18.49125 70.846697,17.9039369 74.2615981,17.3166239 C74.3846576,17.2857126 74.5077171,17.2238902 74.6000117,17.2548014 C74.9691902,17.3784463 75.3383687,17.5330024 75.7075472,17.6875584 C75.4306633,17.9657593 75.1845443,18.4603388 74.8461307,18.5221612 C72.1080568,19.0476518 69.3392181,19.4804088 66.5703794,19.944077 C60.6635234,20.9023246 54.7874324,21.8605722 48.8805764,22.8497311 C42.5430122,23.9007123 36.1746831,24.9516936 29.8371189,26.0026749 C22.5766085,27.2082122 15.3160981,28.3828383 8.05558763,29.5574644 C6.2712249,29.8356653 4.51762704,30.1756887 2.73326431,30.3920672 C1.71802344,30.515712 1.37960982,30.9793802 1.53343419,31.9994503 C2.94861843,41.2728143 4.30227292,50.5770896 5.68669228,59.8813649 C6.94805214,68.4128598 8.27094176,76.9443548 9.53230162,85.4449385 C10.1168342,89.277929 10.670602,93.1418307 11.1936049,96.9748211 C11.3166644,97.8712463 11.5935482,98.0876248 12.5472593,97.9330688 C21.3460135,96.5111529 30.1755326,95.1510595 39.0050516,93.7600549 C43.3736638,93.0800082 47.7115112,92.3999615 52.0801234,91.7817373 C52.3877721,91.750826 52.7877155,92.0908494 53.1261291,92.2763167 C52.8492452,92.5236064 52.6031262,92.8945409 52.2954775,92.9563634 C44.3273749,94.2237231 36.3285075,95.4601717 28.3296401,96.6966202 C22.7304329,97.5621342 17.1312257,98.4585594 11.5320185,99.3858958 C10.5783074,99.5404519 10.3014235,99.1695173 10.178364,98.3658257 C9.62459625,94.5637465 9.0708285,90.7616672 8.48629588,86.9286767 C7.59411451,80.9009901 6.67116827,74.9042147 5.7789869,68.876528 C4.88680554,62.9106638 4.02538904,56.9138884 3.16397255,50.9480242 C2.27179118,45.0130712 1.37960982,39.0781182 0.48742845,33.1431652 C0.333604077,32.3085624 0.210544578,31.4739597 0.0874850789,30.4229784 Z" id="Path" fill="url(#linearGradient-9)"></path>
                        <path d="M88.0435337,20.2898551 C91.6602279,41.8995485 95.2769222,63.509242 98.9245283,85.3041614 C96.7916061,85.6437423 94.8441553,85.9833232 92.8657927,86.2920331 C86.2815545,87.3416467 79.7282282,88.3912604 73.14399,89.4408741 C72.2784563,89.5643581 71.3820107,89.718713 70.5164771,89.780455 C70.2382698,89.811326 69.9291506,89.5026161 69.6509434,89.3482611 C69.8673268,89.1012932 70.0837102,88.7308413 70.3310056,88.6690993 C73.14399,88.1751635 75.9569744,87.7120986 78.7699588,87.2799048 C84.7050467,86.353775 90.6401347,85.3967743 96.5752226,84.5015156 C97.3789325,84.3780316 97.4716682,83.9149668 97.3789325,83.266676 C96.6679584,78.9756083 95.9260724,74.7154116 95.2150983,70.4243439 C94.1022693,63.7253389 92.9894403,56.9954629 91.8456994,50.296458 C90.7328704,43.597453 89.6200414,36.867577 88.5072124,30.1685721 C88.0744456,27.6680218 87.6107669,25.1674716 87.2707358,22.6669214 C87.178,21.9260176 87.4562073,21.1233718 87.548943,20.3207261 C87.7035026,20.2898551 87.8580622,20.2898551 88.0435337,20.2898551 Z" id="Path" fill="url(#linearGradient-10)"></path>
                        <path d="M64.4053223,59.3478261 C63.4231226,58.1689099 62.4716166,57.052042 61.5201106,55.8731259 C54.8902626,47.7758334 48.2604145,39.7095651 41.6305664,31.6122727 C39.8810232,29.5026333 39.9731044,27.2068492 41.8454226,25.5315473 C43.7791283,23.8252213 46.3880963,23.9493178 48.0762521,25.9969089 C52.3733758,31.0848628 56.6091121,36.265889 60.8755421,41.384867 C62.9934102,43.9288439 65.0805846,46.503845 67.2291465,49.0478219 C67.7202463,49.63728 67.8430213,50.1646898 67.1370652,50.8782443 C65.8172344,49.2960148 64.5280972,47.7758334 63.2696539,46.2556521 C57.9903304,39.8646857 52.6803132,33.4737192 47.4009898,27.0827528 C46.2346276,25.6866679 45.0375717,25.2833544 43.6563534,25.8417884 C42.3365225,26.3691983 41.4770977,27.5791385 41.6919539,28.9131752 C41.7840352,29.5957056 42.15236,30.3092601 42.6127662,30.8366699 C47.9841708,37.413781 53.3555755,43.959868 58.7576739,50.5369791 C60.6606859,52.8637873 62.5636978,55.1905955 64.4974035,57.5174037 C64.9885034,58.1068617 65.1419721,58.6342716 64.4053223,59.3478261 Z" id="Path" fill="url(#linearGradient-11)"></path>
                        <path d="M43.4056604,46.0154279 C43.2512389,46.4797312 43.158586,46.7583132 43.0350488,47.0678487 C39.2980488,56.5396361 35.5301645,66.0114236 31.8240488,75.5141646 C31.3916686,76.597539 30.9901728,76.8451674 29.9092224,76.3499105 C27.9635116,75.4522575 25.925148,74.6784186 23.9176686,73.8736262 C23.2382141,73.5950443 23.0529083,73.2855087 23.3617513,72.573577 C27.2840571,63.0089289 31.1754786,53.4133272 35.0360157,43.8177256 C35.2830901,43.1986545 35.5919331,42.9510261 36.2713876,43.229608 C38.4024042,44.0344004 40.5334207,44.7772857 42.6644372,45.5820781 C42.9423959,45.6439852 43.158586,45.8606601 43.4056604,46.0154279 Z M36.1169662,44.4677502 C35.5919331,45.798753 35.0977843,46.974988 34.6345199,48.1512231 C31.4534372,55.9824722 28.2723546,63.8137213 25.0603876,71.6449704 C24.6897761,72.573577 24.8750819,72.9450196 25.7398422,73.2545552 C26.9752141,73.6879049 28.210586,74.1831618 29.3841893,74.7403258 C30.3107182,75.2046291 30.6813298,75.0189077 31.0519414,74.0593476 C33.4609166,67.8686368 35.9007761,61.7088796 38.3715199,55.5181689 C39.5451232,52.5775813 40.6878422,49.6369937 41.8923298,46.5725918 C39.9466191,45.8916137 38.1244455,45.2106355 36.1169662,44.4677502 Z" id="Shape" fill="url(#linearGradient-12)"></path>
                        <path d="M63.5943396,59.5393738 C54.6814292,61.0389177 46.1077645,62.4447401 37.3490566,63.9130435 C37.4107376,63.4756765 37.4107376,63.194512 37.5032592,62.9133476 C38.3359533,60.6015507 39.2303284,58.3209944 40.0013414,56.0091976 C40.2789061,55.2281852 40.8340354,55.0407422 41.4816864,54.9470207 C45.6143161,54.2284893 49.7161054,53.5099578 53.8487351,52.7914264 C54.3421834,52.6977049 54.8664723,52.7289454 55.3290801,52.5415024 C57.2720329,51.76049 58.4131322,52.6039834 59.4925504,54.1972488 C60.6336496,55.9779571 62.0523136,57.5712225 63.5943396,59.5393738 Z M39.0452852,62.3822591 C46.5703723,61.1326392 53.8795756,59.8830193 61.3429816,58.6333994 C60.0168392,56.9464125 58.87574,55.4468687 57.6729597,53.9785653 C57.457076,53.7286413 56.9636277,53.6036793 56.5935414,53.6349198 C55.5141232,53.7598818 54.4655455,53.9473248 53.4169678,54.1347678 C49.7469459,54.7595777 46.0769239,55.3843877 42.4377425,56.0716786 C41.9751347,56.1654001 41.2966432,56.4465646 41.1424406,56.8214505 C40.3714276,58.5709184 39.7546172,60.3828673 39.0452852,62.3822591 Z" id="Shape" fill="url(#linearGradient-13)"></path>
                        <path d="M28.7688679,56.8115942 C28.5862884,57.4023409 28.4949986,57.7132602 28.3732789,58.0241796 C27.4299514,60.2627987 26.4561939,62.5014178 25.5432962,64.7400369 C25.238997,65.4862433 24.7825482,65.7660707 23.9913702,65.8593465 C21.4656867,66.1702658 18.9704331,66.5122771 16.4447495,66.9164722 C15.5927117,67.0408399 15.1971227,66.9164722 15.0754031,65.9526223 C14.8015338,63.7450951 14.4668046,61.5375679 14.1320755,59.1745811 C19.0312929,58.4283747 23.7783607,57.6510764 28.7688679,56.8115942 Z M26.8822128,58.3972827 C23.2306221,58.9880295 19.8529008,59.5165923 16.5360393,60.107339 C16.2013102,60.1695229 15.6535716,60.7291777 15.6535716,61.0090051 C15.7448613,62.3459581 15.9883007,63.6829112 16.26217,65.0198643 C16.3230299,65.2685998 16.8403385,65.610611 17.0837779,65.5795191 C19.1530126,65.3307836 21.2222473,65.0509562 23.2610521,64.708945 C23.656641,64.6467611 24.2348096,64.4291176 24.3869592,64.1181983 C25.2694269,62.3148662 25.999745,60.4493503 26.8822128,58.3972827 Z" id="Shape" fill="url(#linearGradient-14)"></path>
                        <path d="M83.2768417,75.7327855 C84.4537665,72.0758196 82.3715149,66.0635199 79.0519833,63.7391772 C78.2371892,63.1503438 77.5431054,62.9953876 76.7584888,63.8011597 C76.4567132,64.1110721 76.0342274,64.2970195 75.5513864,64.6379231 C75.3703211,63.5532298 75.7626293,62.9953876 76.4567132,62.4995278 C77.1206195,62.003668 77.6939932,61.6317732 78.59932,62.0966417 C81.888674,63.8321509 83.4579071,66.8383008 84.3330563,70.3093192 C85.1176729,73.4084428 84.9969626,76.4455839 83.186309,79.2038039 C83.1259539,79.2967776 83.0655988,79.3897513 82.9750661,79.482725 C82.914711,79.5447075 82.8543559,79.5447075 82.6732905,79.6376812 C82.5827578,79.2967776 82.4016925,78.9868652 82.4016925,78.6769529 C82.4016925,76.7554962 81.2851228,75.6398118 79.7460672,74.8650309 C78.6898526,74.3381798 77.5732829,73.9352938 76.5774234,73.3464603 C75.8229845,72.912583 75.098723,72.385732 74.5555269,71.734916 C74.2537513,71.3940125 74.3141065,70.7122053 74.1933962,70.1233718 C77.3922176,72.0448284 80.3194409,73.8733113 83.2768417,75.7327855 Z" id="Path" fill="url(#linearGradient-15)"></path>
                        <path d="M21.1981132,89.1207665 C21.383122,87.2037781 21.537296,85.317709 21.7531396,83.4007206 C22.0306528,80.8035106 22.3698356,78.2063006 22.5856792,75.5781715 C22.6781836,74.6196773 22.924862,74.3414048 23.849906,74.743354 C25.7924983,75.5781715 27.7659255,76.3202315 29.7393527,77.1241298 C30.0477007,77.2478065 30.3252139,77.4333215 30.7877358,77.6806748 C27.6425863,81.607409 24.5899412,85.4413856 21.537296,89.2753623 C21.4447916,89.2444432 21.3214524,89.1826048 21.1981132,89.1207665 Z M22.770688,85.5341431 C22.8631924,85.5650623 22.9556968,85.5650623 23.0173664,85.5959815 C24.9599587,83.1224481 26.8717163,80.679834 28.8759783,78.1135431 C27.0567251,77.4024023 25.4841503,76.784019 23.7882364,76.1037973 C23.4490536,79.381229 23.1098708,82.4731456 22.770688,85.5341431 Z" id="Shape" fill="url(#linearGradient-16)"></path>
                        <path d="M41.1034068,35.5072464 C42.2573027,36.0020392 43.5047577,36.3731339 44.533908,37.0534741 C45.9684813,37.9812107 46.2491587,39.3109665 45.5942448,40.8881188 C45.0952628,42.0632518 44.5650944,43.2074603 44.0972988,44.413518 C43.8478078,45.0629336 43.5047577,45.31033 42.7562847,45.032009 C40.6979839,44.2279706 38.6084968,43.4857813 36.5190096,42.743592 C35.7705366,42.4961956 35.7081639,42.0941764 35.9888413,41.4447608 C36.4878233,40.3314768 36.9244325,39.1563438 37.4234145,38.0430598 C38.1095148,36.434983 39.2634107,35.6927937 41.1034068,35.5072464 Z M37.298669,41.6612326 C39.1074788,42.3415728 40.8227294,42.9909885 42.5067937,43.5476304 C42.6939119,43.6094795 43.1305212,43.3311586 43.2552667,43.0837621 C43.6918759,42.1869501 44.034926,41.2592134 44.4715353,40.3314768 C44.8769582,39.4655893 44.6898399,38.6306263 43.9413669,38.1976826 C43.0681484,37.6719652 42.1013708,37.3008705 41.1034068,37.0534741 C40.0118837,36.8060776 39.1074788,37.3008705 38.6708695,38.3523054 C38.2030739,39.4037402 37.797651,40.4242505 37.298669,41.6612326 Z" id="Shape" fill="url(#linearGradient-17)"></path>
                        <path d="M77.2744744,56.8115942 C77.0314265,55.6579804 77.6694271,55.5061891 78.3378087,55.4151143 C80.1606676,55.1722483 81.9835265,54.9293822 83.9886713,54.6561579 C83.6848614,53.0471702 83.4418136,51.498899 83.1076228,49.9506279 C83.0772418,49.7684783 82.5607651,49.5256123 82.2873363,49.5559705 C81.102478,49.6470453 79.9176198,49.8291949 78.7631425,49.9809861 C78.4289517,49.0398801 78.8846664,48.7666558 79.492286,48.675581 C80.7682872,48.4934315 82.0442885,48.2809237 83.3202897,48.1898489 C83.6240995,48.1594907 84.1405762,48.6148645 84.2013381,48.9184471 C84.6266719,50.9220921 84.9912436,52.9257372 85.2950535,54.9293822 C85.3254344,55.1722483 85.0216246,55.7186969 84.8393387,55.7490552 C82.3480983,56.1437125 79.8568578,56.4472951 77.2744744,56.8115942 Z" id="Path" fill="url(#linearGradient-18)"></path>
                        <path d="M36.0660849,44.6376812 C38.0909651,45.3785908 39.9289333,46.0268867 41.8915094,46.736925 C40.6765813,49.7931772 39.4928052,52.7259444 38.3401811,55.6587116 C35.8791729,61.8329583 33.3870127,67.9763338 30.9571564,74.1505805 C30.5833324,75.1075888 30.1783564,75.2928162 29.2749483,74.8297477 C28.0911722,74.2431942 26.8450921,73.7801257 25.5990119,73.3479285 C24.7267559,73.0392161 24.5398438,72.6687613 24.9136679,71.7426243 C28.1534762,63.9322022 31.3621325,56.1217801 34.5707888,48.311358 C35.0380688,47.1382511 35.5053489,45.9651442 36.0660849,44.6376812 Z" id="Path" fill="url(#linearGradient-20)"></path>
                        <path d="M39.3679245,62.3913043 C40.1061255,60.4142954 40.6905347,58.6535218 41.4287357,56.9236389 C41.5825276,56.5529498 42.2592118,56.2749329 42.7205875,56.1822606 C46.3808342,55.5026638 50.0410809,54.8848485 53.6705692,54.2670332 C54.7163539,54.0816886 55.7928971,53.8654532 56.8386819,53.7727809 C57.177024,53.7418902 57.6999164,53.8654532 57.915225,54.1125793 C59.1148017,55.5644453 60.2836199,57.047202 61.5754717,58.7153033 C54.1627032,59.9200431 46.8729682,61.124783 39.3679245,62.3913043 Z" id="Path" fill="url(#linearGradient-21)"></path>
                        <path d="M27.254717,58.3333333 C26.3821571,60.3705769 25.6600386,62.2226165 24.7874788,63.9820542 C24.6370374,64.2907274 24.0653603,64.5067987 23.6742128,64.5685334 C21.6582987,64.908074 19.6122963,65.1858799 17.5662939,65.4328185 C17.2954994,65.4636859 16.7839988,65.1241453 16.7539106,64.8772066 C16.4831161,63.5807789 16.24241,62.2534839 16.1521452,60.8953215 C16.1220569,60.6175155 16.6636458,60.0619036 17.024705,60.000169 C20.3043265,59.4445571 23.6441245,58.9198125 27.254717,58.3333333 Z" id="Path" fill="url(#linearGradient-22)"></path>
                        <path d="M22.7122642,85.6618515 C23.0470513,82.5225417 23.3818384,79.4146249 23.7470608,76.0869565 C25.3905613,76.7462116 26.9731914,77.4054666 28.7688679,78.1275079 C26.7905803,80.7331351 24.873163,83.2131898 22.9861809,85.7246377 C22.8948753,85.7246377 22.8035697,85.6932446 22.7122642,85.6618515 Z" id="Path" fill="url(#linearGradient-23)"></path>
                        <path d="M37.3490566,41.6892537 C37.8266698,40.4467531 38.2147305,39.4216901 38.6624929,38.3966271 C39.1102553,37.3405016 39.9460784,36.8435014 40.9908572,37.0920015 C41.9460836,37.3094391 42.8714592,37.7132518 43.7072823,38.2413146 C44.4237021,38.7072523 44.602807,39.5148777 44.2147463,40.3846281 C43.8266856,41.285441 43.4684757,42.2483789 43.0505641,43.1491919 C42.9311608,43.3666295 42.5132493,43.6772546 42.3341443,43.6151296 C40.692349,43.0249418 39.0804044,42.372629 37.3490566,41.6892537 Z" id="Path" fill="url(#linearGradient-24)"></path>
                    </g>
                    <text id="iOS-swift" font-family="AvenirNext-DemiBold, Avenir Next" font-size="22" font-weight="500" line-spacing="20" fill="#222222">
                        <tspan x="59" y="188">iOS</tspan>
                        <tspan x="63.947" y="215.347778" font-family="AvenirNext-Medium, Avenir Next" font-size="16" font-weight="400">swift</tspan>
                    </text>
                </g>
                <g id="rust" transform="translate(342.000000, 65.000000)">
                    <g id="Oval">
                        <use fill="black" fill-opacity="1" filter="url(#filter-26)" xlink:href="#path-25"></use>
                        <use fill="#FFFFFF" fill-rule="evenodd" xlink:href="#path-25"></use>
                    </g>
                    <g id="Rust_programming_language_black_logo" transform="translate(16.000000, 15.500000)" fill="url(#linearGradient-27)" fill-rule="nonzero">
                        <path d="M122.15974,60.003353 L116.995959,56.8328869 C116.952477,56.3340048 116.903119,55.8362882 116.84906,55.3409029 L121.286574,51.2356157 C121.737847,50.8183264 121.939979,50.2005518 121.81776,49.6025925 C121.699066,49.0023021 121.274822,48.5080824 120.697804,48.2947753 L115.025166,46.1908447 C114.882968,45.7036187 114.733719,45.2198895 114.580945,44.7384915 L118.119439,39.8639 C118.480222,39.3685147 118.554259,38.723931 118.319222,38.1586089 C118.084184,37.5956181 117.570626,37.1923162 116.963053,37.0932391 L110.98134,36.1281119 C110.748653,35.6781855 110.506564,35.2352528 110.262125,34.7958168 L112.775854,29.3232661 C113.033221,28.7661033 112.980337,28.1180228 112.637182,27.612147 C112.295202,27.1039399 111.715834,26.8067087 111.097684,26.830021 L105.026657,27.0398312 C104.712881,26.6505166 104.39323,26.2646989 104.067703,25.8858748 L105.462652,20.0205127 C105.603675,19.4248847 105.426221,18.801282 104.989051,18.3688398 C104.555406,17.9375631 103.925505,17.7592244 103.324983,17.8990979 L97.4126063,19.2815144 C97.0294946,18.9598053 96.640507,18.6415931 96.2468186,18.3303745 L96.4595279,12.3088203 C96.4830317,11.699205 96.1833584,11.1198956 95.670976,10.7818679 C95.1574183,10.4415091 94.5075387,10.3902221 93.9469723,10.6431601 L88.4306343,13.1375708 C87.9852376,12.8951234 87.5386658,12.6550072 87.0873931,12.4230504 L86.1119861,6.48891707 C86.0132702,5.88746102 85.6066548,5.37692274 85.0378632,5.14380023 C84.4702468,4.90951212 83.819192,4.98527693 83.3197366,5.34195436 L78.40157,8.85161362 C77.9173921,8.69891839 77.4308637,8.55205121 76.9396347,8.41217771 L74.8184182,2.78460052 C74.6033586,2.21111916 74.1050784,1.79033305 73.499856,1.67144057 C72.8958088,1.55371371 72.2741337,1.75303345 71.8545912,2.19829743 L67.7155749,6.6031471 C67.2161195,6.54836331 66.7131386,6.49824197 66.2113328,6.45744553 L63.0148182,1.33457856 C62.6916412,0.81588099 62.1193241,0.5 61.503525,0.5 C60.8877259,0.5 60.3154087,0.81588099 59.9934069,1.33457856 L56.7968924,6.45744553 C56.2939114,6.49824197 55.7909304,6.54836331 55.2914751,6.6031471 L51.1512836,2.19829743 C50.7317411,1.75303345 50.1088908,1.55371371 49.5060188,1.67144057 C48.9007964,1.79149866 48.4025162,2.21111916 48.1874565,2.78460052 L46.0662401,8.41217771 C45.575011,8.55205121 45.0884827,8.700084 44.6031296,8.85161362 L39.6861381,5.34195436 C39.1866827,4.98411132 38.5356279,4.90834651 37.9668364,5.14380023 C37.39922,5.37692274 36.9914294,5.88746102 36.8927135,6.48891707 L35.9173065,12.4230504 C35.4660338,12.6550072 35.0194619,12.8939578 34.5740653,13.1375708 L29.0577273,10.6431601 C28.4971621,10.3890565 27.8437569,10.4415091 27.3337248,10.7818679 C26.8213423,11.1198956 26.5216691,11.699205 26.5451729,12.3088203 L26.7567069,18.3303745 C26.3641937,18.6415931 25.9752061,18.9598053 25.5909193,19.2815144 L19.6785426,17.8990979 C19.0780209,17.76039 18.4481195,17.9375631 18.0132995,18.3688398 C17.5761292,18.801282 17.3986756,19.4248847 17.5396983,20.0205127 L18.9322975,25.8858748 C18.6091204,26.2658645 18.289469,26.6505166 17.9756935,27.0398312 L11.9046662,26.830021 C11.2923927,26.8125368 10.7071485,27.1039399 10.3651684,27.612147 C10.0220132,28.1180228 9.97030488,28.7661033 10.2253209,29.3232661 L12.7402257,34.7958168 C12.4957864,35.2352528 12.2536974,35.6781855 12.0198348,36.1281119 L6.03812193,37.0932391 C5.43054913,37.1911505 4.91816666,37.5944525 4.68195364,38.1586089 C4.4469158,38.723931 4.5233031,39.3685147 4.88173579,39.8639 L8.42023037,44.7384915 C8.26628059,45.2198895 8.11703157,45.7036187 7.97600887,46.1908447 L2.30219558,48.2947753 C1.72635288,48.5080824 1.3021096,49.0023021 1.1822403,49.6025925 C1.06237101,50.2017174 1.26332835,50.8183264 1.7134258,51.2356157 L6.15211528,55.3409029 C6.09688139,55.8362882 6.04752345,56.3351704 6.00521664,56.8328869 L0.841435443,60.003353 C0.318476264,60.3238964 0,60.8903841 0,61.5023306 C0,62.1142772 0.318476264,62.6807649 0.841435443,63.0001427 L6.00521664,66.1706087 C6.04752345,66.6694909 6.09688139,67.1672074 6.15211528,67.6625928 L1.7134258,71.7690456 C1.26332835,72.1851693 1.06237101,72.8029439 1.1822403,73.4009031 C1.3021096,74.0011936 1.72635288,74.4942477 2.30219558,74.7087204 L7.97600887,76.8126509 C8.11703157,77.299877 8.26628059,77.7836062 8.42023037,78.2650041 L4.88173579,83.1407613 C4.52212791,83.6373122 4.44574061,84.2818959 4.68195364,84.8448867 C4.91816666,85.4102088 5.43172432,85.8135107 6.03929712,85.9102566 L12.0198348,86.8753837 C12.2536974,87.3253102 12.493436,87.7682429 12.7402257,88.2100101 L10.2253209,93.6802296 C9.96912969,94.2362279 10.0220132,94.8831428 10.3651684,95.3913499 C10.7083237,95.9007226 11.2923927,96.1979537 11.9046662,96.1734759 L17.9733431,95.9625 C18.289469,96.3541458 18.6079452,96.7376323 18.9322975,97.1187876 L17.5396983,102.985315 C17.3986756,103.579778 17.5761292,104.201049 18.0132995,104.633491 C18.4469443,105.068265 19.0780209,105.241941 19.6785426,105.102068 L25.5909193,103.720817 C25.9752061,104.044857 26.3641937,104.359573 26.7567069,104.669625 L26.5451729,110.692345 C26.5216691,111.301961 26.8213423,111.880104 27.3337248,112.220463 C27.8437569,112.559657 28.4971621,112.610943 29.0577273,112.35684 L34.5740653,109.863595 C35.0182868,110.108373 35.4648586,110.346158 35.9173065,110.578115 L36.8927135,116.508752 C36.9914294,117.112539 37.3980448,117.623077 37.9668364,117.855034 C38.5344527,118.089322 39.1866827,118.013557 39.6861381,117.658046 L44.6007792,114.146055 C45.0861323,114.29875 45.5738358,114.447949 46.0650649,114.587822 L48.1862814,120.213068 C48.401341,120.784218 48.8996212,121.207336 49.5048436,121.323897 C50.1088908,121.445121 50.7305659,121.244635 51.1501084,120.79704 L55.2902999,116.394522 C55.7897553,116.451637 56.2927362,116.499427 56.7957172,116.54372 L59.9922317,121.665421 C60.3142335,122.181788 60.8865507,122.5 61.5023498,122.5 C62.1181489,122.5 62.690466,122.182953 63.0136431,121.665421 L66.2101576,116.54372 C66.7131386,116.499427 67.2149443,116.451637 67.7143997,116.394522 L71.853416,120.79704 C72.2729585,121.244635 72.8958088,121.445121 73.4986808,121.323897 C74.1039032,121.20617 74.6021834,120.784218 74.817243,120.213068 L76.9384595,114.587822 C77.4296886,114.447949 77.9173921,114.29875 78.4027452,114.146055 L83.3185615,117.658046 C83.8180169,118.013557 84.4690717,118.089322 85.036688,117.855034 C85.6054796,117.623077 86.012095,117.111373 86.1108109,116.508752 L87.0862179,110.578115 C87.5374906,110.346158 87.9840624,110.104877 88.4294591,109.863595 L93.9457971,112.35684 C94.5063635,112.610943 95.1585935,112.559657 95.6698008,112.220463 C96.1821832,111.880104 96.4806813,111.303126 96.4583527,110.692345 L96.2468186,104.669625 C96.6393318,104.358407 97.0283194,104.044857 97.4114311,103.720817 L103.323808,105.102068 C103.924329,105.241941 104.554231,105.068265 104.987876,104.633491 C105.425046,104.201049 105.6025,103.579778 105.461477,102.985315 L104.068878,97.1187876 C104.39323,96.7376323 104.712881,96.3541458 105.025482,95.9625 L111.096509,96.1734759 C111.708782,96.1979537 112.294027,95.9007226 112.636007,95.3913499 C112.979162,94.8831428 113.032045,94.2362279 112.774679,93.6802296 L110.260949,88.2100101 C110.506564,87.7682429 110.747478,87.3253102 110.980165,86.8753837 L116.961878,85.9102566 C117.570626,85.8135107 118.083009,85.4102088 118.318046,84.8448867 C118.553084,84.2818959 118.479047,83.6373122 118.118264,83.1407613 L114.57977,78.2650041 C114.732544,77.7836062 114.881793,77.299877 115.023991,76.8126509 L120.696629,74.7087204 C121.273647,74.4942477 121.699066,74.0011936 121.816585,73.4009031 C121.938804,72.8017783 121.736672,72.1851693 121.285399,71.7690456 L116.847885,67.6625928 C116.901943,67.1672074 116.951301,66.6683253 116.994783,66.1706087 L122.158565,63.0001427 C122.681524,62.6807649 123,62.1131116 123,61.5023306 C123,60.8915497 122.682699,60.3238964 122.15974,60.003353 L122.15974,60.003353 Z M87.5986004,102.491096 C85.626633,102.069144 84.3727061,100.141221 84.7957742,98.179495 C85.2176672,96.2201004 87.1602548,94.972895 89.1310471,95.3948467 C91.1030145,95.8133016 92.3592917,97.7447215 91.9362236,99.7029506 C91.5131555,101.66118 89.5693926,102.909551 87.5986004,102.491096 Z M85.844043,90.7207394 C84.0448284,90.3384185 82.2749935,91.4737251 81.8895314,93.2617747 L80.0562363,101.747435 C74.3988757,104.294298 68.1163144,105.709352 61.4999994,105.709352 C54.732085,105.709352 48.3132018,104.224361 42.5547749,101.569096 L40.722655,93.083436 C40.3371929,91.2977176 38.567358,90.1600798 36.7693186,90.5435663 L29.2163778,92.1521116 C27.8143772,90.7207394 26.5099172,89.1961182 25.3112242,87.5864074 L62.0617398,87.5864074 C62.4777568,87.5864074 62.7551014,87.5118082 62.7551014,87.1364809 L62.7551014,74.2424754 C62.7551014,73.8671481 62.4777568,73.7925489 62.0617398,73.7925489 L51.3134597,73.7925489 L51.3134597,65.619274 L62.938431,65.619274 C63.9996268,65.619274 68.6122442,65.9200021 70.0871066,71.76788 C70.548956,73.5664201 71.5631442,79.4166293 72.2565058,81.2897686 C72.9475171,83.3902023 75.7609199,87.5864074 78.7588275,87.5864074 L97.0718014,87.5864074 C97.2798099,87.5864074 97.5019207,87.5630951 97.7357833,87.5211331 C96.4654038,89.2334178 95.0716295,90.8536192 93.5709117,92.3677499 L85.844043,90.7207394 L85.844043,90.7207394 Z M35.0147612,102.313923 C33.0427938,102.735874 31.1013813,101.488669 30.677138,99.5292743 C30.2552451,97.5663828 31.5091719,95.6396253 33.4811393,95.2176736 C35.4531067,94.7992187 37.3956944,96.0464241 37.8187625,98.0058187 C38.2406554,99.9640478 36.9855534,101.894302 35.0147612,102.313923 Z M21.0734921,46.2421317 C21.8914238,48.0733089 21.0593898,50.2192016 19.215518,51.0293023 C17.3716462,51.8417342 15.2139989,51.0153149 14.3960673,49.182972 C13.5781356,47.3506292 14.4101695,45.2082334 16.2540413,44.3958015 C18.0990883,43.5845352 20.2555605,44.4097888 21.0734921,46.2421317 Z M16.7887524,56.3165206 L24.6566439,52.8488234 C26.3371644,52.1086594 27.0963366,50.1550929 26.3500915,48.4847701 L24.7295056,44.8503903 L31.1025565,44.8503903 L31.1025565,73.3426225 L18.2448118,73.3426225 C17.1295573,69.4541392 16.531386,65.3500175 16.531386,61.1083536 C16.531386,59.4893178 16.6195252,57.8889319 16.7887524,56.3165206 L16.7887524,56.3165206 Z M51.3158101,53.5493565 L51.3158101,45.1511184 L66.492203,45.1511184 C67.2760542,45.1511184 72.027344,46.0498056 72.027344,49.5734522 C72.027344,52.4991396 68.3830824,53.5481909 65.38635,53.5481909 L51.3158101,53.5481909 L51.3158101,53.5493565 Z M106.469789,61.1083536 C106.469789,62.2226792 106.428658,63.3253486 106.346394,64.4198588 L101.732602,64.4198588 C101.270752,64.4198588 101.085072,64.7205868 101.085072,65.1693476 L101.085072,67.2709469 C101.085072,72.2178064 98.2728448,73.2936668 95.8084731,73.5675857 C93.4616191,73.8298485 90.8597503,72.5931337 90.5389237,71.1687552 C89.1545509,63.4454067 86.8476545,61.796065 83.2045681,58.9461424 C87.7255208,56.0985511 92.4298031,51.8976836 92.4298031,46.2747688 C92.4298031,40.2030933 88.2332026,36.3787186 85.3727921,34.5032481 C81.3595211,31.8794543 76.9161309,31.3537631 75.7174379,31.3537631 L28.0012322,31.3537631 C34.4718238,24.1910742 43.2410853,19.117163 53.1596819,17.2708328 L58.7841373,23.1233732 C60.0556919,24.4440122 62.1616309,24.4929679 63.491945,23.2306095 L69.785083,17.2603423 C82.9718807,19.6953068 94.1361777,27.8371102 100.57034,39.0071748 L96.2620961,48.6584464 C95.5182014,50.3287691 96.2773736,52.2823357 97.9567189,53.0224996 L106.251204,56.6766949 C106.394577,58.1372073 106.469789,59.6128728 106.469789,61.1083536 Z M58.7864876,12.2925018 C60.2437222,10.9077541 62.5553193,10.9625379 63.9502688,12.4102286 C65.342868,13.8614162 65.2899845,16.1565072 63.8292243,17.5400893 C62.3719898,18.9248369 60.0603927,18.8712187 58.6654431,17.4211968 C57.2740192,15.9723404 57.3269027,13.6772494 58.7864876,12.2925018 L58.7864876,12.2925018 Z M101.539871,46.4181392 C102.356627,44.5869619 104.514274,43.7605426 106.358146,44.5729746 C108.202018,45.3842409 109.034052,47.5289679 108.21612,49.3601451 C107.399364,51.192488 105.241717,52.0189073 103.39667,51.2064754 C101.555148,50.395209 100.723114,48.2516476 101.539871,46.4181392 L101.539871,46.4181392 Z" id="path3"></path>
                    </g>
                    <text id="Web-Backend-rust" font-family="AvenirNext-DemiBold, Avenir Next" font-size="22" font-weight="500" line-spacing="20" fill="#222222">
                        <tspan x="7" y="185">Web Backend</tspan>
                        <tspan x="67.107" y="212.347778" font-family="AvenirNext-Medium, Avenir Next" font-size="16" font-weight="400">rust</tspan>
                    </text>
                </g>
                <g id="droid-copy" transform="translate(623.000000, 335.000000)">
                    <g id="Oval">
                        <use fill="black" fill-opacity="1" filter="url(#filter-29)" xlink:href="#path-28"></use>
                        <use fill="#FFFFFF" fill-rule="evenodd" xlink:href="#path-28"></use>
                    </g>
                    <path d="M88.47,52.935 C87.105,52.935 86,51.83 86,50.465 C86,49.1 87.105,48 88.47,48 C89.835,48 90.94,49.1 90.94,50.465 C90.94,51.83 89.835,52.935 88.47,52.935 L88.47,52.935 Z M67.47,52.935 C66.105,52.935 65,51.83 65,50.465 C65,49.1 66.105,48 67.47,48 C68.835,48 69.94,49.1 69.94,50.465 C69.94,51.83 68.835,52.935 67.47,52.935 L67.47,52.935 Z M102,63 L102,98.4908434 C102,101.308744 99.6234809,103.60227 96.6859809,103.60227 L96.6859809,103.60227 L92.8458116,103.60227 C92.9784071,104.02863 93.0549045,104.474594 93.0549045,104.945061 L93.0549045,104.945061 L93.0549045,115.163013 C93.0549045,117.833892 90.7956814,120 88.0111762,120 C85.2317708,120 82.9776476,117.833892 82.9776476,115.163013 L82.9776476,115.163013 L82.9776476,104.945061 C82.9776476,104.474594 83.0490451,104.02863 83.1765408,103.60227 L83.1765408,103.60227 L73.8234592,103.60227 C73.9509549,104.02863 74.0274523,104.474594 74.0274523,104.945061 L74.0274523,104.945061 L74.0274523,115.163013 C74.0274523,117.833892 71.7682292,120 68.9888238,120 C66.2094184,120 63.9501953,117.833892 63.9501953,115.163013 L63.9501953,115.163013 L63.9501953,104.945061 C63.9501953,104.474594 64.0215929,104.02863 64.1541884,103.60227 L64.1541884,103.60227 L60.3191189,103.60227 C57.3816189,103.60227 55,101.308744 55,98.4908434 L55,98.4908434 L55,63 L102,63 Z M46.0025316,62 C48.7620253,62 51,64.2103565 51,66.9357961 L51,66.9357961 L51,88.0642039 C51,90.7896435 48.7620253,93 46.0025316,93 C43.2379747,93 41,90.7896435 41,88.0642039 L41,88.0642039 L41,66.9357961 C41,64.2103565 43.2379747,62 46.0025316,62 Z M110.002532,62 C112.762025,62 115,64.2103565 115,66.9357961 L115,66.9357961 L115,88.0642039 C115,90.7896435 112.762025,93 110.002532,93 C107.237975,93 105,90.7896435 105,88.0642039 L105,88.0642039 L105,66.9357961 C105,64.2103565 107.237975,62 110.002532,62 Z M92.6367187,36.3601934 C92.8866102,35.9897681 93.4118924,35.8874138 93.7943793,36.1359886 C94.1819661,36.3796894 94.2890625,36.8768391 94.0289714,37.2472644 L94.0289714,37.2472644 L91.9380425,40.2496585 L90.9996745,41.585139 L90.0613064,42.9401156 C97.1806641,46.1131004 102,52.1227627 102,59 L102,59 L55,59 C55,52.1227627 59.8193359,46.1131004 66.9437934,42.9401156 L66.9437934,42.9401156 L66.0003255,41.585139 L65.0619575,40.2496585 L62.9710286,37.2472644 C62.7160373,36.8768391 62.8231337,36.3796894 63.2056207,36.1359886 C63.5932075,35.8922878 64.1133898,35.9897681 64.3734809,36.3601934 L64.3734809,36.3601934 L66.6174045,39.5770443 L67.5608724,40.9271468 L68.5145399,42.3016195 C71.5489366,41.1757217 74.9352214,40.5469735 78.5,40.5469735 C82.0698785,40.5469735 85.4510634,41.1757217 88.4854601,42.3016195 L88.4854601,42.3016195 L89.4442274,40.9271468 Z" id="Android" fill="url(#linearGradient-30)"></path>
                    <text id="Android-kotlin" font-family="AvenirNext-DemiBold, Avenir Next" font-size="22" font-weight="500" line-spacing="20" fill="#222222">
                        <tspan x="36" y="185">Android</tspan>
                        <tspan x="60.35" y="212.347778" font-family="AvenirNext-Medium, Avenir Next" font-size="16" font-weight="400">kotlin</tspan>
                    </text>
                </g>
                <g id="openapi" transform="translate(342.000000, 335.000000)">
                    <g id="Oval">
                        <use fill="black" fill-opacity="1" filter="url(#filter-32)" xlink:href="#path-31"></use>
                        <use fill="#FFFFFF" fill-rule="evenodd" xlink:href="#path-31"></use>
                    </g>
                    <g id="687474703a2f2f67726f6b6966792e6769746875622e696f2f696d616765732f6c6f676f5f6f70656e6170692d67656e657261746f722e737667" transform="translate(30.000000, 30.000000)">
                        <path d="M83.362269,0.113957586 C76.3709128,1.10203225 72.1480847,8.71347794 74.8229109,15.5055149 L75.1660037,16.3769147 L63.6368371,28.0897978 L52.1076705,39.8026809 L51.2499386,39.4541209 C43.2228171,36.1913754 34.8948887,42.8279273 36.1207005,51.5109263 C36.789347,56.2472407 40.6782123,60.1980748 45.3402377,60.8773761 C53.8870438,62.1227212 60.4195014,53.6620878 57.207932,45.5070546 L56.8648393,44.6356548 L68.3940058,32.9227717 L79.9231724,21.2098886 L80.7830666,21.5594249 C88.136256,24.5483019 96,19.2181176 96,11.2451752 C96,4.33231389 90.1253772,-0.841897249 83.362269,0.113957586" id="path1" fill="url(#linearGradient-33)"></path>
                        <path d="M23.6773102,26.7332282 L15.9445609,34.4664563 L15.9445609,48.6391333 L15.9445609,62.8118103 L7.97240016,70.7844499 L0,78.7573289 L9.12133555,87.8786645 L18.2426711,97 L26.2155501,89.0275998 L34.1881897,81.0554391 L48.3613455,81.0554391 L62.5345013,81.0554391 L70.2672507,73.3222109 L78,65.5889828 L78,50.0265225 L78,34.4638228 L76.3952253,32.8612028 L74.7904506,31.2585827 L69.5310606,36.518691 L64.2714312,41.7790386 L64.5240102,42.3840313 C69.4855724,54.2641046 62.0393985,67.3196879 49.3814775,68.9340391 C37.0850678,70.5026627 26.4973373,59.9149322 28.0659609,47.6185225 C29.6807909,34.9572497 42.7327831,27.5132306 54.6159687,32.4759898 L55.2209614,32.7285688 L60.481309,27.4689394 L65.7414173,22.2095494 L64.1387972,20.6047747 L62.5361772,19 L46.9729987,19 L31.4100596,19 L23.6773102,26.7332282" id="path2" fill="url(#linearGradient-34)"></path>
                        <path d="M7.89802217,70.1503497 L0,78.3006993 L7.92205001,70.1750699 C15.2867017,62.6211888 15.886684,62 15.8200722,62 C15.8069877,62 12.2420652,65.6676573 7.89802217,70.1503497 M26.0735363,88.8496503 L18.1755141,97 L26.0975641,88.8743706 C33.4622158,81.3204895 34.0621981,80.6993007 33.9955863,80.6993007 C33.9825018,80.6993007 30.4175793,84.366958 26.0735363,88.8496503" id="path4" fill="url(#linearGradient-35)"></path>
                    </g>
                    <text id="OpenAPI-yaml" font-family="AvenirNext-DemiBold, Avenir Next" font-size="22" font-weight="500" line-spacing="20" fill="#222222">
                        <tspan x="31" y="187">OpenAPI</tspan>
                        <tspan x="63.198" y="214.347778" font-family="AvenirNext-Medium, Avenir Next" font-size="16" font-weight="400">yaml</tspan>
                    </text>
                </g>
                <g id="ts" transform="translate(342.000000, 636.000000)">
                    <g id="Oval">
                        <use fill="black" fill-opacity="1" filter="url(#filter-37)" xlink:href="#path-36"></use>
                        <use fill="#FFFFFF" fill-rule="evenodd" xlink:href="#path-36"></use>
                    </g>
                    <text id="Web-Frontend-typescr" font-family="AvenirNext-DemiBold, Avenir Next" font-size="22" font-weight="500" line-spacing="20" fill="#222222">
                        <tspan x="5" y="188">Web Frontend</tspan>
                        <tspan x="44.536" y="215.347778" font-family="AvenirNext-Medium, Avenir Next" font-size="16" font-weight="400">typescript</tspan>
                    </text>
                    <g id="download" transform="translate(41.000000, 44.000000)" fill="url(#linearGradient-38)" fill-rule="nonzero">
                        <g id="Group" transform="translate(37.000000, 37.000000) scale(-1, 1) rotate(-180.000000) translate(-37.000000, -37.000000) ">
                            <path d="M-5.68434189e-14,37 L-5.68434189e-14,-1.13686838e-13 L37,-1.13686838e-13 L74,-1.13686838e-13 L74,37 L74,74 L37,74 L-5.68434189e-14,74 L-5.68434189e-14,37 Z M59.4800707,39.6970891 C61.3674372,39.2298283 62.8065542,38.4004404 64.1277107,37.0453842 C64.811881,36.32113 65.8263405,35.0011183 65.9089128,34.6857172 C65.9325049,34.5922651 62.7003898,32.4428655 60.742247,31.239669 C60.6714708,31.192943 60.3883658,31.4966625 60.0698727,31.9639232 C59.1143934,33.3423425 58.11173,33.9381 56.5782447,34.0432337 C54.325201,34.1950934 52.874288,33.0269415 52.886084,31.0761278 C52.886084,30.5037333 52.9686563,30.1649693 53.2045771,29.6977085 C53.7000108,28.6814163 54.620102,28.0739773 57.5101319,26.8357362 C62.8301462,24.5695215 65.1067821,23.074287 66.5223069,20.9482505 C68.1029764,18.576902 68.4568576,14.7920898 67.3834179,11.9768436 C66.2038138,8.91628551 63.2783958,6.83697507 59.1615776,6.14776542 C57.8876052,5.92581655 54.8678188,5.96086111 53.4994781,6.20617302 C50.5150799,6.73184139 47.6840301,8.19203131 45.9382161,10.1078005 C45.2540458,10.8554177 43.9210932,12.8062315 44.0036655,12.9464097 C44.0390536,12.9931358 44.3457506,13.1800401 44.6878358,13.3786259 C45.018125,13.5655302 46.2685053,14.2781029 47.4481093,14.955631 L49.5831927,16.1821906 L50.0314422,15.5280255 C50.6566324,14.5818224 52.0249731,13.2851738 52.8506959,12.8529575 C55.2217001,11.6147165 58.4774073,11.7899393 60.0816688,13.2150846 C60.7658391,13.8342052 61.0489441,14.4766887 61.0489441,15.4228918 C61.0489441,16.2756427 60.9427797,16.6494513 60.4945302,17.2919349 C59.9165242,18.1096413 58.7369202,18.7988509 55.3868446,20.2356778 C51.5531314,21.8710905 49.9016858,22.8873827 48.3917926,24.4994324 C47.5188856,25.4339539 46.6931627,26.9291884 46.3510775,28.179111 C46.0679726,29.2187662 45.9971963,31.823745 46.2213211,32.8750817 C47.0116558,36.5430788 49.8073174,39.1013316 53.8415633,39.8606303 C55.1509238,40.1059422 58.1943023,40.0124901 59.4800707,39.6970891 Z M41.9765766,36.9846766 L42,33.9954778 L37.1981982,33.9954778 L32.3963964,33.9954778 L32.3963964,20.4977389 L32.3963964,7 L29,7 L25.6036036,7 L25.6036036,20.4977389 L25.6036036,33.9954778 L20.8018018,33.9954778 L16,33.9954778 L16,36.9267464 C16,38.5487922 16.0351351,39.9043591 16.081982,39.9391173 C16.1171171,39.9854614 21.9612613,40.0086335 29.0468468,39.9970475 L41.9414414,39.9622894 L41.9765766,36.9846766 Z" id="Shape"></path>
                        </g>
                    </g>
                </g>
            </g>
        </g>
    </g>
</svg>