<?xml version="1.0" encoding="UTF-8"?>
<svg width="137px" height="137px" viewBox="0 0 137 137" version="1.1" xmlns="http://www.w3.org/2000/svg" xmlns:xlink="http://www.w3.org/1999/xlink">
    <!-- Generator: Sketch 60 (88103) - https://sketch.com -->
    <title>Artboard Copy 2</title>
    <desc>Created with Sketch.</desc>
    <defs>
        <path d="M87,78 L85,-4.26325641e-14 L155.948165,29 C165.020724,94.7598375 152.508752,134.086137 118.412249,146.978899 C84.3157465,159.871661 44.8451448,146.603784 0.000444247306,107.175268 L87,78 Z" id="path-1"></path>
        <linearGradient x1="100%" y1="0%" x2="34.4152364%" y2="81.9378579%" id="linearGradient-3">
            <stop stop-color="#FF2965" offset="0%"></stop>
            <stop stop-color="#FF8B44" offset="100%"></stop>
        </linearGradient>
        <circle id="path-4" cx="69" cy="69" r="42"></circle>
        <filter x="-29.8%" y="-23.8%" width="159.5%" height="159.5%" filterUnits="objectBoundingBox" id="filter-5">
            <feOffset dx="0" dy="5" in="SourceAlpha" result="shadowOffsetOuter1"></feOffset>
            <feGaussianBlur stdDeviation="7.5" in="shadowOffsetOuter1" result="shadowBlurOuter1"></feGaussianBlur>
            <feColorMatrix values="0 0 0 0 0   0 0 0 0 0   0 0 0 0 0  0 0 0 0.101753715 0" type="matrix" in="shadowBlurOuter1"></feColorMatrix>
        </filter>
        <linearGradient x1="100%" y1="4.44214876%" x2="34.4152364%" y2="79.1004036%" id="linearGradient-6">
            <stop stop-color="#FF2965" offset="0%"></stop>
            <stop stop-color="#FF8B44" offset="100%"></stop>
        </linearGradient>
        <linearGradient x1="100%" y1="-85.2563202%" x2="34.4152364%" y2="81.9378579%" id="linearGradient-7">
            <stop stop-color="#FF2965" offset="0%"></stop>
            <stop stop-color="#FF8B44" offset="100%"></stop>
        </linearGradient>
    </defs>
    <g id="Artboard-Copy-2" stroke="none" stroke-width="1" fill="none" fill-rule="evenodd">
        <g id="Oval" transform="translate(-16.000000, -9.000000)">
            <mask id="mask-2" fill="white">
                <use xlink:href="#path-1"></use>
            </mask>
            <g id="Mask"></g>
            <circle stroke="url(#linearGradient-3)" stroke-width="6" mask="url(#mask-2)" cx="86.5912247" cy="78" r="59"></circle>
        </g>
        <g id="Oval">
            <use fill="black" fill-opacity="1" filter="url(#filter-5)" xlink:href="#path-4"></use>
            <use fill="#FFFFFF" fill-rule="evenodd" xlink:href="#path-4"></use>
        </g>
        <path d="M58,65.8998242 C58,60.970229 60.3105333,59 63.3778316,59 C65.3297488,59 67.1260317,59.8335571 68.7666804,61.5006714 L69,61.744501 C70.7032467,59.9148337 72.5773028,59 74.6221684,59 C77.6894667,59 80,60.970229 80,65.8998242 C80,69.186221 76.3333333,73.8862796 69,80 L69,80 C61.6666667,73.8862796 58,69.186221 58,65.8998242 Z" id="Combined-Shape" fill="url(#linearGradient-6)"></path>
        <circle id="Oval" fill="url(#linearGradient-7)" cx="16" cy="92" r="6"></circle>
    </g>
</svg>