<?xml version="1.0" encoding="UTF-8"?>
<svg width="137px" height="137px" viewBox="0 0 137 137" version="1.1" xmlns="http://www.w3.org/2000/svg" xmlns:xlink="http://www.w3.org/1999/xlink">
    <!-- Generator: Sketch 60 (88103) - https://sketch.com -->
    <title>Artboard Copy 3</title>
    <desc>Created with Sketch.</desc>
    <defs>
        <path d="M87,78 L85,-4.26325641e-14 L155.948165,29 C165.020724,94.7598375 152.508752,134.086137 118.412249,146.978899 C84.3157465,159.871661 44.8451448,146.603784 0.000444247306,107.175268 L87,78 Z" id="path-1"></path>
        <linearGradient x1="85.1177175%" y1="13.4111817%" x2="17.9511086%" y2="81.5158098%" id="linearGradient-3">
            <stop stop-color="#AF2CEE" offset="0%"></stop>
            <stop stop-color="#8D6BFD" offset="100%"></stop>
        </linearGradient>
        <circle id="path-4" cx="69" cy="69" r="42"></circle>
        <filter x="-29.8%" y="-23.8%" width="159.5%" height="159.5%" filterUnits="objectBoundingBox" id="filter-5">
            <feOffset dx="0" dy="5" in="SourceAlpha" result="shadowOffsetOuter1"></feOffset>
            <feGaussianBlur stdDeviation="7.5" in="shadowOffsetOuter1" result="shadowBlurOuter1"></feGaussianBlur>
            <feColorMatrix values="0 0 0 0 0   0 0 0 0 0   0 0 0 0 0  0 0 0 0.101753715 0" type="matrix" in="shadowBlurOuter1"></feColorMatrix>
        </filter>
        <linearGradient x1="50%" y1="-91.8709109%" x2="17.9511086%" y2="81.5158098%" id="linearGradient-6">
            <stop stop-color="#AF2CEE" offset="0%"></stop>
            <stop stop-color="#8D6BFD" offset="100%"></stop>
        </linearGradient>
    </defs>
    <g id="Artboard-Copy-3" stroke="none" stroke-width="1" fill="none" fill-rule="evenodd">
        <g id="Oval" transform="translate(-16.000000, -9.000000)">
            <mask id="mask-2" fill="white">
                <use xlink:href="#path-1"></use>
            </mask>
            <g id="Mask"></g>
            <circle stroke="url(#linearGradient-3)" stroke-width="6" mask="url(#mask-2)" cx="86.5912247" cy="78" r="59"></circle>
        </g>
        <g id="Oval">
            <use fill="black" fill-opacity="1" filter="url(#filter-5)" xlink:href="#path-4"></use>
            <use fill="#FFFFFF" fill-rule="evenodd" xlink:href="#path-4"></use>
        </g>
        <path d="M70.1666667,55 L67.8333333,55 L66.1457403,59.5002481 C65.5010088,59.6936887 64.8838863,59.9509709 64.3017151,60.2647527 L59.925463,58.2755472 L58.2755472,59.925463 L60.2647527,64.3017151 C59.9509709,64.8838863 59.6936887,65.5010088 59.5002481,66.1457403 L55,67.8333333 L55,70.1666667 L59.5002481,71.8542597 C59.6936887,72.4989912 59.9509709,73.1161137 60.2647527,73.6982849 L58.2755472,78.074537 L59.925463,79.7244528 L64.3017151,77.7352473 C64.8838863,78.0490291 65.5010088,78.3063113 66.1457403,78.4997519 L67.8333333,83 L70.1666667,83 L71.8542597,78.4997519 C72.4989912,78.3063113 73.1161137,78.0490291 73.6982849,77.7352473 L78.074537,79.7244528 L79.7244528,78.074537 L77.7352473,73.6982849 C78.0490291,73.1161137 78.3063113,72.4989912 78.4997519,71.8542597 L83,70.1666667 L83,67.8333333 L78.4997519,66.1457403 C78.3063113,65.5010088 78.0490291,64.8838863 77.7352473,64.3017151 L79.7244528,59.925463 L78.074537,58.2755472 L73.6982849,60.2647527 C73.1161137,59.9509709 72.4989912,59.6936887 71.8542597,59.5002481 L70.1666667,55 Z M74,69 C74,66.2385763 71.7614237,64 69,64 C66.2385763,64 64,66.2385763 64,69 C64,71.7614237 66.2385763,74 69,74 C71.7614237,74 74,71.7614237 74,69 Z" id="Grind" fill="url(#linearGradient-3)"></path>
        <circle id="Oval" fill="url(#linearGradient-6)" cx="16" cy="92" r="6"></circle>
    </g>
</svg>