<?xml version="1.0" encoding="UTF-8"?>
<svg width="20px" height="23px" viewBox="0 0 20 23" version="1.1" xmlns="http://www.w3.org/2000/svg" xmlns:xlink="http://www.w3.org/1999/xlink">
    <!-- Generator: Sketch 59.1 (86144) - https://sketch.com -->
    <title>download-android</title>
    <desc>Created with Sketch.</desc>
    <g id="Dynamic" stroke="none" stroke-width="1" fill="none" fill-rule="evenodd">
        <g id="Desktop-HD" transform="translate(-381.000000, -492.000000)" fill="#FFFFFF" fill-rule="nonzero">
            <g id="platform-logos" transform="translate(381.000000, 492.000000)">
                <path d="M13.3043478,2.04444444 L14.3478261,0.425925926 C14.4347826,0.340740741 14.3478261,0.17037037 14.2608696,0.0851851852 C14.173913,-1.84088855e-14 14,0.0851851852 13.9130435,0.17037037 L12.7826087,1.87407407 C11.9130435,1.53333333 11.0434783,1.36296296 10,1.36296296 C9.04347826,1.36296296 8.08695652,1.53333333 7.2173913,1.87407407 L6.08695652,0.17037037 C6,0.0851851852 5.91304348,-1.84088855e-14 5.73913043,0.0851851852 C5.65217391,0.17037037 5.56521739,0.255555556 5.65217391,0.425925926 L6.69565217,2.04444444 C4.7826087,2.98148148 3.47826087,4.77037037 3.47826087,6.72962963 C3.47826087,6.81481481 3.47826087,6.98518519 3.47826087,7.07037037 L16.5217391,7.07037037 C16.5217391,6.98518519 16.5217391,6.81481481 16.5217391,6.72962963 C16.5217391,4.68518519 15.2173913,2.98148148 13.3043478,2.04444444 L13.3043478,2.04444444 Z M7.13043478,4.94074074 C6.7826087,4.94074074 6.52173913,4.68518519 6.52173913,4.34444444 C6.52173913,4.0037037 6.7826087,3.74814815 7.13043478,3.74814815 C7.47826087,3.74814815 7.73913043,4.0037037 7.73913043,4.34444444 C7.73913043,4.68518519 7.47826087,4.94074074 7.13043478,4.94074074 L7.13043478,4.94074074 Z M16.6956522,7.66666667 L16.6956522,16.8666667 C16.6956522,17.6333333 16.0869565,18.1444444 15.3913043,18.1444444 L15.3913043,18.1444444 L14,18.1444444 L14,21.2962963 C14,22.062963 13.3913043,22.6592593 12.6086957,22.6592593 L12.6086957,22.6592593 L12.5217391,22.6592593 C11.7391304,22.6592593 11.1304348,22.062963 11.1304348,21.2962963 L11.1304348,21.2962963 L11.1304348,18.1444444 L9.2173913,18.1444444 L9.2173913,21.2962963 C9.2173913,22.062963 8.60869565,22.6592593 7.82608696,22.6592593 L7.82608696,22.6592593 L7.68987336,22.653156 C6.97397322,22.5885172 6.43478261,22.0178649 6.43478261,21.2962963 L6.43478261,21.2962963 L6.43478261,18.2296296 L5.04347826,18.2296296 C4.34782609,18.2296296 3.73913043,17.6333333 3.73913043,16.9518519 L3.73913043,16.9518519 L3.73913043,7.66666667 L16.6956522,7.66666667 Z M18.6086957,7.41111111 L18.7449092,7.41721434 C19.4608094,7.48185313 20,8.05250545 20,8.77407407 L20,8.77407407 L20,14.6518519 C20,15.4185185 19.3913043,16.0148148 18.6086957,16.0148148 L18.6086957,16.0148148 L18.5217391,16.0148148 C17.7391304,16.0148148 17.1304348,15.4185185 17.1304348,14.6518519 L17.1304348,14.6518519 L17.1304348,8.77407407 C17.1304348,8.00740741 17.826087,7.41111111 18.6086957,7.41111111 L18.6086957,7.41111111 Z M1.73913043,7.41111111 L1.86844005,7.41799497 C2.50883152,7.48631366 3.04891304,8.05532407 3.13043478,8.77407407 L3.13043478,8.77407407 L3.13043478,14.6518519 C3.13043478,15.4185185 2.52173913,16.0148148 1.73913043,16.0148148 L1.73913043,16.0148148 L1.65217391,16.0148148 C0.869565217,16.0148148 0.260869565,15.4185185 0.260869565,14.6518519 L0.260869565,14.6518519 L0.260869565,8.77407407 C0.260869565,8.00740741 0.956521739,7.41111111 1.73913043,7.41111111 L1.73913043,7.41111111 Z M13.1304348,3.74814815 C13.4782609,3.74814815 13.7391304,4.0037037 13.7391304,4.34444444 C13.7391304,4.68518519 13.3913043,4.94074074 13.1304348,4.94074074 C12.7826087,4.94074074 12.5217391,4.68518519 12.5217391,4.34444444 C12.5217391,4.0037037 12.7826087,3.74814815 13.1304348,3.74814815 Z" id="android"></path>
            </g>
        </g>
    </g>
</svg>