<?xml version="1.0" encoding="UTF-8"?>
<svg width="19px" height="23px" viewBox="0 0 19 23" version="1.1" xmlns="http://www.w3.org/2000/svg" xmlns:xlink="http://www.w3.org/1999/xlink">
    <!-- Generator: Sketch 59.1 (86144) - https://sketch.com -->
    <title>download-apple</title>
    <desc>Created with Sketch.</desc>
    <g id="Dynamic" stroke="none" stroke-width="1" fill="none" fill-rule="evenodd">
        <g id="Desktop-HD" transform="translate(-419.000000, -492.000000)" fill="#FFFFFF" fill-rule="nonzero">
            <g id="platform-logos" transform="translate(381.000000, 492.000000)">
                <path d="M53.9547194,12.2250449 C53.9547194,9.31839084 56.3909439,7.95055366 56.4779519,7.86506383 C55.0858236,5.89879787 52.9976312,5.6423284 52.2145591,5.55683858 C50.3873907,5.38585893 48.6472304,6.58271647 47.6901422,6.58271647 C46.733054,6.58271647 45.3409258,5.55683858 43.8617895,5.55683858 C41.8606051,5.55683858 40.0334368,6.66820629 38.9893406,8.4634926 C36.9011482,11.9685754 38.4672925,17.1834547 40.4684768,20.0901087 C41.425565,21.4579459 42.6436773,23.0822526 44.1228135,22.9967627 C45.6019498,22.9112729 46.1239979,22.0563747 47.9511663,22.0563747 C49.7783346,22.0563747 50.2133747,22.9967627 51.779519,22.9967627 C53.3456633,22.9967627 54.3897595,21.5434357 55.3468477,20.1755985 C56.4779519,18.5512919 56.912992,17.012475 57,16.9269852 C57,16.8414954 53.9547194,15.6446378 53.9547194,12.2250449 L53.9547194,12.2250449 Z M50.9964469,3.67606244 C51.779519,2.73567438 52.3885751,1.36783719 52.2145591,0 C50.9964469,0.0854898243 49.6043186,0.769408418 48.7342384,1.70979649 C47.9511663,2.56469473 47.3421102,3.93253192 47.5161262,5.3003691 C48.8212464,5.38585893 50.1263667,4.61645051 50.9964469,3.67606244 L50.9964469,3.67606244 Z" id="apple"></path>
            </g>
        </g>
    </g>
</svg>