<?xml version="1.0" encoding="UTF-8"?>
<svg width="48px" height="47px" viewBox="0 0 48 47" version="1.1" xmlns="http://www.w3.org/2000/svg" xmlns:xlink="http://www.w3.org/1999/xlink">
    <!-- Generator: Sketch 59.1 (86144) - https://sketch.com -->
    <title>github-white</title>
    <desc>Created with Sketch.</desc>
    <g id="Dynamic" stroke="none" stroke-width="1" fill="none" fill-rule="evenodd">
        <g id="Desktop-HD" transform="translate(-1223.000000, -68.000000)" fill="#FFFFFF">
            <g id="Group" transform="translate(990.000000, 68.000000)">
                <path d="M256.9985,3.55271368e-15 C243.746,3.55271368e-15 233,10.7870921 233,24.096644 C233,34.7406712 239.876,43.7718301 249.4145,46.9584121 C250.6145,47.1797862 251.0525,46.4358488 251.0525,45.7973276 C251.0525,45.2250681 251.0315,43.7100863 251.0195,41.6996482 C244.343,43.1558981 242.9345,38.4693938 242.9345,38.4693938 C241.844,35.6864054 240.2705,34.9454799 240.2705,34.9454799 C238.091,33.4500754 240.4355,33.4801943 240.4355,33.4801943 C242.843,33.6503662 244.1105,35.9634994 244.1105,35.9634994 C246.2525,39.6455377 249.728,38.5823398 251.096,37.9649018 C251.3135,36.4077535 251.9345,35.3460615 252.62,34.7436831 C247.2905,34.1352808 241.688,32.0691228 241.688,22.8361671 C241.688,20.2052792 242.6225,18.0547881 244.1585,16.3696344 C243.911,15.7597262 243.0875,13.3110578 244.3925,9.99345849 C244.3925,9.99345849 246.4085,9.34590166 250.9925,12.4632101 C252.908,11.9285993 254.96,11.6620468 257.0015,11.6515052 C259.04,11.6620468 261.0935,11.9285993 263.0105,12.4632101 C267.5915,9.34590166 269.603,9.99345849 269.603,9.99345849 C270.9125,13.3110578 270.089,15.7597262 269.8415,16.3696344 C271.3805,18.0547881 272.309,20.2052792 272.309,22.8361671 C272.309,32.0917119 266.6975,34.1292571 261.3515,34.7256117 C262.2125,35.4695491 262.9805,36.9393525 262.9805,39.1877301 C262.9805,42.4089489 262.9505,45.0067059 262.9505,45.7973276 C262.9505,46.4418726 263.3825,47.1918338 264.6005,46.9554002 C274.13,43.7627944 281,34.7376593 281,24.096644 C281,10.7870921 270.254,3.55271368e-15 256.9985,3.55271368e-15" id="github"></path>
            </g>
        </g>
    </g>
</svg>