<svg id="Layer_1" data-name="Layer 1" xmlns="http://www.w3.org/2000/svg" xmlns:xlink="http://www.w3.org/1999/xlink"
     viewBox="0 0 364.3 373.79"  width="250px" height="250px">
  <defs>
    <style>.cls-1 {
      fill: url(#linear-gradient);
    }

    .cls-2 {
      fill: url(#linear-gradient-2);
    }</style>
    <linearGradient id="linear-gradient" x1="12.93" y1="186.89" x2="349.31" y2="186.89" gradientUnits="userSpaceOnUse">
      <stop offset="0.41" stop-color="#00954b"/>
      <stop offset="0.47" stop-color="#118d49"/>
      <stop offset="0.6" stop-color="#3e7846"/>
      <stop offset="0.77" stop-color="#86573f"/>
      <stop offset="0.99" stop-color="#e82937"/>
      <stop offset="1" stop-color="#ee2636"/>
    </linearGradient>
    <linearGradient id="linear-gradient-2" x1="152.39" y1="122.93" x2="244.03" y2="122.93"
                    xlink:href="#linear-gradient"/>
  </defs>
  <g id="jc6OOu.tif">
    <path class="cls-1"
          d="M181,18.71a167.73,167.73,0,0,1,168.3,168.34c0,92.54-75.49,168-168.08,168-93,.05-168.4-75.55-168.3-168.67A167.76,167.76,0,0,1,181,18.71ZM139,120.77c9.55,5.67,9.81,8.47,1.68,15.28-3.76,3.15-7.84,5.9-11.62,9-9.7,8-20.53,15.43-17.5,30.76.21,1-.48,2.22-.71,3.34-4.66,23.1,12.9,41.53,35.67,37.44,4.25-.77,8.47-2.08,12.75-2.26,2.52-.1,5.21,1.34,7.67,2.41,3.2,1.4,6.56,2.73,9.26,4.84,1.91,1.49,4.54,5.33,4,6.21-3.34,5.06-.69,8.77,1.72,12.71,3.15,5.16,6.4,10.26,9.55,15.43,2.75,4.5,2.92,8.4-.05,13.54-2.19,3.79-3.35,11.49-1.12,13.89,6.55,7.06,6.19,15.9,8.13,23.85,1.75,7.23,4.85,9.19,10.61,6.37,8.82-4.32,19.93-4.31,26.2-13.77,1.06-1.6,4-2.42,6.15-2.74,6.37-.93,8.49-4.43,8.48-10.68,0-9.2,4-16.08,13.33-19,5.14-1.63,5.93-5,5.06-10.16-2.32-13.83-1.34-26.71,9.87-37.5,5.27-5.07,8.84-12.07,12.49-18.59,1.95-3.48,2.44-7.78,4.13-13.53-4.33,1.37-6.52,1.81-8.5,2.73-10.83,5-12.72,4.91-20.29-4.58-6.64-8.34-12.75-17.11-18.83-25.87-1.79-2.58-2.65-5.78-4.58-10.14,12.94,6.1,21.67,13.6,26.91,24.83a71.5,71.5,0,0,0,4.47,7.39c2.89,4.61,6.54,5,9.57.66,5.74-8.28,11.21-16.78,16.14-25.55.92-1.62-.54-5.5-2.11-7.29-1.31-1.5-4.8-2.59-6.58-1.91-8,3-16.33-1.59-17.92-11.58,3.53.23,6.9.06,10.09.75,7,1.51,13.55,6.89,21.38,2.26.8-.47,3.87,1.21,4.59,2.58,5.69,10.82,11,21.86,16.59,32.71,1.72,3.31,4.16,6.25,6.27,9.36l2.1-.88c-.82-17.68-1.61-35.36-2.5-53-.05-1.08-.86-2.12-1.3-3.19-18.24-44.3-50-74.72-94.61-91.8C230.17,33,224.41,31.64,218.79,30a6.23,6.23,0,0,0,1.91,4.62c5.1,5,7.54,10.1,1.89,16.44-1.22,1.37-1.06,3.9-2.11,5.52s-2.68,2.43-4.07,3.62c-1-1.42-3-2.85-2.95-4.24.11-5.23-3.32-5.42-7.1-6.71-13.48-4.6-21.21,6.24-30.81,11.35-4.5,2.39-2.27,10,2.54,11.82,3.57,1.36,7.08,2.89,12.14,5,1.53-5.51,3.24-11.67,4.94-17.82l4.09.43c.33,5.71.64,11.42,1,17.12.34,5.36-2.64,8.23-7.31,6.48-8.84-3.32-15.95-.93-22.86,4.4-.72.55-2.13.19-3.11.25l-8.67-19.15L144.14,86.22,164.37,92,153.7,95.76l3.18,12.7C143.7,107.18,141.47,108.76,139,120.77ZM82.09,89.87c6.45,3.35,7.55,2.73,10-8.55.88-4.13,1.47-9.85,4.28-11.73,7.58-5.07,12.75-11.25,15.41-19.84.21-.68,1.85-.93,5.19-2.45-1.24,7.11-2.18,12.48-3.52,20.13l28.74-9c2.63,7.93,6.27,9,11.51,4,1.59-1.54,3.3-3.68,3.57-5.73,1-7.36,5.15-9.59,12.2-10.59,14.42-2.07,17.46-7,14.53-20.23C126.06,22.81,67.15,59.21,45.65,103,55.15,94.83,65.79,89.32,82.09,89.87ZM21.92,161.82C15.49,215,30.34,260.09,67,298.05c-.29-5.11-1.43-10-2.2-15-.34-2.17-.81-5.74.27-6.48,5.27-3.59,1.72-7.17,1.26-11.22-.76-6.81-1.52-14.35.63-20.58,3.11-9.06,3.16-12.11-5.25-16.77-2.41-1.33-5.26-2.59-6.78-4.69-4.16-5.73-7.81-11.83-11.46-17.9A48.45,48.45,0,0,1,40,197.81c-1.89-4.9-3.69-9.84-5.44-14.8-.93-2.64-2.58-5.41-2.37-8C32.78,168,29.64,164.26,21.92,161.82Z"/>
    <path class="cls-2"
          d="M236.3,139.57c-20.23-5.58-20.23-5.58-23.69,9.29-5.93-2.38-11.71-4.64-17.43-7-1.3-.55-2.44-2.38-3.55-2.3-9.69.72-11.52-4.91-9.55-13.24-22.85,7.95-26.17,7.89-29.69.49,5.05-5.61,9.77-11.18,14.86-16.38,4.16-4.26,7.9-7.82,14.09-1.06,3.56,3.88,11.53,3.49,10.93,11.86-.05.73,4.1,1.76,6.84,2.88.81-3.47,1.35-5.82,2.38-10.28l4.83,9.91,3,2.33a34.69,34.69,0,0,0,1.84-5.64c.53-3.49.43-6.7,5.74-6.67,1.2,0,2.95-5.42,3.5-8.51.85-4.75,2.39-9.29,7.85-8s10.56,4.58,15.81,7l-5.11,5.12c-2.48,2.48-5.8,4.63-7,7.63-.51,1.25,3.26,4.48,5.35,6.54C242.86,129,238.93,133.88,236.3,139.57Z"/>
  </g>
</svg>
