<svg id="Layer_1" data-name="Layer 1" xmlns="http://www.w3.org/2000/svg" viewBox="0 0 332.18 290.82" width="250px" height="250px">
  <defs>
    <style>.cls-1 {
      fill: url(#linear-gradient);
    }</style>
    <linearGradient id="linear-gradient" x1="16.06" y1="186.89" x2="348.24" y2="186.89" gradientUnits="userSpaceOnUse">
      <stop offset="0.41" stop-color="#d22a27"/>
      <stop offset="0.53" stop-color="#d63b26"/>
      <stop offset="0.77" stop-color="#df6725"/>
      <stop offset="1" stop-color="#e99723"/>
    </linearGradient>
  </defs>
  <g id="ICfoaK.tif">
    <path class="cls-1"
          d="M182.7,93.76c5.45-7,11-15.08,17.57-22.3,43.69-48.2,114.94-35.56,139.09,25,18,45.12,7.95,86.65-23.85,121-21.74,23.46-48.68,42.1-73.25,62.94-20.41,17.32-40.76,34.7-61,51.93-13.06-11.76-27.34-25.61-42.67-38.19-20.23-16.59-41.5-31.89-61.91-48.25C47.32,222.32,24,194.35,17.61,155.92c-7-41.84,8.85-93.88,63.07-110.68,26-8.07,49.4-3,69.56,14.18C162,69.45,171.66,81.92,182.7,93.76Z"
          transform="translate(-16.06 -41.48)"/>
  </g>
</svg>
