<?xml version="1.0" encoding="UTF-8"?>
<svg width="267px" height="43px" viewBox="0 0 257 43" version="1.1" xmlns="http://www.w3.org/2000/svg" xmlns:xlink="http://www.w3.org/1999/xlink">
  <!-- Generator: Sketch 61 (89581) - https://sketch.com -->
  <title>logo</title>
  <desc>Created with Sketch.</desc>
  <g id="Page-1" stroke="none" stroke-width="1" fill="none" fill-rule="evenodd">
    <g id="logo-orange-white" transform="translate(-9.000000, -44.000000)">
      <g id="logo" transform="translate(10.000000, 42.000000)">
        <g id="spinner" transform="translate(0.000000, 3.000000)" fill-rule="nonzero" stroke="#FFFFFF">
          <g id="loading">
            <path d="M40.4849624,19.4749647 L32.8347604,19.4749647 C31.804634,19.5154318 30.9899798,20.379349 30.9899798,21.4313009 C30.9899798,22.4832528 31.804634,23.3471699 32.8347604,23.3876371 L40.45798,23.3876371 C41.515647,23.3828755 42.3718998,22.5091282 42.3766009,21.4298517 C42.382861,20.3571546 41.5361769,19.4821449 40.4849624,19.4749647 Z" id="Path_868"></path>
            <path d="M9.93811905,19.4749647 L2.31489939,19.4749647 C1.61236141,19.4473664 0.951299411,19.8140883 0.591990005,20.4307428 C0.232680599,21.0473974 0.232680599,21.8152043 0.591990005,22.4318589 C0.951299411,23.0485134 1.61236141,23.4152354 2.31489939,23.3876371 L9.93811905,23.3876371 C10.640657,23.4152354 11.301719,23.0485134 11.6610284,22.4318589 C12.0203378,21.8152043 12.0203378,21.0473974 11.6610284,20.4307428 C11.301719,19.8140883 10.640657,19.4473664 9.93811905,19.4749647 L9.93811905,19.4749647 Z" id="Path_869"></path>
            <path d="M33.5377212,6.261725 L28.1313134,11.7800422 C27.599092,12.2606911 27.3721481,13.0029755 27.542118,13.7071726 C27.7120879,14.4113697 28.2509045,14.9611951 28.941002,15.1346377 C29.6310995,15.3080804 30.3585217,15.0764997 30.8295469,14.5334043 L36.2359547,9.01653621 C36.5974623,8.65343308 36.8010391,8.15747129 36.8010391,7.63985517 C36.8010391,7.12223905 36.5974623,6.62627726 36.2359547,6.26317414 C35.4836176,5.52146684 34.290823,5.52082623 33.5377212,6.261725 L33.5377212,6.261725 Z" id="Path_870"></path>
            <path d="M21.401351,33.1026578 C20.3431295,33.106626 19.4860167,33.9806039 19.4813449,35.0604431 L19.4813449,38.9499293 C19.4542991,39.6668211 19.8136785,40.3413895 20.4179862,40.7080401 C21.0222939,41.0746907 21.7747276,41.0746907 22.3790353,40.7080401 C22.983343,40.3413895 23.3427224,39.6668211 23.3156767,38.9499293 L23.3156767,35.0604431 C23.301963,33.9867254 22.4535373,33.1190384 21.401351,33.1026578 Z" id="Path_871"></path>
            <path d="M11.9390722,28.3016638 L6.53266436,33.819981 C6.00044299,34.3006299 5.77349906,35.0429143 5.943469,35.7471114 C6.11343894,36.4513085 6.65225552,37.0011339 7.34235299,37.1745765 C8.03245047,37.3480192 8.75987267,37.1164385 9.23089785,36.5733431 L14.6373057,31.056475 C14.9988133,30.6933719 15.2023901,30.1974101 15.2023901,29.679794 C15.2023901,29.1621778 14.9988133,28.6662161 14.6373057,28.3031129 C13.8849686,27.5614056 12.692174,27.560765 11.9390722,28.3016638 L11.9390722,28.3016638 Z" id="Path_872"></path>
            <path d="M21.401351,0 C20.3431295,0.00396828916 19.4860167,0.877946174 19.4813449,1.95778534 L19.4813449,9.73675776 C19.4542991,10.4536495 19.8136785,11.1282179 20.4179862,11.4948685 C21.0222939,11.8615191 21.7747276,11.8615191 22.3790353,11.4948685 C22.983343,11.1282179 23.3427224,10.4536495 23.3156767,9.73675776 L23.3156767,1.95778534 C23.301963,0.884067656 22.4535373,0.0163806804 21.401351,0 Z" id="Path_873"></path>
            <path d="M9.23089785,6.261725 C8.47419663,5.5783485 7.32697353,5.61401947 6.61245045,6.34314123 C5.89792738,7.07226298 5.86297061,8.24292541 6.53266436,9.01508707 L11.9390722,14.5319552 C12.6957734,15.2153317 13.8429965,15.1796607 14.5575196,14.4505389 C15.2720427,13.7214172 15.3069994,12.5507548 14.6373057,11.7785931 L9.23089785,6.261725 Z" id="Path_874"></path>
          </g>
        </g>
        <text id="Sydney-Scientific-Fo" font-family="AvenirNext-Medium, Avenir Next" font-size="10" font-weight="400" letter-spacing="-0.166666667" fill="#FFFFFF">
          <tspan x="51" y="42">Sydney Scientific Foundation Ltd</tspan>
        </text>
        <text id="Foundation" font-family="AvenirNext-DemiBold, Avenir Next" font-size="30" font-weight="500" letter-spacing="-0.5" fill="#FFFFFF">
          <tspan x="49" y="30">Mass-screening</tspan>
        </text>
      </g>
    </g>
  </g>
</svg>
