<svg id="Layer_1" data-name="Layer 1" xmlns="http://www.w3.org/2000/svg" xmlns:xlink="http://www.w3.org/1999/xlink"
     viewBox="0 0 351.17 296.21"  width="250px" height="250px">
  <defs>
    <style>.cls-1 {
      fill: url(#linear-gradient);
    }

    .cls-2 {
      fill: url(#linear-gradient-2);
    }</style>
    <linearGradient id="linear-gradient" x1="5.7" y1="172.37" x2="356.87" y2="172.37" gradientUnits="userSpaceOnUse">
      <stop offset="0.41" stop-color="#f68a21"/>
      <stop offset="0.56" stop-color="#f89b1a"/>
      <stop offset="0.87" stop-color="#fcc708"/>
      <stop offset="1" stop-color="#fedc00"/>
    </linearGradient>
    <linearGradient id="linear-gradient-2" x1="34.7" y1="194.25" x2="330.9" y2="194.25" xlink:href="#linear-gradient"/>
  </defs>
  <path class="cls-1"
        d="M356.87,251.86c-3.1.2-6.21.56-9.31.56q-166,0-332.11,0H5.7V155.26H94.93c.46-3,.81-5.17,1.21-7.77h13.63l1.73,7.28h19.9c-1.86-4-3.19-6.77-4.52-9.58l-1.88.93,5.63-7.48c6.79-3.07,12.83-5.65,18.74-8.51,3.27-1.58,6.26-3.75,9.48-5.43,12.91-6.75,26.29-13.13,19.29-32.32,6.24,0,11-.35,15.57.36.73.12.69,5.08,1,7.91l-14.11,2.19c-2.09,6.41-.2,10.36,5.77,13.38,8.34,4.23,16.07,9.64,24.35,14A65.44,65.44,0,0,0,230,136.9l4,8.25c-1,2.62-2.17,5.56-3.7,9.46h21c.4-2.29.79-4.5,1.24-7.11H266l1.66,7.41h89.22ZM191.38,202.13c-5.85,0-11.26-.25-16.61.17-1.36.11-3.61,2.3-3.65,3.6-.31,9.53-.17,19.07-.17,28.58h20.43ZM121.5,237.94l-.06-1.49H14.09l0,1.49Zm227-70,.06-1.63H241.06V168Zm-226.92.21.06-1.62H14.22v1.62Zm119.76,70.5,0,1.4H348.51l0-1.4ZM29.15,204.4v23l1.79,1.94c2.26-1.79,6.19-3.36,6.47-5.42.86-6.28.31-12.75.31-19.48Zm48.49,0V229.8c3.79-2.29,8-3.5,8.19-5.2.79-6.55.32-13.26.32-20.22ZM259.05,228V205.07h-8V228Zm48.48,0V205.05h-7.9v23.26Zm-24.36,0V205.08h-7.89V228Zm48.36.39V204.54l-7.95.55v22.82ZM61.08,227.6V204.5h-7.5v23.1Zm48.7-23.67-7.58.93v23.2l7.58-.49ZM152,227.76v-23.7l-7.44.45v23.25Zm65.37,0V203c-3.31,1.34-7.47,2.11-7.57,3.23-.6,7.07-.31,14.23-.31,21.53ZM177.56,168v16.54h8.22V168Zm-148,8.74c-2.57,17-.6,19.87,7.7,15.56V176.73Zm48.11-.16v17.24l7.82-.6V176.57Zm181.16,17.09V176.54L251,177v16.63Zm40.69-16.81V194l7.78-.61V176.85ZM217.33,185V167.89h-7.79v16.69Zm114.29-8.54-8.05.78v16.75l8.05-.44Zm-48.68,17.17V176.91h-7.87v16.67Zm-130.85-26-7.78.4v16.34h7.78Zm-98.42,9v17l7.43-.37V176.64Zm48.18,17,7.77-.35v-17l-7.77.36Zm92-36.29,0-1.56H167.41l.06,1.56Zm-34.8,0,0-1.59h-26.7l0,1.59Zm43.37-1.78c0,.53,0,1.06,0,1.58h26.12l0-1.58Z"
        transform="translate(-5.7 -46.15)"/>
  <path class="cls-2"
        d="M175.77,46.15h14a15.64,15.64,0,0,0,2,.38A143.69,143.69,0,0,1,255,65.25C298.14,90,322.55,127.51,329.67,176.5c.52,3.58.83,7.19,1.23,10.79v14a15.17,15.17,0,0,0-.38,2,149.14,149.14,0,0,1-10.77,46.86c-22,54.76-76.12,91.69-135.11,92.22A148.07,148.07,0,0,1,123.86,330c-56.67-24.54-87.51-78.14-89.09-131.8A142.52,142.52,0,0,1,54.3,121.05c24.83-42.64,62.24-66.71,110.88-73.69C168.7,46.85,172.24,46.55,175.77,46.15ZM111.68,101.8,275.24,265.36c32.93-41.18,35.51-107.81-9.64-153.31C220.61,66.7,153.64,68.35,111.68,101.8ZM90.31,123.09A116,116,0,0,0,105.69,282c48.87,42.67,112.6,33.89,148.16,4.68Z"
        transform="translate(-5.7 -46.15)"/>
</svg>
