<svg id="Layer_1" data-name="Layer 1" xmlns="http://www.w3.org/2000/svg" xmlns:xlink="http://www.w3.org/1999/xlink"
     viewBox="0 0 364.3 373.79"  width="250px" height="250px">
  <defs>
    <style>.cls-1 {
      fill: #8f2100;
    }

    .cls-2 {
      fill: #b92d00;
    }

    .cls-3 {
      fill: #ae2f00;
    }

    .cls-4 {
      fill: #881f00;
    }

    .cls-5 {
      fill: #9a2500;
    }

    .cls-6 {
      fill: #a32700;
    }

    .cls-7 {
      fill: #7e1a00;
    }

    .cls-8 {
      fill: #b73900;
    }

    .cls-9 {
      fill: #a72f00;
    }

    .cls-10 {
      fill: #ac3500;
    }

    .cls-11 {
      fill: #c93f00;
    }

    .cls-12 {
      fill: #c64400;
    }

    .cls-13 {
      fill: #c13500;
    }

    .cls-14 {
      fill: #d24300;
    }

    .cls-15 {
      fill: #bf4300;
    }

    .cls-16 {
      fill: #cf4f00;
    }

    .cls-17 {
      fill: #c34f00;
    }

    .cls-18 {
      fill: #d84e00;
    }

    .cls-19 {
      fill: #db5600;
    }

    .cls-20 {
      fill: #d25900;
    }

    .cls-21 {
      fill: #df5800;
    }

    .cls-22 {
      fill: #da5e00;
    }

    .cls-23 {
      fill: #e36000;
    }

    .cls-24 {
      fill: #fd4000;
    }

    .cls-25 {
      fill: #e56900;
    }

    .cls-26 {
      fill: #fd7e00;
    }

    .cls-27 {
      fill: #fd9800;
    }

    .cls-28 {
      fill: url(#linear-gradient);
    }

    .cls-29 {
      fill: url(#linear-gradient-2);
    }

    .cls-30 {
      fill: url(#linear-gradient-3);
    }

    .cls-31 {
      fill: url(#linear-gradient-4);
    }

    .cls-32 {
      fill: url(#linear-gradient-5);
    }

    .cls-33 {
      fill: url(#linear-gradient-6);
    }

    .cls-34 {
      fill: url(#linear-gradient-7);
    }

    .cls-35 {
      fill: url(#linear-gradient-8);
    }</style>
    <linearGradient id="linear-gradient" x1="5.57" y1="269.92" x2="177.63" y2="269.92" gradientUnits="userSpaceOnUse">
      <stop offset="0.02" stop-color="#00aaa2"/>
      <stop offset="1" stop-color="#37b44a"/>
    </linearGradient>
    <linearGradient id="linear-gradient-2" x1="28.02" y1="265.37" x2="164.3" y2="265.37" xlink:href="#linear-gradient"/>
    <linearGradient id="linear-gradient-3" x1="35.55" y1="316.64" x2="54.23" y2="316.64" xlink:href="#linear-gradient"/>
    <linearGradient id="linear-gradient-4" x1="135.82" y1="218.24" x2="150.74" y2="218.24"
                    xlink:href="#linear-gradient"/>
    <linearGradient id="linear-gradient-5" x1="151.45" y1="105.92" x2="354.54" y2="105.92"
                    gradientUnits="userSpaceOnUse">
      <stop offset="0.41" stop-color="#37b44a"/>
      <stop offset="0.47" stop-color="#30b356"/>
      <stop offset="0.7" stop-color="#16ae7f"/>
      <stop offset="0.89" stop-color="#06ab99"/>
      <stop offset="1" stop-color="#00aaa2"/>
    </linearGradient>
    <linearGradient id="linear-gradient-6" x1="136.61" y1="198.26" x2="184.91" y2="198.26"
                    xlink:href="#linear-gradient-5"/>
    <linearGradient id="linear-gradient-7" x1="226.64" y1="44.56" x2="299.93" y2="44.56"
                    xlink:href="#linear-gradient-5"/>
    <linearGradient id="linear-gradient-8" x1="221.03" y1="180.1" x2="272.79" y2="180.1"
                    xlink:href="#linear-gradient-5"/>
  </defs>
  <g id="zh0PxQ.tif">
    <path class="cls-1"
          d="M168.15,80.39c.38-1.34.76-2.69,1.15-4,3-.28,3.16-.68,1.31-4l.6-2,.51-.84a.66.66,0,0,1,.05-.48l.55-.75h0l1.2-2.84q3-5.88,6.08-11.76c2.34,1.3,4.58,3.21,7.42,1.46.18-.11.63.35,1,.55l-1.81,2-7.05,2.62c1.05,2.7,2.62,5,2.63,7.23,0,3-2.35,4.2-5,4,0,2-.59,4.17.12,5.45,1.95,3.56-.16,5.43-1.8,7.73-.56.8-1.3,2.11-1.07,2.83.88,2.82,2.13,5.5,3.24,8.23q-.28,3-.59,6c.39,1.67.81,3.32,1.16,5a34,34,0,0,1,.55,3.48c.26,2.51.46,5,.68,7.55v1.33l-3.28,2.26c-2.6-3-3.47-3.13-4.89,0-1.05,2.36-1.24,5.2-1.77,7.85-.05.24.31.55.39.85q1.2,4.85,2.38,9.7l-.6.67-2.08.08q-1.62-6.41-3.23-12.8c.32-2.33.54-4.69,1-7s-.2-3.39-2.2-3.67c0-1.1-.09-2.21-.14-3.31l2.46-1.43-2.64-2.62c0-.88,0-1.75,0-2.63,3.33,0,3.56-2.86,3.85-5.45.35-3.17.06-6.49.79-9.52s.13-4.83-2-6.42c.06-.66.12-1.32.19-2l3.67,1.58.46-.42Z"/>
    <path class="cls-2"
          d="M191.47,180l-1.24-1.29c.41-2,2.92-3.25,1.25-5.91-2-3.15-1.27-5.82.6-8.88,1.26-2,4.39-3.22,3.32-6.68-.75-2.42-.12-3.51,2.2-3.56a26.46,26.46,0,0,0,3.49-.51c-.64,2.23-1.28,4.45-2,6.9,1,1.41,1.86,3.83,3.42,4.69,3.77,2.06,3.76,5.83,4.05,9.39.17,2.06,1,3,2.3,2.09a81.65,81.65,0,0,0,7.16-5.7c3.35-.88,6.66-2,10.05-2.57a10.88,10.88,0,0,0,7.9-4.76l3-1.39c-.07.5,0,1.25-.23,1.45-2.88,2.24-5.81,4.41-8.73,6.59l-9,2a41.27,41.27,0,0,0-5.17,2.95c-1.21.92-3.16,2.88-2.92,3.51.78,2.07,2.13,4.83,3.76,5.34,3,.94,4.44,3,6.06,5.56L219,190.59h-4.78c-.54-2.65-2.17-3.68-4.41-3.31-4,.67-6.78-1.42-8.92-4.56l6.93-4.92-.36-.76a18.33,18.33,0,0,0-3.18,1.45,10.46,10.46,0,0,1-11.06,1.12C192.78,179.41,192.07,179.87,191.47,180Z"/>
    <path class="cls-3"
          d="M201.09,153.19a26.46,26.46,0,0,1-3.49.51c-2.32.05-2.95,1.14-2.2,3.56,1.07,3.46-2.06,4.64-3.32,6.68-1.87,3.06-2.57,5.73-.6,8.88,1.67,2.66-.84,4-1.25,5.91l-3.54-4.08a49.09,49.09,0,0,0,.43-5.91c-.07-2.05,0-4.51-1-6s-1.28-2.26-.55-3.69l2.34-4.53,3.58-1.78-7.77-.88a7.65,7.65,0,0,1,.07-2.59c.84-2.05.28-5.32,3.52-5.44l3.6,4c.53,1.31,1,3.73,1.6,3.75,3.06.1,6.33,1.34,9.17-1.09l2.38.68-.6,2Z"/>
    <path class="cls-4"
          d="M206.48,24.42l6-3.47c.37,2.55,1.78,1.91,3.36,1.6,5.48-1.09,11.14-3.18,15.79,2.44a27.72,27.72,0,0,1-2.93,3.17,14.44,14.44,0,0,1-3.08,1.51c-4-.23-8,0-11.93-.86C211.05,28.27,207.86,27.9,206.48,24.42Z"/>
    <path class="cls-5"
          d="M187.93,55.71c-.33-.2-.78-.66-1-.55-2.84,1.75-5.08-.16-7.42-1.46l5.34-8,2.34.46-.62-2.52,0,0,1.29.11c0,2.6,1.65,2.7,3.27,2.65s2.9.23,3.68,2.38c.39,1.08,2.1,1.57,3.22,2.33l-.59,1.33c-.94.16-2.41,0-2.73.55C193.09,56,190.37,55.31,187.93,55.71Z"/>
    <path class="cls-6"
          d="M187.92,154.53l-2.34,4.53c-.73,1.43-.39,2.27.55,3.69s.92,3.94,1,6a49.09,49.09,0,0,1-.43,5.91l-8.33-12.13c.18-1.84.37-3.68.57-5.7l-3,1.08h0l0-2c2.6-.45,5.19-1,7.79-1.31A32.22,32.22,0,0,1,187.92,154.53Z"/>
    <path class="cls-6"
          d="M191.47,180c.6-.15,1.31-.61,1.78-.41a10.46,10.46,0,0,0,11.06-1.12,18.33,18.33,0,0,1,3.18-1.45l.36.76-6.93,4.92c2.14,3.14,4.89,5.23,8.92,4.56,2.24-.37,3.87.66,4.41,3.31l-.6.56H202.9c-3.1-2.82-6.22-5.61-9.28-8.48A23.55,23.55,0,0,1,191.47,180Z"/>
    <path class="cls-7"
          d="M231.59,25c-4.65-5.62-10.31-3.53-15.79-2.44-1.58.31-3,.95-3.36-1.6l4.8-3.21h17.93c0,2.27,1,4.76-1.14,6.63-.19.17,0,.84-.05,1.28Z"/>
    <path class="cls-7"
          d="M206.48,24.42c1.38,3.48,4.57,3.85,7.17,4.39,3.89.83,7.95.63,11.93.86,3.34,1.11,6.74,2.06,10,3.42,1.61.67,4.16.18,4.38,3.28l-2.36-.11-6-2L222,32.38,211.27,31c-.61-.4-1.23-.81-1.85-1.2l-2.36-1.5L204,26.92Z"/>
    <path class="cls-6"
          d="M171.17,140.51l.6-.67c.79.74,1.6,1.48,2.37,2.24,1,1,2,2.07,3,3.1l1.19,1.33-.29,1,.89-.32,3.58,4.68-7.77,2-.36-6.66-2.64,1.34h0l-.57-1.33a.6.6,0,0,1-.09-.49c-.21-.71-.43-1.42-.64-2.13l0,0-.56-.76c-.18-.67-.36-1.33-.55-2Z"/>
    <path class="cls-4"
          d="M167,85.75c2.09,1.59,2.68,3.46,2,6.42s-.44,6.35-.79,9.52c-.29,2.59-.52,5.44-3.85,5.45q.9-9.39,1.78-18.8l.31-.58Z"/>
    <path class="cls-5"
          d="M194.52,34.39l1-.8.82-.71,2.94-2.68a12,12,0,0,0,.46,1.74c2.68-.42,2.57,2,3.16,3.73-3.19,4-7.81,4-12,5.34l0-2.72c.82-.87,1.65-1.74,2.47-2.62Z"/>
    <path class="cls-1"
          d="M202.88,35.67c-.59-1.71-.48-4.15-3.16-3.73a12,12,0,0,1-.46-1.74l4.7-3.28,3.1,1.41C208.16,32,206.47,35,202.88,35.67Z"/>
    <path class="cls-1"
          d="M174.77,153.85l7.77-2h1.19l7.77.88-3.58,1.78a32.22,32.22,0,0,0-4.17,0c-2.6.34-5.19.86-7.79,1.31l-1.17,0c-.18-.45-.36-.9-.55-1.35Z"/>
    <path class="cls-4"
          d="M164.64,117.13c2,.28,2.63,1.47,2.2,3.67s-.66,4.66-1,7C165.45,124.24,165.05,120.68,164.64,117.13Z"/>
    <path class="cls-5" d="M174.77,153.85l-.53.65-2.47-6,2.64-1.34Z"/>
    <path class="cls-7" d="M190.88,38.29l0,2.72v1.34l-3,1.32-1.29-.11Z"/>
    <path class="cls-4" d="M164.32,109.77l2.64,2.62-2.46,1.43Z"/>
    <path class="cls-5" d="M175.92,157.9l3-1.08c-.2,2-.39,3.86-.57,5.7Q177.15,160.21,175.92,157.9Z"/>
    <path class="cls-4" d="M168.15,80.39l3.15,4.54-.46.42-3.67-1.58Z"/>
    <path class="cls-4" d="M170.61,72.41c1.85,3.27,1.72,3.67-1.31,4C169.73,75,170.17,73.73,170.61,72.41Z"/>
    <path class="cls-7" d="M186.61,43.6l.62,2.52-2.34-.46Z"/>
    <path class="cls-4" d="M173.47,65.46l-1.2,2.84Z"/>
    <path class="cls-5" d="M171.17,140.51l-1.77,1.33c-.1-.42-.21-.83-.31-1.25Z"/>
    <path class="cls-5" d="M174.79,155.85l1.17,0,0,2Z"/>
    <path class="cls-5" d="M170.46,144.57c.21.71.43,1.42.64,2.13C170.89,146,170.67,145.28,170.46,144.57Z"/>
    <path class="cls-1" d="M194.52,34.39l-1.17,1.28Z"/>
    <path class="cls-5" d="M171.19,147.19l.57,1.33Z"/>
    <path class="cls-5" d="M170,143.84l.56.76Z"/>
    <path class="cls-7" d="M166.39,87.76l-.31.58C166.19,88.15,166.29,88,166.39,87.76Z"/>
    <path class="cls-4" d="M171.72,69.54l-.51.84Z"/>
    <path class="cls-4" d="M172.32,68.31l-.55.75Z"/>
    <path class="cls-1" d="M196.32,32.88l-.82.71Z"/>
    <path class="cls-7"
          d="M289,17.74l5.54,3.8c-.54.45-1.2,1.4-1.59,1.28-2.63-.79-4.37,1.31-6.46,2.22-.54.24-1.11.41-1.67.61-2.19-.63-4.61-2.2-6.51-1.63s-3,3.36-4.85,5.6V25A21.46,21.46,0,0,0,270,23.42c-2.36-.61-2.76.06-2,2.9v2l-1.79-.68-.59-.68c-1.32-4.31-1.8-4-5.63-3.72-6.08.42-12.2-.14-18.3-.28V17.75Z"/>
    <path class="cls-8"
          d="M213.65,191.15l.6-.56h25.11a22.84,22.84,0,0,0,4.61-.08c3.79-.8,8.28,0,10.43-5.28.91.47,1.81.85,2.64,1.38,2.61,1.65,4.68,1.76,6.38-1.67.84-1.71,2.45-2.86,4.59-1.88.57.26,1.46-.31,2.2-.52a30.77,30.77,0,0,1,4.5-1.25c3.3-.4,6.62-.56,9.76-.81l.91-5.76,1.15-.23c-.21,3.28.87,5.07,3.72,4.78-1.07.61-2.16,1.18-3.2,1.85a14.89,14.89,0,0,0-1.65,1.45l-4.75,2.07c-4.18-1.88-7.61-1-10.13,2.93-1.45,2.25-3,3.38-5.62,3.1a29.17,29.17,0,0,0-5.78.48Z"/>
    <path class="cls-9"
          d="M305.85,188.31l-2.57,2.86-7.09,0a24.14,24.14,0,0,0-.71-2.38c-.93-2.3-1.9-4.59-2.86-6.88,2.08,2.44,4.58,2.16,7.16,1.35a18.64,18.64,0,0,1,3.29,1.87A26.16,26.16,0,0,1,305.85,188.31Z"/>
    <path class="cls-4"
          d="M241.76,17.75V23c-1.07,1.29-3.86.26-3.59,3.34l1,5.23c-2.49-1.77-4.38-3.16-5.19-5.89,0-.44-.14-1.11.05-1.28,2.11-1.87,1.1-4.36,1.14-6.63Z"/>
    <path class="cls-10"
          d="M259.12,191.14a29.17,29.17,0,0,1,5.78-.48c2.59.28,4.17-.85,5.62-3.1,2.52-3.93,6-4.81,10.13-2.93-.49.59-.95,1.22-1.47,1.78-1.5,1.59-3,3.16-4.54,4.74Z"/>
    <path class="cls-9"
          d="M294.39,191.15H289a9,9,0,0,1-2.37-7.24h0c4.18-1.32,4.2-1.33,6.14,3.08C293.36,188.35,293.85,189.76,294.39,191.15Z"/>
    <path class="cls-5"
          d="M294.39,191.15c-.54-1.39-1-2.8-1.63-4.16-1.94-4.41-2-4.4-6.14-3.08l-1.22-1.35a14.89,14.89,0,0,1,1.65-1.45c1-.67,2.13-1.24,3.2-1.85l2.32-2,1.24.7c-.39,1.32-.79,2.65-1.19,4,1,2.29,1.93,4.58,2.86,6.88a24.14,24.14,0,0,1,.71,2.38Z"/>
    <path class="cls-4"
          d="M285.4,182.56l1.22,1.35h0l-1.8,2-7.16,5.24h-3c1.52-1.58,3-3.15,4.54-4.74.52-.56,1-1.19,1.47-1.78Z"/>
    <path class="cls-9" d="M277.66,191.14l7.16-5.24v5.25Z"/>
    <path class="cls-5" d="M284.81,191.15V185.9l1.8-2a9,9,0,0,0,2.37,7.24Z"/>
    <path class="cls-6"
          d="M187.93,55.71c2.44-.4,5.16.27,6.84-2.8.32-.58,1.79-.39,2.73-.55.35.8.71,1.6,1,2.2l3.22-2.21L198.09,57l-.94-.25.35,2.26c0,.44,0,.89,0,1.33l-1.18,2c-4.06-.06-5.31,3.64-7,6.65a2.8,2.8,0,0,0,.06,2.23c1,1.79,2.23,3.44,3.37,5.14,0,1.69.57,4-.19,4.95-2.4,2.89-2,5.08.47,7.11l-2.68,2.63a32,32,0,0,1-4,4c-1.34,1-1.72,1.72-.69,3.11.55.74,1.12,1.47,1.75,2.3-.57.73-.92,1.57-1.48,1.83-2.13,1-2.31,2.42-1.64,4.68a10.05,10.05,0,0,1,.38,5.16,91.06,91.06,0,0,1-3.5,9.1l-1-3.44,1.19-5.34,1.09-.84-1.09-1.16c-.08-3.94-1.29-7.09-4.78-8.69q.3-3,.59-6c1.27-3,2-6.58,3.93-8.94,2.33-2.88,3.46-5.59,2.74-9.31,0-.25.24-.57.33-.78l3.78-1c-1-.81-1.24-1-1.52-1.3-2.88-2.63-3-4.41-.23-7,1.8-1.71,3-3.68,2.16-6.33-.4-1.24-1.46-2.23-2.22-3.33Zm-7.85,37.41.45,1c4.15.28,5.44-.69,5.19-4.63Z"/>
    <path class="cls-9"
          d="M180.15,117.8l1,3.44a91.06,91.06,0,0,0,3.5-9.1,10.05,10.05,0,0,0-.38-5.16c-.67-2.26-.49-3.73,1.64-4.68.56-.26.91-1.1,1.48-1.83-.63-.83-1.2-1.56-1.75-2.3-1-1.39-.65-2.16.69-3.11a32,32,0,0,0,4-4,70.58,70.58,0,0,1-.08,8.61,135.87,135.87,0,0,1-2.39,13.78c-.64,2.8-2.55,5.37-2.7,8.12-.12,2.25,2.25,4.5.62,7.2a1.41,1.41,0,0,0,.54,1.09c3.25,1.14,2.17,3.67,1.74,6.12-.19,1.15-.32,2.74.23,3.54,1.44,2.1.41,3.16-1,4.29-3.24.12-2.68,3.39-3.52,5.44a7.65,7.65,0,0,0-.07,2.59h-1.19L179,147.18l-.6-.67-1.19-1.33c-2.42-5.35,1.16-9.55,2.21-14.4l-2.16-1.72c.07-.43.06-.81.15-.84,4.65-1.68,3.55-4.77,1.63-8.1-.14-.24,0-.66-.06-1V117.8Z"/>
    <path class="cls-5"
          d="M186.12,57.7c.76,1.1,1.82,2.09,2.22,3.33.85,2.65-.36,4.62-2.16,6.33-2.75,2.63-2.65,4.41.23,7,.28.25.57.49,1.52,1.3l-3.78,1c-.09.21-.38.53-.33.78.72,3.72-.41,6.43-2.74,9.31-1.92,2.36-2.66,5.91-3.93,8.94-1.11-2.73-2.36-5.41-3.24-8.23-.23-.72.51-2,1.07-2.83,1.64-2.3,3.75-4.17,1.8-7.73-.71-1.28-.12-3.45-.12-5.45,2.69.22,5.06-1,5-4,0-2.27-1.58-4.53-2.63-7.23Z"/>
    <path class="cls-5"
          d="M178.94,119.13c0,.33-.08.75.06,1,1.92,3.33,3,6.42-1.63,8.1-.09,0-.08.41-.15.84l2.16,1.72c-1,4.85-4.63,9.05-2.21,14.4-1-1-2-2.08-3-3.1-.77-.76-1.58-1.5-2.37-2.24q-1.19-4.84-2.38-9.7c-.08-.3-.44-.61-.39-.85.53-2.65.72-5.49,1.77-7.85,1.42-3.18,2.29-3,4.89,0Z"/>
    <path class="cls-5"
          d="M180.15,117.8H179c-.22-2.52-.42-5-.68-7.55a34,34,0,0,0-.55-3.48c-.35-1.68-.77-3.33-1.16-5,3.49,1.6,4.7,4.75,4.78,8.69v2Z"/>
    <path class="cls-11"
          d="M204.07,151.19l-2.38-.68,3.58-2.66,2.9-.21c-.68-4.68-1.15-8.94,1.88-12.48l4.19,2a6.47,6.47,0,0,0,3.24,6.15c2.87,1.92,5.28,5.33,9.28,3.32.2-.1.54.24.83.29,1.93.32,3.86.62,5.79.92.05,2.24-.87,2.62-2.82,2.53a17.47,17.47,0,0,0-6.13,1.28c-.36.11-.65,2.43-.38,2.61,3.73,2.43,5.29,7.87,9.94,9a10.88,10.88,0,0,1-7.9,4.76c-3.39.54-6.7,1.69-10.05,2.57l-1.78-3.2-1.21-2.15-3-4-.59-.65-2.7-4.77c-1-1.81-1.12-3.1,1.3-3.28a9.74,9.74,0,0,0,2.42-.82l-.19-1.1Z"/>
    <path class="cls-12"
          d="M228,169.88c2.92-2.18,5.85-4.35,8.73-6.59.26-.2.16-.95.24-1.45.58-1,1.11-2,1.75-2.9,1.18-1.72,2.42-3.39,3.64-5.08l.59,0,0,1.37c-.35.91-.47,2.09-1.07,2.68-2.3,2.26-1.85,4.68-.51,7.13,1.65,3,3.43,5.92,5.15,8.87l1.8,7.34-5.4,3.34-1.78,1.33-6.78,2.5-.59-1,3-1.7c-2.3-2.75-4.17-4.59-7-4.45Q228.89,175.55,228,169.88Z"/>
    <path class="cls-13"
          d="M229.79,181.24c2.86-.14,4.73,1.7,7,4.45l-3,1.7.59,1,6.78-2.5-1.8,4.68H219l1.73-1.33c-1.62-2.52-3.09-4.62-6.06-5.56-1.63-.51-3-3.27-3.76-5.34-.24-.63,1.71-2.59,2.92-3.51A41.27,41.27,0,0,1,219,171.9c1,2.54,1.63,5.36,3,7.57C224,182.43,226.76,183.12,229.79,181.24Z"/>
    <path class="cls-14"
          d="M242.36,153.86c-1.22,1.69-2.46,3.36-3.64,5.08-.64.92-1.17,1.93-1.75,2.9l-3,1.39c-4.65-1.09-6.21-6.53-9.94-9-.27-.18,0-2.5.38-2.61a17.47,17.47,0,0,1,6.13-1.28c1.95.09,2.87-.29,2.82-2.53l5.39-2.67h2.39c-.46.67-.79,1.59-1.39,2-1.45.9-3,1.55-4.71,2.37C236.93,152.89,239.79,153,242.36,153.86Z"/>
    <path class="cls-13"
          d="M209.47,160.54c.2.21.39.43.59.65a12,12,0,0,0,.92,3.22c.33.54,1.36.55,2.07.8l1.21,2.15,1.78,3.2a81.65,81.65,0,0,1-7.16,5.7c-1.34.86-2.13,0-2.3-2.09-.29-3.56-.28-7.33-4.05-9.39-1.56-.86-2.44-3.28-3.42-4.69.7-2.45,1.34-4.67,2-6.9h2.38C205,156.1,206.25,159.33,209.47,160.54Z"/>
    <path class="cls-11"
          d="M229.79,181.24c-3,1.88-5.83,1.19-7.72-1.77-1.41-2.21-2-5-3-7.57l9-2Q228.9,175.57,229.79,181.24Z"/>
    <path class="cls-10"
          d="M187.32,143.84c1.36-1.13,2.39-2.19,1-4.29-.55-.8-.42-2.39-.23-3.54.43-2.45,1.51-5-1.74-6.12a1.41,1.41,0,0,1-.54-1.09c1.63-2.7-.74-5-.62-7.2.15-2.75,2.06-5.32,2.7-8.12a135.87,135.87,0,0,0,2.39-13.78,70.58,70.58,0,0,0,.08-8.61L193,88.46c-2.47-2-2.87-4.22-.47-7.11.76-.93.16-3.26.19-4.95h1.79c.35,4.53-1.55,9.72,3.38,13.1a24.51,24.51,0,0,1,.87-3.75,14.67,14.67,0,0,1,1.73-2.67c-.38,2.15-.87,4.29-1.13,6.46-.37,3,1.14,5.25,3.52,5.56l.61,2.67c-.41,1.94-1,1-1.72.19-.9-1-1.89-2-3.26-3.46-.46,1.71-.81,2.7-1,3.73-1,5.55,1.59,11.56-1.79,16.8,0,.07,0,.22,0,.33-.69,4.78-1.49,9.55-2,14.36a9.88,9.88,0,0,0,.87,4.48,61.18,61.18,0,0,0,2.85,5.5c-1.53.22-3.06,0-3.42.58-.88,1.48-1.16,3.39-1.79,5.08a20.33,20.33,0,0,1-1.3,2.49Z"/>
    <path class="cls-8"
          d="M190.92,147.85a20.33,20.33,0,0,0,1.3-2.49c.63-1.69.91-3.6,1.79-5.08.36-.61,1.89-.36,3.42-.58a61.18,61.18,0,0,1-2.85-5.5,9.88,9.88,0,0,1-.87-4.48c.51-4.81,1.31-9.58,2-14.36,0-.11,0-.26,0-.33,3.38-5.24.82-11.25,1.79-16.8.18-1,.53-2,1-3.73,1.37,1.44,2.36,2.41,3.26,3.46.71.83,1.31,1.75,1.72-.19l4.26,4.32h-3.41l.61.6c-1.38,2.58-3.3,5-4,7.78-1.25,4.91-1.77,10.06-2.54,15.12,0,.31.4.74.65,1.08l6.36,8.86c-3.93,2.93-4.12,5.94-1.09,9.68a9,9,0,0,1,1,2.64l-3.58,2.66c-2.84,2.43-6.11,1.19-9.17,1.09C192,151.58,191.45,149.16,190.92,147.85Z"/>
    <path class="cls-2"
          d="M209.47,160.54c-3.22-1.21-4.45-4.44-6-7.35l.6-2,6.23-.62.19,1.1a9.74,9.74,0,0,1-2.42.82c-2.42.18-2.33,1.47-1.3,3.28Z"/>
    <path class="cls-5"
          d="M234,25.66c.81,2.73,2.7,4.12,5.19,5.89-.45-2.37-.73-3.8-1-5.23,3.2-.44,6.38-1.11,9.59-1.24,1.67-.07,3.36,1,5.08,1.18,4.27.37,8.56.5,12.85.72l.59.68c-3.25.53-6.43,1.78-9.82.18-1.06-.51-2.61.29-3.94.49-2.82.23-5.66.3-8.45.77-1,.17-1.87,1.28-2.8,2l2.28,3.27,3.59,2,2.39.67,3.6,2v2L246.51,39l-3,0L240,36.37c-.22-3.1-2.77-2.61-4.38-3.28-3.26-1.36-6.66-2.31-10-3.42a14.44,14.44,0,0,0,3.08-1.51A27.72,27.72,0,0,0,231.59,25Z"/>
    <path class="cls-6"
          d="M187.92,43.67l3-1.32,11.5-2.82L201.07,45l-3,6c-1.12-.76-2.83-1.25-3.22-2.33-.78-2.15-2-2.43-3.68-2.38S187.89,46.27,187.92,43.67Z"/>
    <path class="cls-1"
          d="M198.09,51c1-2,2-4,3-6h1.2l-1,4.49L203.48,51l-1.79,1.32-3.22,2.21c-.26-.6-.62-1.4-1-2.2C197.69,51.92,197.89,51.47,198.09,51Z"/>
    <path class="cls-6"
          d="M203.48,51l-2.23-1.52c.36-1.57.69-3,1-4.49l1.21-3.33c2.4-.19,4.75-2.74,7.19-.14.55-.68,1.65-1.52,1.54-2-.53-2.51.6-2.73,2.41-3.31,2.58-.84,4.94-2.52,7.39-3.83l9.58,1.9c-1.15.47-2.29,1.28-3.44,1.32-2.73.08-4.53,1.76-6.06,3.88A26.61,26.61,0,0,0,220,43.71c-.34.73-.88,1.63-.74,2.29.11.48,1.17.84,1.85,1,1.5.32,3,.48,4.55.71h0L220.83,49c-.87.14-1.74.31-2.61.4-2.92.33-5.84.62-8.76.93l-1-1.21-.76,1.21-3,.67Z"/>
    <path class="cls-3"
          d="M225.62,47.7c-1.52-.23-3.05-.39-4.55-.71-.68-.15-1.74-.51-1.85-1-.14-.66.4-1.56.74-2.29a26.61,26.61,0,0,1,2.14-4.23c1.53-2.12,3.33-3.8,6.06-3.88,1.15,0,2.29-.85,3.44-1.32l6,2a18.27,18.27,0,0,1-2.56,1.4c-2.92,1.08-5.64,4.45-5.85,7.36v1.34l-2.37,1.32Z"/>
    <path class="cls-5"
          d="M222,32.38c-2.45,1.31-4.81,3-7.39,3.83-1.81.58-2.94.8-2.41,3.31.11.51-1,1.35-1.54,2-2.44-2.6-4.79,0-7.19.14,1-1.49,1.86-3,2.91-4.44.79-1,1.66-2.49,2.69-2.73,2-.45,2.26-1.71,2.18-3.49Z"/>
    <path class="cls-13"
          d="M229.19,45c.21-2.91,2.93-6.28,5.85-7.36a18.27,18.27,0,0,0,2.56-1.4l2.36.11L243.55,39c-.25.57-.4,1.51-.78,1.64C238.28,42.21,234.27,45.71,229.19,45Z"/>
    <path class="cls-4"
          d="M211.27,31c.08,1.78-.18,3-2.18,3.49-1,.24-1.9,1.68-2.69,2.73-1.05,1.4-1.94,3-2.91,4.44L202.28,45h-1.21c.46-1.84.91-3.68,1.35-5.48l-11.5,2.82c0-.45,0-.89,0-1.34,4.16-1.3,8.78-1.32,12-5.34,3.59-.71,5.28-3.66,4.18-7.34l2.36,1.5C210,30.22,210.66,30.63,211.27,31Z"/>
    <path class="cls-5" d="M178.36,146.51l.6.67-.89.32Z"/>
    <path class="cls-8"
          d="M335.7,144.52l-1.23,2.66c-2.4-.48-4.8-.9-7.18-1.46a36.76,36.76,0,0,1-3.58-1.21l-.6-2c3-.68,3.83-2.19,3-5.34v-1.34a49.52,49.52,0,0,0,.45-5.27c-.1-5.31-.3-10.63-.57-15.93,0-.66-.84-1.22-1.08-1.91-.58-1.73-1.91-4.56-1.4-5.08,2.51-2.58,1.3-6,2.13-8.82.53-1.85.72-3.82,1.07-5.73l4.18-1.34c-.08.32-.08.79-.26.92-1.63,1.12-3.17,2.11-2.72,4.82.4,2.43,1.42,3.73,3.59,4.4,1.12.34,2,1.67,3,2.55l1.69,4.23-2.46,3,5.06,1.73c.13,1.2.31,2.81.5,4.43-1.65.55-4.38-.4-4.12,3,.23,3-1.2,3.86-3.6,4,.85,3,1.24,5.64-1.92,7.14l4.3,3c-3.08,1.46-4,3.26-3.41,6.15C331.19,144.45,333.23,144.78,335.7,144.52Z"/>
    <path class="cls-2"
          d="M323.71,144.51a36.76,36.76,0,0,0,3.58,1.21c2.38.56,4.78,1,7.18,1.46-2.22,5.11-4,10.56-6.76,15.26-3.26,5.51-7.4,10.38-11.15,15.53-.74-1.46-2.42-3.48-2-4.27a19.5,19.5,0,0,1,4.72-6.12c1.13-1,1.61-1.53,1.2-3.11a22.13,22.13,0,0,1-.33-3.94c-2.06-1.47-4-3.26-6.23-4.19-.61-.25-2.47,1.84-3.1,3.23-2.84,6.28-7.88,9.87-12.8,13.66-.21-.67-.41-1.35-.62-2,1.75-1.75,3.38-3.66,5.26-5.21a23.64,23.64,0,0,0,7.43-10.36c1-2.78.54-5.34-1.86-7.15-.21-.87-.41-1.75-.62-2.63l3.56,2,1.21,3.33c.84,4.74,5.17,3.34,7.36,5.75l1-3.77c.37.85.74,1.7,1.16,2.64,2.33-.67,4.62-1.25,6.85-2,.61-.22,1.45-1.15,1.42-1.69-.06-.8-.75-2.17-1.25-2.21C325.79,149.62,324.83,147,323.71,144.51Z"/>
    <path class="cls-6"
          d="M308.64,31.7l9.91,10.54-4.29,3.2c-3.27-.71-3.25-.71-3.76,3.72a9.59,9.59,0,0,1-.56,1.85h-.58c0-1.33,0-2.66,0-4s0-2.67,0-4c0-5.46-.28-5.86-5.21-6.76-3.37-.61-6.88-.74-8.42-5.18-.15-.44-1.57-.54-2.37-.43a4.83,4.83,0,0,0-2.75,1.09c-1.9,2-5.7,2.23-5.17,6.6,0,.22,0,.44,0,.66h-1.2a13,13,0,0,1,0-1.65c.4-2.85-.57-4.4-3.21-3.64a59.88,59.88,0,0,0-6.35,2.63c-.85-5.67-.65-6.17,4.61-6.66,1.8-.17,3.69.84,5.54,1.3,0,.23,0,.45,0,.67l.74,1L286,31l0-1.32c1.91-.39,3.84-.7,5.73-1.18,2.86-.73,5.6-1.08,8,1.41,2.15,2.23,4.19,2,6.09-.44l1.72,1.47Z"/>
    <path class="cls-10"
          d="M335.7,144.52c-2.47.26-4.51-.07-5.19-3.44-.59-2.89.33-4.69,3.41-6.15l-4.3-3c3.16-1.5,2.77-4.19,1.92-7.14,2.4-.18,3.83-1,3.6-4-.26-3.37,2.47-2.42,4.12-3h2.11A81.66,81.66,0,0,1,335.7,144.52Z"/>
    <path class="cls-13"
          d="M320.11,160.53a22.13,22.13,0,0,0,.33,3.94c.41,1.58-.07,2.12-1.2,3.11a19.5,19.5,0,0,0-4.72,6.12c-.38.79,1.3,2.81,2,4.27-.38.43-.75.87-1.12,1.3-.38,0-.93.29-1.13.1-2.9-2.79-6.24-2.9-9.74-2.13h-2.4c1.4-.9,2.83-1.72,4.17-2.71,1-.75,2.82-1.85,2.73-2.54-.49-3.77,2.4-4.22,4.07-5.85,1.39-1.36,2.71-2.82,4.18-4.07A15.36,15.36,0,0,1,320.11,160.53Z"/>
    <path class="cls-2"
          d="M323.7,49c.6.9,1.19,1.81,1.79,2.72l.42.57Q329,58,332,63.73l-7.08,2.66a22.63,22.63,0,0,0,.34-2.94c0-1.58-.19-3.3-2.19-3-2.32.29-4-.37-4.84-3-.47-1.49-1.12-2.92-1.68-4.37,2.76.23,4.7-1.35,6.39-3.55C323.1,49.25,323.43,49.18,323.7,49Z"/>
    <path class="cls-3"
          d="M323.7,49c-.27.15-.6.22-.78.45-1.69,2.2-3.63,3.78-6.39,3.55l-6.59-2a9.59,9.59,0,0,0,.56-1.85c.51-4.43.49-4.43,3.76-3.72l4.29-3.2,1,1a.88.88,0,0,0,.3.36Z"/>
    <path class="cls-3"
          d="M304.57,177.24c3.5-.77,6.84-.66,9.74,2.13.2.19.75-.05,1.13-.1l-9.59,9a26.82,26.82,0,0,0-2.78-3.19,18.64,18.64,0,0,0-3.29-1.87C302.29,182.15,304.57,180.83,304.57,177.24Z"/>
    <path class="cls-3"
          d="M324.9,66.39,332,63.73q1.54,3.71,3.07,7.4c-.88.42-1.75,1.19-2.63,1.2-2,0-3.51.28-3.43,3.17,0,.5-1.09,1-1.68,1.58-.39-1.42-.38-3.46-1.23-4.14C323.61,71,323.76,68.91,324.9,66.39Z"/>
    <path class="cls-6"
          d="M330.88,91.75l-4.18,1.34-4.2,1.32L320.29,94l-.07-1,5.87-2.62c2.89-.61,5.85-1.1,7.2-4.67l4.76-4.67,1.77,8.07c-1.76.32-3.54.58-5.3,1a17.94,17.94,0,0,0-2.45,1Z"/>
    <path class="cls-5"
          d="M305.85,29.46c-1.9,2.43-3.94,2.67-6.09.44-2.39-2.49-5.13-2.14-8-1.41-1.89.48-3.82.79-5.73,1.18-.15-1.61.2-2.35,1.91-2.83a84.77,84.77,0,0,0,9.41-3.78Z"/>
    <path class="cls-3"
          d="M340.45,117.8h-1.19c-.19-1.62-.37-3.23-.5-4.43l-5.06-1.73,2.46-3-1.69-4.23h1.79l4.79,2.67.47,7.29-.06,2.07Z"/>
    <path class="cls-9"
          d="M327.31,77.08C327.9,76.55,329,76,329,75.5c-.08-2.89,1.41-3.15,3.43-3.17.88,0,1.75-.78,2.63-1.2l2.37,7.29c-2.07-.77-4.11-1.26-5.95.66C330,78.55,327.09,81.91,327.31,77.08Z"/>
    <path class="cls-3"
          d="M332.07,91.08a17.94,17.94,0,0,1,2.45-1c1.76-.4,3.54-.66,5.3-1q.93,8.32,1.84,16.64h-.6c-.25-2,.14-4.75-.87-5.72-1.78-1.71-1.24-2.57-.33-3.39l-4.19-2.24C335.18,92.37,334.32,90.79,332.07,91.08Z"/>
    <path class="cls-4"
          d="M297.36,23.06A84.77,84.77,0,0,1,288,26.84c-1.71.48-2.06,1.22-1.91,2.83L286,31l-1.18.67c0-.22,0-.44,0-.67V25.65c.56-.2,1.13-.37,1.67-.61,2.09-.91,3.83-3,6.46-2.22.39.12,1.05-.83,1.59-1.28Z"/>
    <path class="cls-10"
          d="M331.47,79.08c1.84-1.92,3.88-1.43,5.95-.66l0,0c0,.41,0,.83,0,1.24l.6,1.38-4.76,4.67C330.55,84.25,331.74,81.42,331.47,79.08Z"/>
    <path class="cls-10" d="M341.06,105.78h.6c-.05,2.87-.09,5.75-.14,8.62q-.22-3.64-.47-7.29Z"/>
    <path class="cls-8" d="M340.45,117.8l1-1.32-.09,1.31Z"/>
    <path class="cls-9" d="M337.45,79.7c0-.41,0-.83,0-1.24C337.44,78.87,337.45,79.29,337.45,79.7Z"/>
    <path class="cls-5" d="M308.64,31.7l-1.07-.77Z"/>
    <path class="cls-3" d="M325.91,52.32l-.42-.57Z"/>
    <path class="cls-6" d="M319.85,43.64a.88.88,0,0,1-.3-.36l.25.08Z"/>
    <path class="cls-1"
          d="M284.82,25.65V31c-1.85-.46-3.74-1.47-5.54-1.3-5.26.49-5.46,1-4.61,6.66,0,.66,0,1.31,0,2l-.63.69-1.8-3.33c-.59-.9-1.19-1.79-1.78-2.68l-.61-2c.05-1.44.15-2.92-1.8-2.71h0v-2L273.46,25v4.64c1.83-2.24,3.06-5.05,4.85-5.6S282.63,25,284.82,25.65Z"/>
    <path class="cls-1"
          d="M265.69,27c-4.29-.22-8.58-.35-12.85-.72-1.72-.14-3.41-1.25-5.08-1.18-3.21.13-6.39.8-9.59,1.24-.27-3.08,2.52-2.05,3.59-3.34,6.1.14,12.22.7,18.3.28C263.89,23,264.37,22.67,265.69,27Z"/>
    <path class="cls-6"
          d="M252.52,28.33c1.33-.2,2.88-1,3.94-.49,3.39,1.6,6.57.35,9.82-.18l1.79.68h0l1.2,2.67c-2.85-.22-5.72-.27-8.54-.72S255.25,29,252.52,28.33Z"/>
    <path class="cls-4" d="M273.46,25l-5.39,1.34c-.8-2.84-.4-3.51,2-2.9A21.46,21.46,0,0,1,273.46,25Z"/>
    <path class="cls-15"
          d="M239.36,190.58l1.8-4.68,1.78-1.33c2.33.64,6.7-2,7.79-4.67,3.54-3.69,5.71-4.44,6.84-2.31-1.65.57-4.08.75-3.07,3.61s2.83.9,4.26.23c1.81-.85,3.53-2,5.36-2.74a56,56,0,0,1,5.39-1.68,15.17,15.17,0,0,1,3.77-.43c2.51-.22,5-.45,7.5-.87,2-.34,3.9-.9,3.52-4.1-.14-1.14.53-2.4.92-4,2.4,2.44,4.66,3.51,7.38,2.25,1,.89,2,1.78,3,2.68l-3,4.64-2.32,2c-2.85.29-3.93-1.5-3.72-4.78l-1.15.23-.91,5.76c-3.14.25-6.46.41-9.76.81a30.77,30.77,0,0,0-4.5,1.25c-.74.21-1.63.78-2.2.52-2.14-1-3.75.17-4.59,1.88-1.7,3.43-3.77,3.32-6.38,1.67-.83-.53-1.73-.91-2.64-1.38-2.15,5.31-6.64,4.48-10.43,5.28A22.84,22.84,0,0,1,239.36,190.58Z"/>
    <path class="cls-8"
          d="M304.57,177.24c0,3.59-2.28,4.91-4.79,6-2.58.81-5.08,1.09-7.16-1.35.4-1.33.8-2.66,1.19-4l2.37-2c1.33,4.14,3.75,2.22,6,1.34Z"/>
    <path class="cls-6" d="M296.18,175.89l-2.37,2-1.24-.7,3-4.64,1.77-1.36c.21.67.41,1.35.62,2Z"/>
    <path class="cls-3"
          d="M194.5,76.4h-1.79c-1.14-1.7-2.35-3.35-3.37-5.14a2.8,2.8,0,0,1-.06-2.23c1.71-3,3-6.71,7-6.65V63c.33,3.84-1.09,8,1.81,11.36l3,6-.61,2c-.23-.93-.46-1.87-.71-2.79C198.73,75.88,197.93,75.39,194.5,76.4Z"/>
    <path class="cls-9"
          d="M203.48,51h1.19a6.47,6.47,0,0,0,.21,1.62c2,5.08.48,7.72-4.42,7.73h-3c0-.44,0-.89,0-1.33.2-.67.39-1.34.59-2l3.6-4.69Z"/>
    <path class="cls-5" d="M180.08,93.12l5.64-3.67c.25,3.94-1,4.91-5.19,4.63Z"/>
    <path class="cls-1" d="M196.3,63v-.66l1.18-2h0c0,.88,0,1.77,0,2.65Z"/>
    <path class="cls-1" d="M198.09,57c-.2.67-.39,1.34-.59,2-.12-.75-.23-1.5-.35-2.26Z"/>
    <path class="cls-9" d="M181.34,112.46v-2l1.09,1.16Z"/>
    <path class="cls-16"
          d="M238.77,145.18l-5.39,2.67c-1.93-.3-3.86-.6-5.79-.92-.29-.05-.63-.39-.83-.29-4,2-6.41-1.4-9.28-3.32a6.47,6.47,0,0,1-3.24-6.15,14.65,14.65,0,0,0,.23-3.27,16.75,16.75,0,0,0-1.22-3.93c-.77-1.8-2.13-3.41-2.46-5.27-.49-2.82,2.07-4.86,4.36-3.68,3.54,1.84,7,3.86,10.54,5.72a7.87,7.87,0,0,0,2.3.41c3.26-.59,6.52-1.17,9.78-1.79,1.33-.25,2.65-.58,4-.88-.94,1.31-1.7,3.41-2.87,3.76-3.25,1-4.64,3.9-6.43,6.41a5.09,5.09,0,0,0-.76,3.31c.46,2.87,4.21,5.82,7.07,5.88Z"/>
    <path class="cls-12"
          d="M228,127.15a7.87,7.87,0,0,1-2.3-.41c-3.54-1.86-7-3.88-10.54-5.72-2.29-1.18-4.85.86-4.36,3.68.33,1.86,1.69,3.47,2.46,5.27a16.75,16.75,0,0,1,1.22,3.93,14.65,14.65,0,0,1-.23,3.27l-4.19-2c-.39-3.26-.79-6.53-1.19-9.79-.12-1,0-2.15-.4-2.91-1.29-2.25-.33-3.6,1-5.15a5,5,0,0,0,1.43-3.26c-.49-3.89-1.94-7.72-1.9-11.56s.22-7.22-4.06-8.18c-.13,0-.21-.36-.31-.55.05-2.46-1.15-5.38,2-6.71a.71.71,0,0,0,.2-.59c-.57-3.32,1.69-2.46,3.19-2.72l1.2,2,1.2,8.68c0,5.93,1.35,7.42,4.78,5.34v5c0,3.52,1.16,4.85,4.35,5a17.61,17.61,0,0,0,1.78,0c1.67-.07,2.33.9,2.25,2.67l1.79,8.68Q227.7,124.16,228,127.15Z"/>
    <path class="cls-15"
          d="M204.67,93.76c.1.19.18.52.31.55,4.28,1,4.1,4.21,4.06,8.18s1.41,7.67,1.9,11.56a5,5,0,0,1-1.43,3.26c-1.38,1.55-2.34,2.9-1,5.15.43.76.28,1.93.4,2.91.4,3.26.8,6.53,1.19,9.79-3,3.54-2.56,7.8-1.88,12.48l-2.9.21a9,9,0,0,0-1-2.64c-3-3.74-2.84-6.75,1.09-9.68L199,126.67c-.25-.34-.7-.77-.65-1.08.77-5.06,1.29-10.21,2.54-15.12.71-2.79,2.63-5.2,4-7.78l-.61-.6h3.41l-4.26-4.32c-.21-.89-.41-1.78-.61-2.67Z"/>
    <path class="cls-2" d="M213.05,165.21c-.71-.25-1.74-.26-2.07-.8a12,12,0,0,1-.92-3.22Z"/>
    <path class="cls-17"
          d="M292.6,169.89c-2.72,1.26-5,.19-7.38-2.25-.39,1.57-1.06,2.83-.92,4,.38,3.2-1.51,3.76-3.52,4.1-2.48.42-5,.65-7.5.87a15.17,15.17,0,0,0-3.77.43,56,56,0,0,0-5.39,1.68c-1.83.76-3.55,1.89-5.36,2.74-1.43.67-3.27,2.53-4.26-.23s1.42-3,3.07-3.61c-1.13-2.13-3.3-1.38-6.84,2.31l-2.39,1.33-1.8-7.34c3-3.78,6.6-6.3,11.37-6l.6.67,4.18,2.67c4.41-2.55,8.79-5.17,13.24-7.63,2.5-1.38,5.13-2.49,7.7-3.73.78,1,2,1.8,2.25,2.91a6.06,6.06,0,0,0,5.29,5.21C291.73,168.08,292.13,169.22,292.6,169.89Z"/>
    <path class="cls-16"
          d="M257.91,167.88c-4.77-.29-8.33,2.23-11.37,6-1.72-2.95-3.5-5.87-5.15-8.87-1.34-2.45-1.79-4.87.51-7.13.6-.59.72-1.77,1.07-2.68,1-.56,2-1.05,2.95-1.69s2-1.54,3-2.33c-.5.92-1,1.86-1.49,2.74-1.25,2-.83,3.76,1.22,4.34C253.4,159.6,255.26,164.17,257.91,167.88Z"/>
    <path class="cls-18"
          d="M242.36,153.86c-2.57-.82-5.43-1-7.3-4.34,1.68-.82,3.26-1.47,4.71-2.37.6-.38.93-1.3,1.39-2,2.32-1.32,4.6-2.76,7-3.88.68-.31,1.7.34,2.57.54v.67a17.27,17.27,0,0,0-3.53,1.5,15.8,15.8,0,0,0-2.44,2.74l2.38,2.44L243,153.84Z"/>
    <path class="cls-14"
          d="M243,153.84l4.19-4.65,4.19-.67a30.09,30.09,0,0,0,16.15-4.69h1.19v2l-9,4-10.76,1.34c-1,.79-2,1.63-3,2.33s-2,1.13-2.95,1.69C243,154.75,243,154.3,243,153.84Z"/>
    <path class="cls-8" d="M248.34,181.23l2.39-1.33c-1.09,2.68-5.46,5.31-7.79,4.67Z"/>
    <path class="cls-19"
          d="M250.73,141.84c-.87-.2-1.89-.85-2.57-.54-2.4,1.12-4.68,2.56-7,3.88h-2.39v-1.34l6-3.34h1.19l2.4-.66a34.92,34.92,0,0,0,4.08-1.61c2.26-1.23,4.43-2.66,6.64-4l.75,1.45Z"/>
    <path class="cls-13"
          d="M204.67,93.76l-1.8,1.34c-2.38-.31-3.89-2.58-3.52-5.56.26-2.17.75-4.31,1.13-6.46v-.66c.21-.67.41-1.34.61-2,3.5-.78,1.22-3.67,1.61-5.58.31-1.51.14-4.13.79-4.4,2.91-1.19,5.45-2.21,4.28-6.56,0-.14.15-.41.29-.55,2.91-2.94,5.9-5.42,10.27-4.53a3.81,3.81,0,0,0,3.29-1.71c1.56-3,2.69-6.22,4-9.37h0l1.19,0h0l.47,1,.73-1,1.18-.67,3.61-.65c-.56,1-1.07,2-1.68,3-1.1,1.7-2.74,3.17-3.29,5-1.88,6.5-6.11,9.68-11.64,11.41-.66.2-1.19,1-1.74,1.51a29.25,29.25,0,0,1-3.54,3.58c-2.37,1.63-4.73,6.48-4.4,9.91.35,3.69,3.22-.34,4.16,1.64,0,.22,0,.44,0,.66l-.6.66c-1.5.26-3.76-.6-3.19,2.72a.71.71,0,0,1-.2.59C203.52,88.38,204.72,91.3,204.67,93.76Z"/>
    <path class="cls-8"
          d="M200.48,82.42v.66a14.67,14.67,0,0,0-1.73,2.67,24.51,24.51,0,0,0-.87,3.75c-4.93-3.38-3-8.57-3.38-13.1,3.43-1,4.23-.52,5.27,3.23C200,80.55,200.25,81.49,200.48,82.42Z"/>
    <path class="cls-8"
          d="M272.25,35.68l1.8,3.33,0,2.65c-2.13-.75-4.26-1.52-6.4-2.23-1.85-.62-3.72-1.18-5.59-1.76-4.09-2.59-8.34-1.15-12.56-.66l-2.39-.67c.94-.69,1.9-1.35,2.82-2.08s2.11-1.72,3.16-2.59h3c.64.67,1.18,1.66,1.94,2C262.64,35.49,267.43,35.71,272.25,35.68Z"/>
    <path class="cls-9"
          d="M256.11,31.67h-3c-.7-.28-1.53-1-2.07-.76-2.55,1-5,2.26-7.5,3.42l-2.28-3.27c.93-.68,1.8-1.79,2.8-2,2.79-.47,5.63-.54,8.45-.77,2.73.66,5.44,1.51,8.2,2s5.69.5,8.54.72l.6,0c.2.65.41,1.3.61,2-.92-.07-1.85-.06-2.76-.2-2-.33-4-.87-6.1-1.08A53.09,53.09,0,0,0,256.11,31.67Z"/>
    <path class="cls-2"
          d="M232.79,46.36l-3.61.65c0-.22,0-.43,0-.65V45c5.08.69,9.09-2.81,13.58-4.38.38-.13.53-1.07.78-1.64l3,0,7.2,5.38-1.18,1.32a25.48,25.48,0,0,1-4.48-2.59c-1.8-1.55-3.38-1.45-5.1-.08Z"/>
    <path class="cls-3"
          d="M253.12,41c0-.68,0-1.35,0-2l5.37,2a57.19,57.19,0,0,0,6.24,3.67c2.83,1.22,5.8,2,8.71,3,0,.88,0,1.76,0,2.64-2.14-.85-4.3-1.67-6.43-2.57-4.24-1.78-8.47-3.61-12.71-5.41Z"/>
    <path class="cls-15" d="M258.5,41l-5.37-2-3.6-2c4.22-.49,8.47-1.93,12.56.66Z"/>
    <path class="cls-3"
          d="M243.55,34.33c2.49-1.16,4.95-2.41,7.5-3.42.54-.21,1.37.48,2.07.76-1.05.87-2.09,1.75-3.16,2.59s-1.88,1.39-2.82,2.08Z"/>
    <path class="cls-12" d="M253.12,41l1.2,1.33-.6,2v0L246.51,39Z"/>
    <path class="cls-8"
          d="M225.61,47.71c-1.3,3.15-2.43,6.4-4,9.37a3.81,3.81,0,0,1-3.29,1.71c-4.37-.89-7.36,1.59-10.27,4.53-.14.14-.32.41-.29.55,1.17,4.35-1.37,5.37-4.28,6.56-.65.27-.48,2.89-.79,4.4-.39,1.91,1.89,4.8-1.61,5.58l-3-6-.6-6,6.82-1.06c.38-1.58.31-3.5,1.11-4.24,2.13-2,2.33-4.32,2.39-7,0-.45,2-1.47,2.25-1.2,2.79,2.55,5.65,1,8.67.51L220.83,49Z"/>
    <path class="cls-3"
          d="M220.83,49l-2.08,6.35c-3,.48-5.88,2-8.67-.51-.29-.27-2.24.75-2.25,1.2-.06,2.71-.26,5.07-2.39,7-.8.74-.73,2.66-1.11,4.24l-6.82,1.06,0-5.37c0-.88,0-1.77,0-2.65h3c4.9,0,6.41-2.65,4.42-7.73a6.47,6.47,0,0,1-.21-1.62l3-.67h1.8c2.92-.31,5.84-.6,8.76-.93C219.09,49.34,220,49.17,220.83,49Z"/>
    <path class="cls-1" d="M209.46,50.36h-1.8l.76-1.21Z"/>
    <path class="cls-6" d="M229.18,46.36c0,.22,0,.43,0,.65l-1.18.67h-1.19Z"/>
    <path class="cls-12"
          d="M326.09,90.42,320.22,93l.07,1,2.21.38a11,11,0,0,1,.3,2.51c-.38,3.49-1.77,7.2-1.13,10.42,1.21,6.15.21,12.73,2.89,18.57.22.47-.09,1.26-.19,1.89-.36,2.35-.74,4.7-1.12,7.09l2.85.94v1.34q-1.8,1.67-3.59,3.34c-2.41-.46-2.65,1.51-3,3.34l-1.79-.67c-.55-1.91-1-3.86-1.69-5.71a29.31,29.31,0,0,0-1.9-3.64l5.27,1.23c.75-3.83,2.78-7.78.76-12.71a24,24,0,0,1-1.89-12c.56-4.71.73-9.47,1.06-14.07l-5.15,1.45,0-2.63,1.75,0c2.58-.38,3-2.88,3.52-4.93A2.91,2.91,0,0,0,317,86.32c-.27-.06-.33-1.24-.49-1.91l2.38-1.33c.57.26,1.15.79,1.69.73a33.59,33.59,0,0,0,4-.86Z"/>
    <path class="cls-15"
          d="M326.1,135.83l-2.85-.94c.38-2.39.76-4.74,1.12-7.09.1-.63.41-1.42.19-1.89-2.68-5.84-1.68-12.42-2.89-18.57-.64-3.22.75-6.93,1.13-10.42a11,11,0,0,0-.3-2.51l4.2-1.32c-.35,1.91-.54,3.88-1.07,5.73-.83,2.86.38,6.24-2.13,8.82-.51.52.82,3.35,1.4,5.08.24.69,1.05,1.25,1.08,1.91.27,5.3.47,10.62.57,15.93A49.52,49.52,0,0,1,326.1,135.83Z"/>
    <path class="cls-11"
          d="M319.51,143.85c.35-1.83.59-3.8,3-3.34l.6,2,.6,2c1.12,2.5,2.08,5.11,5.18,5.36.5,0,1.19,1.41,1.25,2.21,0,.54-.81,1.47-1.42,1.69-2.23.79-4.52,1.37-6.85,2-.42-.94-.79-1.79-1.16-2.64l-1.2-5.33Z"/>
    <path class="cls-13"
          d="M332.07,91.08c2.25-.29,3.11,1.29,3.6,3.35a2.39,2.39,0,0,0-3.79,1.6c-.28,1.24.56,3,1.27,4.26a35.73,35.73,0,0,0,3.11,4.16h-1.79c-1-.88-1.86-2.21-3-2.55-2.17-.67-3.19-2-3.59-4.4-.45-2.71,1.09-3.7,2.72-4.82.18-.13.18-.6.26-.92Z"/>
    <path class="cls-15" d="M323.11,142.51l-.6-2q1.78-1.68,3.59-3.34C326.94,140.32,326.1,141.83,323.11,142.51Z"/>
    <path class="cls-20"
          d="M248.94,151.19l10.76-1.34c.54,1.81.69,4,1.71,5.34,1.64,2.16,3.86,3.78,6.29,6.05a8,8,0,0,0,1.46-2c1.54-3.47,3.56-4.47,6.93-3.38,1.11.35,2.71,1,3.38.45,2.5-2.08,4.45-1.69,6.66,1.76.24-1.75.37-2.62.49-3.5a34.28,34.28,0,0,0,2.11-3.48c1-2.14,1.79-4.36,2.67-6.55l.6,1.35a22.18,22.18,0,0,0-.44,3.23c0,.91,0,2.29.54,2.64,2,1.4,3.91,3,6.56,1.48s1.09-3.67.71-5.47l6.4-5.89,1.8,4c.21.88.41,1.76.62,2.63-.6,1.93-1.68,3.86-1.68,5.78,0,2.77-1.36,3.57-3.21,4.33s-3.52,2-5.38,2.4c-2.52.56-5.2.31-7.73.87-1.75.39-3,.54-4-1.41-.31-.57-1.66-.42-2.53-.6-2.57,1.24-5.2,2.35-7.7,3.73-4.45,2.46-8.83,5.08-13.24,7.63-.49-2.65-2.36-2.63-4.18-2.67l-.6-.67c-2.65-3.71-4.51-8.28-9.24-9.61-2-.58-2.47-2.29-1.22-4.34C248,153.05,248.44,152.11,248.94,151.19Z"/>
    <path class="cls-16"
          d="M283.63,159.86c.87.18,2.22,0,2.53.6,1.07,1.95,2.28,1.8,4,1.41,2.53-.56,5.21-.31,7.73-.87,1.86-.42,3.56-1.65,5.38-2.4s3.21-1.56,3.21-4.33c0-1.92,1.08-3.85,1.68-5.78,2.4,1.81,2.85,4.37,1.86,7.15A23.64,23.64,0,0,1,302.62,166c-1.88,1.55-3.51,3.46-5.26,5.21l-1.77,1.36c-1-.9-2-1.79-3-2.68-.47-.67-.87-1.81-1.43-1.91a6.06,6.06,0,0,1-5.29-5.21C285.63,161.66,284.41,160.82,283.63,159.86Z"/>
    <path class="cls-11"
          d="M296.18,175.89l1.8-2.66c4.92-3.79,10-7.38,12.8-13.66.63-1.39,2.49-3.48,3.1-3.23,2.23.93,4.17,2.72,6.23,4.19a15.36,15.36,0,0,0-2.79,1.53c-1.47,1.25-2.79,2.71-4.18,4.07-1.67,1.63-4.56,2.08-4.07,5.85.09.69-1.71,1.79-2.73,2.54-1.34,1-2.77,1.81-4.17,2.71C299.93,178.11,297.51,180,296.18,175.89Z"/>
    <path class="cls-12"
          d="M307.57,145.86l-1.8-4c-.6-2.23-1.2-4.45-1.79-6.68-.21-3.12-.42-6.23-.62-9.35h1.2c.6,2.49,1.12,5,1.82,7.46s1.57,4.83,2.36,7.24c.6,1.56,1.2,3.11,1.81,4.67l.58,2.68Z"/>
    <path class="cls-16" d="M311.13,147.86c-.19-.89-.39-1.79-.58-2.68l7.17-2,1.79.67v4l-7.17,3.35Z"/>
    <path class="cls-14" d="M312.34,151.19l7.17-3.35,1.2,5.33-1,3.77C317.51,154.53,313.18,155.93,312.34,151.19Z"/>
    <path class="cls-13"
          d="M326.09,90.42,324.58,83a33.59,33.59,0,0,1-4,.86c-.54.06-1.12-.47-1.69-.73.21-.67.41-1.33.61-2,1.28-.42,2.55-.93,3.85-1.23,2.67-.62,2.29-1.73,1-3.87a19.49,19.49,0,0,1-2.91-7.44c-.36-3,0-6-3.92-5.59-.28,0-.59-.49-.91-.7-1.14-.77-2.29-1.51-3.45-2.26l-1.44,4.39c-.28-1.16-.94-2.38-.78-3.45.67-4.33-.16-7.21-2.81-8.57L307.55,51h2.39l6.59,2c.56,1.45,1.21,2.88,1.68,4.37.83,2.64,2.52,3.3,4.84,3,2-.26,2.16,1.46,2.19,3a22.63,22.63,0,0,1-.34,2.94c-1.14,2.52-1.29,4.62,1.18,6.55.85.68.84,2.72,1.23,4.14-.22,4.83,2.72,1.47,4.16,2,.27,2.34-.92,5.17,1.82,6.67C331.94,89.32,329,89.81,326.09,90.42Z"/>
    <path class="cls-3"
          d="M285.43,38.35c-.53-4.37,3.27-4.59,5.17-6.6a4.83,4.83,0,0,1,2.75-1.09c.8-.11,2.22,0,2.37.43,1.54,4.44,5,4.57,8.42,5.18,4.93.9,5.21,1.3,5.21,6.76,0,1.33,0,2.66,0,4-.27-.12-.69-.16-.8-.38a13.57,13.57,0,0,0-5.87-5.37,44.21,44.21,0,0,0-4.2-1.62C294.18,38.62,290.05,35.35,285.43,38.35Z"/>
    <path class="cls-8"
          d="M285.43,38.35c4.62-3,8.75.27,13,1.31a44.21,44.21,0,0,1,4.2,1.62,13.57,13.57,0,0,1,5.87,5.37c.11.22.53.26.8.38,0,1.33,0,2.66,0,4h-1.81c-1.71-1.63-3.43-3.24-5.13-4.87-.58-.55-1.07-1.61-1.66-1.67C295.46,44,290.32,41,284.83,43h0l.6-4C285.42,38.79,285.43,38.57,285.43,38.35Z"/>
    <path class="cls-8"
          d="M274.68,38.32c0-.66,0-1.31,0-2A59.88,59.88,0,0,1,281,33.72c2.64-.76,3.61.79,3.21,3.64a13,13,0,0,0,0,1.65c-.44,1.46-1.6,3,.6,4h0l-.6,2.67-.53,1.83-.74,0c-.18-1.1-.37-2.19-.55-3.29-.54-3.25-3-4.08-5.38-1.82Q275.85,40.35,274.68,38.32Z"/>
    <path class="cls-3" d="M284.82,43c-2.2-1-1-2.54-.6-4h1.2Z"/>
    <path class="cls-1" d="M284.83,31.66,286,31c-.14.56-.29,1.11-.44,1.67Z"/>
    <path class="cls-2"
          d="M336.26,104.45a35.73,35.73,0,0,1-3.11-4.16c-.71-1.27-1.55-3-1.27-4.26a2.39,2.39,0,0,1,3.79-1.6l4.19,2.24c-.91.82-1.45,1.68.33,3.39,1,1,.62,3.76.87,5.72,0,.45,0,.89,0,1.34Z"/>
    <path class="cls-3"
          d="M256.11,31.67a53.09,53.09,0,0,1,5.5,0c2.05.21,4.06.75,6.1,1.08.91.14,1.84.13,2.76.2.59.89,1.19,1.78,1.78,2.68-4.82,0-9.61-.19-14.2-2C257.29,33.33,256.75,32.34,256.11,31.67Z"/>
    <path class="cls-6" d="M274.68,38.32q1.17,2,2.35,4l.6,4.63-2.36,0-1.19-5.36,0-2.65Z"/>
    <path class="cls-7" d="M269.86,31l-.6,0-1.2-2.67C270,28.12,269.91,29.6,269.86,31Z"/>
    <path class="cls-6" d="M197.48,63l0,5.37.6,6c-2.9-3.34-1.48-7.52-1.81-11.36Z"/>
    <path class="cls-17"
          d="M228,127.15q-.28-3-.59-6c1.87.22,3.79.82,5.59.54,2.21-.34,5.73-5,5-6.61-1-2.37-2.55-4.93-4.49-6.16-1.23-.78-3.66.51-5.44,1.23-1,.39-1.66,1.52-2.47,2.32.08-1.77-.58-2.74-2.25-2.67a17.61,17.61,0,0,1-1.78,0c-3.19-.18-4.34-1.51-4.35-5v-5c2.27-4.9,9.64-7.63,14.36-5.36,1.15.55,2.39.91,3.58,1.35,1.22,1.83,1.78,4.32,4.85,3.69.95-.19,3,2,3.4,3.53,1.32,4.66,2.13,9.52,3.1,14.31.9,4.42-2.29,5.53-4.77,7.19-1.33.3-2.65.63-4,.88C234.51,126,231.25,126.56,228,127.15Z"/>
    <path class="cls-20"
          d="M241.75,124.48c2.48-1.66,5.67-2.77,4.77-7.19-1-4.79-1.78-9.65-3.1-14.31-.43-1.51-2.45-3.72-3.4-3.53-3.07.63-3.63-1.86-4.85-3.69a35.53,35.53,0,0,0,.52-3.54c.08-1.85.38-3.34,2.48-3.13,2.63,1.25,5.24,2.55,7.89,3.74s4.67,2.59,4.07,6.27v3.34c-4.32,5.08-3.5,11.34,1.13,14.65a5,5,0,0,1,2.09,5.89,20.1,20.1,0,0,1-2.67,5.44,12.17,12.17,0,0,1-3.56,3.45c-2.13,1.31-3.65,6.24-2.37,8.63l-6,3.34c-2.86-.06-6.61-3-7.07-5.88a5.09,5.09,0,0,1,.76-3.31c1.79-2.51,3.18-5.44,6.43-6.41C240.05,127.89,240.81,125.79,241.75,124.48Z"/>
    <path class="cls-14"
          d="M243,43c1.72-1.37,3.3-1.47,5.1.08a25.48,25.48,0,0,0,4.48,2.59v.66c-1.94,1.69-5.22,3.09-5.56,5.12a11.36,11.36,0,0,1-5.54,8.43c-.15.1-.19.39-.31.57-3.35,5.14-3.35,5.14,2.43,7.26.09.31.11.82.29.9,4.92,2.18,9.58,5.51,15.26,4.43v.68c-2.42,1.18-4.79,1.64-7.35.28a49.31,49.31,0,0,0-5.81-2.28,17,17,0,0,1-3.22-2c-4.85-4.71-9.95-3-11.73,4-1.32,1.87-3.14,3.53-3.85,5.65-1.13,3.42-1.91,4.3-5.07,3.88-.93-.12-2.42.24-2.82,1A50.42,50.42,0,0,0,216,91.79c-.67,1.94-1.64,2.95-3.53,2.64l-1.2-8.68-.6-2.67c0-.22,0-.44,0-.66l5.18-1.59-.16-.88-4.42.27a39.81,39.81,0,0,1,3.61-5.41,21.8,21.8,0,0,1,5.31-4.33c2.76-1.49,5.51-2,6.74-6.31.85-3,2.05-7,6-8a3.18,3.18,0,0,0,1.42-2.59c-.64-2.75.78-3.09,2.54-4.15C239.26,48,243.82,48.5,243,43Z"/>
    <path class="cls-16"
          d="M212.45,94.43c1.89.31,2.86-.7,3.53-2.64a50.42,50.42,0,0,1,3.27-7.56c.4-.72,1.89-1.08,2.82-1,3.16.42,3.94-.46,5.07-3.88.71-2.12,2.53-3.78,3.85-5.65,1.39,1.84,2.58,3.61,2.6,6.35,0,1.39.58,3.71,3,3.78.75,0,1.48,1.22,2.21,1.88l-.59,3.34c-2.1-.21-2.4,1.28-2.48,3.13a35.53,35.53,0,0,1-.52,3.54c-1.19-.44-2.43-.8-3.58-1.35-4.72-2.27-12.09.46-14.36,5.36C213.8,101.85,212.46,100.36,212.45,94.43Z"/>
    <path class="cls-15"
          d="M225.61,112.46c.81-.8,1.52-1.93,2.47-2.32,1.78-.72,4.21-2,5.44-1.23,1.94,1.23,3.48,3.79,4.49,6.16.71,1.65-2.81,6.27-5,6.61-1.8.28-3.72-.32-5.59-.54C226.8,118.25,226.2,115.35,225.61,112.46Zm9.57,2.61c0-2.92-1.13-4.06-3.92-3.94s-3.2,3-3,4.84c.12,1.51,1.93,3.76,3.26,4C234.06,120.51,235.21,118.56,235.18,115.07Z"/>
    <path class="cls-16" d="M210.65,83.08l.6,2.67-1.2-2Z"/>
    <path class="cls-16" d="M258.51,168.55c1.82,0,3.69,0,4.18,2.67Z"/>
    <path class="cls-21"
          d="M250.73,141.84l9.08-6.17-.75-1.45c-2.21,1.35-4.38,2.78-6.64,4a34.92,34.92,0,0,1-4.08,1.61v-2.67c2.6-.94,5.22-1.81,7.78-2.86.51-.21.76-1.15,1.17-1.71,1-1.35,2-2.64,2.94-4A67.4,67.4,0,0,0,265,121.2c.86-1.72,1-3.89,1.46-5.87.37-1.71,1.07-3.48.92-5.13a61.7,61.7,0,0,0-1.71-7.75c1.58,2.07,4.75,4.49,4.46,6.16-1,5.59-1,11.65-4.55,16.52-1.15,1.6-1.4,4-2.07,6l1.05.78,5.9-4.12c2.17-.91,4.49-1.53,6.47-2.81,3.34-2.17,6.47-4.76,9.7-7.17l2.36,0a8.34,8.34,0,0,1-1.42,2.37c-2.66,2.18-5.42,4.21-8.14,6.29a107.63,107.63,0,0,0-9.66,5.29,7.53,7.53,0,0,0-3.44,8.34c.28,1.27.75,2.48,1.14,3.72a30.09,30.09,0,0,1-16.15,4.69l-.6-6Z"/>
    <path class="cls-19"
          d="M250.73,142.51l.6,6-4.19.67-2.38-2.44A15.8,15.8,0,0,1,247.2,144,17.27,17.27,0,0,1,250.73,142.51Z"/>
    <path class="cls-22"
          d="M286.62,154.53l-.49,3.5c-2.21-3.45-4.16-3.84-6.66-1.76-.67.55-2.27-.1-3.38-.45-3.37-1.09-5.39-.09-6.93,3.38a8,8,0,0,1-1.46,2c-2.43-2.27-4.65-3.89-6.29-6.05-1-1.35-1.17-3.53-1.71-5.34l9-4c4.08-1,8-2.38,11.37-5.32a22.1,22.1,0,0,0,.74,3.33c.66,1.7,1.5,3.31,2.29,4.94a18.55,18.55,0,0,0,1.07,1.9C285,152,285.79,153.25,286.62,154.53Z"/>
    <path class="cls-23"
          d="M267.48,143.83c-.39-1.24-.86-2.45-1.14-3.72a7.53,7.53,0,0,1,3.44-8.34,107.63,107.63,0,0,1,9.66-5.29,26.15,26.15,0,0,0,1.62,4,44.54,44.54,0,0,0,3.17,4.08,15,15,0,0,1-2.48,2.26c-4.33,2.42-8.71,4.72-13.08,7.07Z"/>
    <path class="cls-16"
          d="M268.67,143.84c4.37-2.35,8.75-4.65,13.08-7.07a15,15,0,0,0,2.48-2.26l6-2v2l-3.6,2-6.56,4c-3.36,2.94-7.29,4.34-11.37,5.32C268.67,145.17,268.67,144.51,268.67,143.84Z"/>
    <path class="cls-22"
          d="M265.68,102.45a61.7,61.7,0,0,1,1.71,7.75c.15,1.65-.55,3.42-.92,5.13-.43,2-.6,4.15-1.46,5.87a67.4,67.4,0,0,1-4.78,7.38c-.94,1.38-2,2.67-2.94,4-.41.56-.66,1.5-1.17,1.71-2.56,1.05-5.18,1.92-7.78,2.86L247,135.4c-.53.73-1.36,1.4-1.51,2.23a8.31,8.31,0,0,0,.48,2.87h-1.19c-1.28-2.39.24-7.32,2.37-8.63a12.17,12.17,0,0,0,3.56-3.45,20.1,20.1,0,0,0,2.67-5.44,5,5,0,0,0-2.09-5.89c-4.63-3.31-5.45-9.57-1.13-14.65.16,1.36.76,2.91.39,4a10.05,10.05,0,0,0,0,5.52c.56,2.93,2,4.15,4.13,4.13a6.8,6.8,0,0,0,6.27-5.6c.69-7.94-3.74-12.66-10.75-11.44.6-3.68-1.51-5.12-4.07-6.27s-5.26-2.49-7.89-3.74c.2-1.12.39-2.23.59-3.34l3.59-.66c.52.72.9,1.82,1.56,2.1,3.29,1.38,6.18,3.06,7.31,7.22.16.61,1.41.86,2.16,1.27.31-.71.64-1.4.93-2.12.42-1,.8-2.09,1.2-3.14a15.68,15.68,0,0,1,3.82.08c1.34.35,3,.84,3.76,1.93C265,95.31,266.34,98.62,265.68,102.45Z"/>
    <path class="cls-20" d="M245.94,140.5a8.31,8.31,0,0,1-.48-2.87c.15-.83,1-1.5,1.51-2.23l1.37,1.77v2.67Z"/>
    <path class="cls-11"
          d="M243,43c.87,5.49-3.69,5-6.11,6.44-1.76,1.06-3.18,1.4-2.54,4.15a3.18,3.18,0,0,1-1.42,2.59c-3.91.94-5.11,5-6,8-1.23,4.26-4,4.82-6.74,6.31a21.8,21.8,0,0,0-5.31,4.33,39.81,39.81,0,0,0-3.61,5.41l4.42-.27.16.88-5.18,1.59c-.94-2-3.81,2-4.16-1.64-.33-3.43,2-8.28,4.4-9.91a29.25,29.25,0,0,0,3.54-3.58c.55-.55,1.08-1.31,1.74-1.51,5.53-1.73,9.76-4.91,11.64-11.41.55-1.88,2.19-3.35,3.29-5,.61-1,1.12-2,1.68-3Z"/>
    <path class="cls-8" d="M226.8,47.69H228l-.73,1Z"/>
    <path class="cls-12"
          d="M274.08,41.66c.39,1.79.79,3.57,1.19,5.36l-1.82.68c-2.91-1-5.88-1.79-8.71-3A57.19,57.19,0,0,1,258.5,41l3.59-3.35c1.87.58,3.74,1.14,5.59,1.76C269.82,40.14,272,40.91,274.08,41.66Z"/>
    <path class="cls-13" d="M252.53,46.34v-.66l1.18-1.32v0l10.75,7.36c0,.67,0,1.33,0,2l-2.39-1.34L260.3,51Z"/>
    <path class="cls-16"
          d="M264.47,51.7l-10.75-7.36.6-2c4.24,1.8,8.47,3.63,12.71,5.41,2.13.9,4.29,1.72,6.43,2.57,0,.22,0,.44,0,.66-4.27.08-4.27.08-3.63,4.71Z"/>
    <path class="cls-2"
          d="M273.5,51c0-.22,0-.44,0-.66,0-.88,0-1.76,0-2.64l1.82-.68,2.36,0,0,2L280,53.7l-1.18,2C277,54.19,276.67,50.6,273.5,51Z"/>
    <path class="cls-14"
          d="M319.52,81.08c-.2.67-.4,1.33-.61,2l-2.38,1.33c.58-4.52-.85-8.57-3.19-9.69l-2.79,2.34c0-.66,0-1.33,0-2a11,11,0,0,1,.1-2.31c1.05-4,.32-5.44-3.18-7.51a9.22,9.22,0,0,1-3.56-4c-1.18-2.64-2.66-4-5.32-3.6l-.91-2.57c-6,1.25-6.26,1-6.27-4.77l6-2.67a23.26,23.26,0,0,1,2.83,1.51c2.44,1.71,4.55,4.41,7.93,3.16,2.65,1.36,3.48,4.24,2.81,8.57-.16,1.07.5,2.29.78,3.45,1.36.93,3.46,1.53,3.93,2.86C317.26,71.71,318.28,76.44,319.52,81.08Z"/>
    <path class="cls-21"
          d="M310.54,75.07c0,.66,0,1.33,0,2-.14,2.27-.27,4.54-.41,6.8A9.81,9.81,0,0,1,313,87.32c.26.43.49,1,.87,1.21,2.77,1.4,3,3.72,2.05,6.55l-1.75,0-1.18,0-2.44-4.72c.18-2.12-1.13-2-2.38-2a10.68,10.68,0,0,0,.41-3.21A9,9,0,0,0,307,81.27a51.55,51.55,0,0,0-5.43-5.43,32.92,32.92,0,0,0-3.52-2.44l-.72.92c.3,1.12.63,2.23.91,3.35.33,1.35.62,2.72.93,4.08a16,16,0,0,1-2.05-2.69c-.84-1.7-1.44-3.54-2.14-5.32,0-1.09.4-2.43,0-3.21-1.42-2.6-3.14-5-4.75-7.48V61.71L291.4,59h1.8c.18,5.37,2.26,8.46,7.5,8.16.76,0,1.58,1.12,2.35,1.75C305.55,71,308,73,310.54,75.07Z"/>
    <path class="cls-24"
          d="M313,95.11l1.18,0c0,.87,0,1.75,0,2.63a4.62,4.62,0,0,0-.05.65l-10-.67c-.46,2.94-.83,6-1.43,9-.65,3.21-1.12,6.26,1.77,8.5,0,.41,0,.81,0,1.22l-4.28-3.65c.51,2.17.93,3.92,1.34,5.67H301l-2.39-1.58v3.58l-1.25.64.06-5.32c2.26-1.31.27-3.15.48-4.72q.66-3.66,1.31-7.32.48,3.39.94,6.78c.33-4.14,3.16-8.07.9-12.62l-1.31,2.68-3-5.45c-.19-2.46-.37-4.91-.56-7.37l2.41-1.32c.08,1-.14,2.2.31,2.88A30.23,30.23,0,0,0,302.17,93l2.2-4,1.68,1.42,1.51-2h.6c1.25,0,2.56-.13,2.38,2a5.14,5.14,0,0,0-5.21,4.26C307.89,97,310.68,97.14,313,95.11Z"/>
    <path class="cls-16"
          d="M314.13,98.41a4.62,4.62,0,0,1,.05-.65l5.15-1.45c-.33,4.6-.5,9.36-1.06,14.07a24,24,0,0,0,1.89,12c2,4.93,0,8.88-.76,12.71l-5.27-1.23-1.29-2.68.59-.78,4.21,2c-.34-3.93-.67-7.43-.93-10.94a4.25,4.25,0,0,0-3.77-4.35V115.8c2.1-.52,2.74-1.87,2.06-4.17-.42-1.47-.6-3-.88-4.53l-.07-1.38C314.08,103.29,314.1,100.85,314.13,98.41Z"/>
    <path class="cls-20"
          d="M312.94,117.13a4.25,4.25,0,0,1,3.77,4.35c.26,3.51.59,7,.93,10.94l-4.21-2-.59.78,1.29,2.68a29.31,29.31,0,0,1,1.9,3.64c.68,1.85,1.14,3.8,1.69,5.71l-7.17,2c-.61-1.56-1.21-3.11-1.81-4.67,2.8-1.89,2.3-5,2.1-7.83a69.28,69.28,0,0,0-1.49-8c.69.09,1,.15,1.26.17L314,125c-.13-1.59-.21-3.2-.41-4.79C313.48,119.18,313.17,118.16,312.94,117.13Z"/>
    <path class="cls-16"
          d="M315.91,95.08c1-2.83.72-5.15-2.05-6.55-.38-.19-.61-.78-.87-1.21a9.81,9.81,0,0,0-2.85-3.46c.14-2.26.27-4.53.41-6.8l2.79-2.34c2.34,1.12,3.77,5.17,3.19,9.69.16.67.22,1.85.49,1.91a2.91,2.91,0,0,1,2.41,3.83C318.91,92.2,318.49,94.7,315.91,95.08Z"/>
    <path class="cls-22"
          d="M304,135.16c.59,2.23,1.19,4.45,1.79,6.68l-6.4,5.89c.38,1.8,2,3.9-.71,5.47s-4.6-.08-6.56-1.48c-.5-.35-.55-1.73-.54-2.64a22.18,22.18,0,0,1,.44-3.23l1.8-5.35a14.32,14.32,0,0,1,1.53,2.13c.91,1.93,1.85,2.7,3.13.39a9.42,9.42,0,0,0,1.42-2.81C300.27,137.44,302,136.23,304,135.16Z"/>
    <path class="cls-25"
          d="M280.05,140.52l6.56-4,4.8,2v6c-.88,2.19-1.7,4.41-2.67,6.55a34.28,34.28,0,0,1-2.11,3.48c-.83-1.28-1.66-2.55-2.47-3.84a18.55,18.55,0,0,1-1.07-1.9c-.79-1.63-1.63-3.24-2.29-4.94A22.1,22.1,0,0,1,280.05,140.52Z"/>
    <path class="cls-19" d="M291.4,144.5c0-2,0-4,0-6l2.39-.67h.59l-.59,2.67-1.8,5.35Z"/>
    <path class="cls-22"
          d="M312.94,117.13c.23,1,.54,2.05.68,3.1.2,1.59.28,3.2.41,4.79l-3.42-.14c-.28,0-.57-.08-1.26-.17a69.28,69.28,0,0,1,1.49,8c.2,2.8.7,5.94-2.1,7.83-.79-2.41-1.66-4.79-2.36-7.24s-1.22-5-1.82-7.46.79-4.58,1.8-6.67c1.24.35,3.33,1.35,3.57,1a15.87,15.87,0,0,0,1.48-5,35.18,35.18,0,0,0,.32-4c.41,1.56.81,3.12,1.21,4.68Z"/>
    <path class="cls-25"
          d="M293.8,140.5c.19-.89.39-1.78.59-2.67q2.1-4.67,4.19-9.34c1.67-.73,2.33-3.68,4.78-2.68.2,3.12.41,6.23.62,9.35-2,1.07-3.71,2.28-4.1,5.05a9.42,9.42,0,0,1-1.42,2.81c-1.28,2.31-2.22,1.54-3.13-.39A14.32,14.32,0,0,0,293.8,140.5Z"/>
    <path class="cls-21"
          d="M303.36,125.81c-2.45-1-3.11,2-4.78,2.68a20.44,20.44,0,0,1,1.54-4.06c1.23-1.91,1.79-3.75.85-6h.62l3-.67,1.79,1.35c-1,2.09-2.4,4-1.8,6.67Z"/>
    <path class="cls-11"
          d="M319.52,81.08c-1.24-4.64-2.26-9.37-3.86-13.84-.47-1.33-2.57-1.93-3.93-2.86L313.17,60c1.16.75,2.31,1.49,3.45,2.26.32.21.63.73.91.7,4-.36,3.56,2.55,3.92,5.59A19.49,19.49,0,0,0,324.36,76c1.3,2.14,1.68,3.25-1,3.87C322.07,80.15,320.8,80.66,319.52,81.08Z"/>
    <path class="cls-15"
          d="M308.14,52.36c-3.38,1.25-5.49-1.45-7.93-3.16a23.26,23.26,0,0,0-2.83-1.51c-4.42-.33-8.45-3.91-13.15-2l.6-2.67c5.49-2,10.63.93,15.93,1.47.59.06,1.08,1.12,1.66,1.67,1.7,1.63,3.42,3.24,5.13,4.87C307.75,51.47,308,51.91,308.14,52.36Z"/>
    <path class="cls-12"
          d="M284.23,45.69c4.7-1.91,8.73,1.67,13.15,2l-6,2.67h-5.68l.6,5.61a6.7,6.7,0,0,1-2.06-3.16c-1.65-4.75-2.23-5.1-6.6-3.78l0-2-.6-4.63c2.39-2.26,4.84-1.43,5.38,1.82.18,1.1.37,2.19.55,3.29l.74,0Z"/>
    <path class="cls-23"
          d="M250.13,99.1c7-1.22,11.44,3.5,10.75,11.44a6.8,6.8,0,0,1-6.27,5.6c-2.11,0-3.57-1.2-4.13-4.13a10.05,10.05,0,0,1,0-5.52c.37-1.14-.23-2.69-.39-4Z"/>
    <path class="cls-21"
          d="M255.51,90.42c-.4,1-.78,2.1-1.2,3.14-.29.72-.62,1.41-.93,2.12-.75-.41-2-.66-2.16-1.27-1.13-4.16-4-5.84-7.31-7.22-.66-.28-1-1.38-1.56-2.1.14-.27.46-.68.4-.79-2.09-3.51-.84-6.06,1.61-8.6.87-.91,1.08-2.63,1.58-4A49.31,49.31,0,0,1,251.75,74c2.56,1.36,4.93.9,7.35-.28a19.71,19.71,0,0,1,3.14-.71c3.74-.27,7.48-.43,11.22-.63l-6.16,4.38c-1.45-.58-3.49-1-4.69,2.11-.18.46-1.7.51-2.55.38-2.57-.39-5.71,2.43-7.17,6.3C251.69,88.72,254,89.26,255.51,90.42Z"/>
    <path class="cls-19"
          d="M260.3,51l1.8,1.34c-2,5.8-1.36,7.08,3.65,9l4.12,8.4c-2.9.46-5.81.81-8.68,1.45-.77.18-1.39,1.23-2.09,1.88-5.68,1.08-10.34-2.25-15.26-4.43-.18-.08-.2-.59-.29-.9.44-.56,1.15-1,1.29-1.69.73-3.31,2.84-3.86,5.43-3.66.79.06,1.58,0,2.37,0,5.12,0,5.67-.76,5.94-6.41C258.67,54.29,259.7,52.67,260.3,51Z"/>
    <path class="cls-18"
          d="M260.3,51c-.6,1.65-1.63,3.27-1.72,4.95-.27,5.65-.82,6.41-5.94,6.41-.79,0-1.58,0-2.37,0-2.59-.2-4.7.35-5.43,3.66-.14.65-.85,1.13-1.29,1.69-5.78-2.12-5.78-2.12-2.43-7.26.12-.18.16-.47.31-.57A11.36,11.36,0,0,0,247,51.46c.34-2,3.62-3.43,5.56-5.12Z"/>
    <path class="cls-18"
          d="M245.94,71.73c-.5,1.34-.71,3.06-1.58,4-2.45,2.54-3.7,5.09-1.61,8.6.06.11-.26.52-.4.79l-3.59.66c-.73-.66-1.46-1.85-2.21-1.88-2.38-.07-3-2.39-3-3.78,0-2.74-1.21-4.51-2.6-6.35,1.78-7,6.88-8.72,11.73-4A17,17,0,0,0,245.94,71.73Z"/>
    <path class="cls-18"
          d="M259.1,73.05c.7-.65,1.32-1.7,2.09-1.88,2.87-.64,5.78-1,8.68-1.45h4.78l1.2.67,6.59,6h-.61l-8.37-4c-3.74.2-7.48.36-11.22.63a19.71,19.71,0,0,0-3.14.71Z"/>
    <path class="cls-10"
          d="M235.18,115.07c0,3.49-1.12,5.44-3.71,4.93-1.33-.27-3.14-2.52-3.26-4-.15-1.83.21-4.71,3-4.84S235.16,112.15,235.18,115.07Z"/>
    <path class="cls-23"
          d="M273.46,72.39l8.37,4,3.59,4c-1.1,1.1-2.2,2.21-3.31,3.3-.67.65-1.89,1.24-1.93,1.92a7.7,7.7,0,0,0,1,3.56c.26.54,1.08.73,1.65,1.08l-.09.81c-1,0-2,0-3,0-2.52-.07-5.17-.74-7.53-.1-3.63,1-4.62,5.7-2.29,9,2.18,3.1,4.19,6.44,8.49,6.67-1.81,3.69-2.2,6.75,1.11,9.1-1.42,1.43-2.69,2.61-3.86,3.89a59.69,59.69,0,0,0-4.38,5.14c-.54.76-.54,2-.79,3l-5.9,4.12-1.05-.78c.67-2,.92-4.43,2.07-6,3.52-4.87,3.56-10.93,4.55-16.52.29-1.67-2.88-4.09-4.46-6.16.66-3.83-.65-7.14-2.59-10-.74-1.09-2.42-1.58-3.76-1.93a15.68,15.68,0,0,0-3.82-.08c-1.53-1.16-3.82-1.7-2.62-4.86,1.46-3.87,4.6-6.69,7.17-6.3.85.13,2.37.08,2.55-.38,1.2-3.14,3.24-2.69,4.69-2.11Z"/>
    <path class="cls-25"
          d="M270.47,127.82c.25-1,.25-2.25.79-3a59.69,59.69,0,0,1,4.38-5.14c1.17-1.28,2.44-2.46,3.86-3.89-3.31-2.35-2.92-5.41-1.11-9.1-4.3-.23-6.31-3.57-8.49-6.67-2.33-3.33-1.34-8.05,2.29-9,2.36-.64,5,0,7.53.1,1,0,2,0,3,0l.09-.81c-.57-.35-1.39-.54-1.65-1.08a7.7,7.7,0,0,1-1-3.56c0-.68,1.26-1.27,1.93-1.92,1.11-1.09,2.21-2.2,3.31-3.3l6,2,1.8,2.66.59,1.32c-2.45,1.35-5.88.19-7.69,3.56l4.13,2.5h-3c-3-1.3-4.63-.34-5.36,3-.36,1.67-1,3.26-1.38,4.94-.42,2-1.59,4.35,1.37,5.3l1.21,0c-.35,1.64-1.39,3.65-.89,4.86,1.07,2.62,2.94,4.84,4.48,7.23-3.23,2.41-6.36,5-9.7,7.17C275,126.29,272.64,126.91,270.47,127.82Z"/>
    <path class="cls-25"
          d="M297.87,111.07c-.21,1.57,1.78,3.41-.48,4.72-1.31-.42-6.47,1.49-7,2.69a2.25,2.25,0,0,0,.1,1.48c2.19.5,3.45,3.94,6.23,2.49-.49.9-.91,1.84-1.47,2.68-1.67,2.47-3.39,4.9-5.09,7.35l-6,2a44.54,44.54,0,0,1-3.17-4.08,26.15,26.15,0,0,1-1.62-4c2.72-2.08,5.48-4.11,8.14-6.29a8.34,8.34,0,0,0,1.42-2.37l6.61-5.34Z"/>
    <path class="cls-26"
          d="M295.61,112.48,289,117.82l-2.36,0c-1.54-2.39-3.41-4.61-4.48-7.23-.5-1.21.54-3.22.88-4.86,4.29-2.57,4.29-2.57,5.62-1.82-5,2.18-5.46,3.27-3.18,7.11,1.52,2.55,3.7,1.12,5.64,1.2C292.61,112.3,294.11,112.4,295.61,112.48Z"/>
    <path class="cls-19"
          d="M290.2,132.48c1.7-2.45,3.42-4.88,5.09-7.35.56-.84,1-1.78,1.47-2.68l.57-1.34,1.25-.64c0,4.3-2.71,7-4.77,10-.41.66-.81,1.33-1.21,2l-1.2,1.34-1.19.67Z"/>
    <path class="cls-22" d="M290.21,134.5l1.19-.67q-.39,3.1,2.4,2.67v1.33l-2.39.67-4.8-2Z"/>
    <path class="cls-22"
          d="M274.65,69.72h-4.78l-4.12-8.4c-5-1.88-5.64-3.16-3.65-9l2.39,1.34c.58.54,1.14,1.11,1.74,1.63l9.63,8.38v.67c-.2,1.56-.4,3.12-.61,4.68Z"/>
    <path class="cls-14"
          d="M275.86,63.71l-9.63-8.38c-.6-.52-1.16-1.09-1.74-1.63,0-.67,0-1.33,0-2l5.4,4,7.16,6c0,.44,0,.88,0,1.32Z"/>
    <path class="cls-20" d="M277,61.72l-7.16-6c-.64-4.62-.64-4.62,3.63-4.7,3.17-.4,3.52,3.19,5.34,4.71q1.19,2,2.36,4Z"/>
    <path class="cls-16"
          d="M277.66,49c4.37-1.32,4.95-1,6.6,3.78A6.7,6.7,0,0,0,286.32,56l-.6-5.61h5.68c0,5.81.26,6,6.27,4.77l.91,2.57L293.2,59h-1.8c-.6-.29-1.66-.92-1.73-.81-.77,1.28-1.41,2.68.53,3.48,0,.45,0,.89,0,1.34h0c-2.62.13-2.93-2.51-3.95-4.21-.82-1.38-1.44-2.65-2.66-.45L280,53.7Z"/>
    <path class="cls-11" d="M280,53.7q1.8,2.34,3.58,4.69l4.23,9.33-1.22.72-5.41-8.72q-1.17-2-2.36-4Z"/>
    <path class="cls-18"
          d="M293.2,59l5.38-1.34c2.66-.42,4.14,1,5.32,3.6a9.22,9.22,0,0,0,3.56,4c3.5,2.07,4.23,3.48,3.18,7.51a11,11,0,0,0-.1,2.31c-2.5-2-5-4.09-7.49-6.12-.77-.63-1.59-1.8-2.35-1.75C295.46,67.5,293.38,64.41,293.2,59Z"/>
    <path class="cls-23"
          d="M308.16,88.4h-.6c-2.16-1.86-3.94-4.56-7.19-4l-1.19-2.66c-.31-1.36-.6-2.73-.93-4.08-.28-1.12-.61-2.23-.91-3.35l.72-.92a32.92,32.92,0,0,1,3.52,2.44A51.55,51.55,0,0,1,307,81.27a9,9,0,0,1,1.56,3.92A10.68,10.68,0,0,1,308.16,88.4Z"/>
    <path class="cls-25"
          d="M299.18,81.75l1.19,2.66-1.81.67-1.18-.66c-.59-.89-1.18-1.79-1.78-2.68l-6-12,1.18-2c1.4,2,2.79,4,4.19,6,.7,1.78,1.3,3.62,2.14,5.32A16,16,0,0,0,299.18,81.75Z"/>
    <path class="cls-26"
          d="M313,95.11c-2.3,2-5.09,1.88-7.65-.46a5.14,5.14,0,0,1,5.21-4.26C311.35,92,312.16,93.54,313,95.11Z"/>
    <path class="cls-19"
          d="M295,73.74c-1.4-2-2.79-4-4.19-6-.2-1.56-.39-3.11-.59-4.67h0c1.61,2.48,3.33,4.88,4.75,7.48C295.39,71.31,295,72.65,295,73.74Z"/>
    <path class="cls-18" d="M290.2,61.71c-1.94-.8-1.3-2.2-.53-3.48.07-.11,1.13.52,1.73.81Z"/>
    <path class="cls-27"
          d="M295.61,112.48c-1.5-.08-3-.18-4.49-.24-1.94-.08-4.12,1.35-5.64-1.2-2.28-3.84-1.8-4.93,3.18-7.11-1.33-.75-1.33-.75-5.62,1.82l-1.2,0a6.36,6.36,0,0,0,1.26-5.84c-.68-2.7.77-4.58,2.75-6a10.9,10.9,0,0,0,1.36-1.43h3l6.45,2.68,3,5.45c-.18,1-.35,2.1-.53,3.16q-.65,3.66-1.31,7.32Z"/>
    <path class="cls-26"
          d="M314.13,98.41c0,2.44-.05,4.88-.08,7.31l-1.13,1.4-1.17,2.69c-2.68,1.36-3.48,5.88-7.26,5.41-2.89-2.24-2.42-5.29-1.77-8.5.6-3,1-6,1.43-9Z"/>
    <path class="cls-26" d="M296.68,95.14l-6.45-2.68L286.1,90c1.81-3.37,5.24-2.21,7.69-3.56l2.33,1.37Z"/>
    <path class="cls-26"
          d="M298.56,85.08l1.81-.67c3.25-.56,5,2.14,7.19,4l-1.51,2-1.68-1.42-2.2,4a30.23,30.23,0,0,1-3.33-3.66c-.45-.68-.23-1.9-.31-2.88Z"/>
    <path class="cls-25"
          d="M293.8,136.5q-2.79.44-2.4-2.67l1.2-1.34,1.21-2c2.06-3.06,4.79-5.73,4.77-10v-3.58l2.39,1.58c.94,2.21.38,4-.85,6a20.44,20.44,0,0,0-1.54,4.06Z"/>
    <path class="cls-25"
          d="M304.49,115.22c3.78.47,4.58-4,7.26-5.41,0,.43,0,.87,0,1.31a35.18,35.18,0,0,1-.32,4,15.87,15.87,0,0,1-1.48,5c-.24.4-2.33-.6-3.57-1l-1.79-1.35c0-.45,0-.9,0-1.35S304.51,115.63,304.49,115.22Z"/>
    <path class="cls-26"
          d="M297.33,121.11l-.57,1.34c-2.78,1.45-4-2-6.23-2.49a2.25,2.25,0,0,1-.1-1.48c.49-1.2,5.65-3.11,7-2.69Z"/>
    <path class="cls-23"
          d="M299.18,103.75c.18-1.06.35-2.11.53-3.16.39-.82.79-1.63,1.31-2.68,2.26,4.55-.57,8.48-.9,12.62Q299.65,107.14,299.18,103.75Z"/>
    <path class="cls-23" d="M304.53,116.44c0,.45,0,.9,0,1.35l-3,.67c-.41-1.75-.83-3.5-1.34-5.67Z"/>
    <path class="cls-23"
          d="M298.56,85.08l0,1.37-2.41,1.32-2.33-1.37-.59-1.32a19.75,19.75,0,0,0,2.87.12c.46,0,.88-.51,1.31-.78Z"/>
    <path class="cls-20"
          d="M311.73,111.12c0-.44,0-.88,0-1.31l1.17-2.69,1.2,0c.28,1.51.46,3.06.88,4.53.68,2.3,0,3.65-2.06,4.17C312.54,114.24,312.14,112.68,311.73,111.12Z"/>
    <path class="cls-25" d="M314.12,107.1l-1.2,0,1.13-1.4C314.07,106.18,314.09,106.64,314.12,107.1Z"/>
    <path class="cls-21" d="M293.8,136.5l4.78-8q-2.1,4.66-4.19,9.34h-.59Z"/>
    <path class="cls-23"
          d="M275.25,69.06c.21-1.56.41-3.12.61-4.68q4.18,4.34,8.36,8.69l3.18,4.55-.62.68-4.34-1.9-6.59-6Z"/>
    <path class="cls-19"
          d="M282.44,76.4l4.34,1.9.62-.68-3.18-4.55h1.21c1,1.14,1.95,2.34,3,3.37a4.58,4.58,0,0,0,1.74.64c.6,1.55,1.19,3.11,1.79,4.67l-.6.68-6-2-3.59-4Z"/>
    <path class="cls-19" d="M275.25,69.06l.6,1.33-1.2-.67Z"/>
    <path class="cls-26"
          d="M287.21,92.46a10.9,10.9,0,0,1-1.36,1.43c-2,1.42-3.43,3.3-2.75,6a6.36,6.36,0,0,1-1.26,5.84c-3-1-1.79-3.3-1.37-5.3.35-1.68,1-3.27,1.38-4.94C282.58,92.12,284.2,91.16,287.21,92.46Z"/>
    <path class="cls-21"
          d="M291.4,82.42l.6-.68h3.6c.6.89,1.19,1.79,1.78,2.68-.43.27-.85.74-1.31.78a19.75,19.75,0,0,1-2.87-.12Z"/>
    <path class="cls-22" d="M293.81,130.5l-1.21,2C293,131.83,293.4,131.16,293.81,130.5Z"/>
    <path class="cls-18" d="M285.43,73.06h-1.21q-4.19-4.35-8.36-8.69v-.67l1.21-.67Z"/>
    <path class="cls-22"
          d="M285.43,73.06l-8.36-10c0-.44,0-.88,0-1.32l4.17-2,5.41,8.72,3.6,8.63a4.58,4.58,0,0,1-1.74-.64C287.38,75.4,286.43,74.2,285.43,73.06Z"/>
    <path class="cls-22"
          d="M290.21,63.05c.2,1.56.39,3.11.59,4.67l-1.18,2-1.79-2-4.23-9.33c1.22-2.2,1.84-.93,2.66.45C287.28,60.54,287.59,63.18,290.21,63.05Z"/>
    <path class="cls-18" d="M287.83,67.72l1.79,2,6,12H292c-.6-1.56-1.19-3.12-1.79-4.67l-3.6-8.63Z"/>
  </g>
  <g id="_2F7QkO.tif" data-name="2F7QkO.tif">
    <path class="cls-28"
          d="M53,351.77,9.75,308.51a3.38,3.38,0,0,0-.36-.74,18.21,18.21,0,0,1,1.41-23.95q47.33-47.38,94.72-94.71a18.14,18.14,0,0,1,25.58.12q20.61,20.58,41.19,41.19a18.15,18.15,0,0,1,.13,25.58q-47.31,47.4-94.71,94.72A18.16,18.16,0,0,1,55.08,353C54.4,352.61,53.7,352.2,53,351.77ZM120.72,299l46.72-46.73c5.35-5.35,5.34-12.7,0-18.06L127.27,194.1c-5.35-5.35-12.72-5.36-18.07,0L15.74,287.55c-5.34,5.35-5.33,12.7,0,18.07,13.32,13.31,26.72,26.54,39.9,40a12.81,12.81,0,0,0,18.57,0C89.62,330,105.21,314.55,120.72,299Z"/>
    <path class="cls-29"
          d="M70.45,239.46l40.94-40.93c1.74-1.75,2-1.74,3.76,0L163,246.37c1.77,1.78,1.77,2,0,3.77L80.92,332.21c-1.75,1.75-2,1.75-3.76,0L29.35,284.37c-1.77-1.77-1.77-2,0-3.76Zm90,8.85-47.21-47.2L31.91,282.43l47.21,47.2Z"/>
    <path class="cls-30"
          d="M38.41,310a9.27,9.27,0,1,1-.18,13.23A9.21,9.21,0,0,1,38.41,310Zm2.06,11a6.27,6.27,0,0,0,8.82.07,6.24,6.24,0,0,0-8.76-8.89A6.27,6.27,0,0,0,40.47,321Z"/>
    <path class="cls-31"
          d="M142.43,219q-2.88-2.9-5.78-5.78c-.61-.61-1.26-1.3-.45-2.1s1.43-.17,2,.41L150,223.3c.58.58,1.14,1.28.44,2s-1.48.2-2.1-.42Q145.38,221.94,142.43,219Z"/>
  </g>
  <g id="OMdmvY.tif">
    <path class="cls-32"
          d="M253.24,207.39A101.06,101.06,0,0,1,151.45,106c-.07-55.82,45-101,101.05-101.5,55.69-.45,102.17,45.85,102,101.66A101.55,101.55,0,0,1,253.24,207.39Zm84.53-101.58c0-47.16-37.83-84.72-85.17-84.65-46.66.07-84.73,37.87-84.86,84.26a85.38,85.38,0,0,0,85.36,85.75C300,191.1,337.81,152.93,337.77,105.81Z"/>
    <path class="cls-33"
          d="M171,174.51l13.9,13c-3.28,2.65-6.17,4.67-8.69,7.08-3.65,3.5-7.5,6.65-8.85,11.46-.73,2.58.27,3.16-.22,6.81A24.86,24.86,0,0,1,164,222l-27.35-27.28a23.85,23.85,0,0,1,8-3c3.86-.66,4.48.56,7.33-.16,6.09-1.53,10.1-6.51,14.5-11.08A68.57,68.57,0,0,0,171,174.51Z"/>
    <path class="cls-34" d="M226.64,40.48c21.49-12.15,52.44-6.08,73.29,14.39C277.56,40.8,253.4,35.91,226.64,40.48Z"/>
    <path class="cls-35" d="M272.79,179.5A63.75,63.75,0,0,1,221,176.57Z"/>
  </g>
</svg>
