<svg id="Layer_1" data-name="Layer 1" xmlns="http://www.w3.org/2000/svg" xmlns:xlink="http://www.w3.org/1999/xlink"
     viewBox="0 0 330.52 315.22" width="250px" height="250px">
  <defs>
    <style>.cls-1 {
      fill: url(#linear-gradient);
    }

    .cls-2 {
      fill: url(#linear-gradient-2);
    }

    .cls-3 {
      fill: url(#linear-gradient-3);
    }

    .cls-4 {
      fill: url(#linear-gradient-4);
    }

    .cls-5 {
      fill: url(#linear-gradient-5);
    }

    .cls-6 {
      fill: url(#linear-gradient-6);
    }

    .cls-7 {
      fill: url(#linear-gradient-7);
    }</style>
    <linearGradient id="linear-gradient" x1="14.73" y1="76.13" x2="345.25" y2="76.13" gradientUnits="userSpaceOnUse">
      <stop offset="0.41" stop-color="#ee252e"/>
      <stop offset="0.47" stop-color="#dd2a35"/>
      <stop offset="0.6" stop-color="#b03649"/>
      <stop offset="0.77" stop-color="#684a68"/>
      <stop offset="0.99" stop-color="#066593"/>
      <stop offset="1" stop-color="#026695"/>
    </linearGradient>
    <linearGradient id="linear-gradient-2" x1="75.69" y1="155.27" x2="283.89" y2="155.27"
                    xlink:href="#linear-gradient"/>
    <linearGradient id="linear-gradient-3" x1="70.43" y1="274.38" x2="343.1" y2="274.38" xlink:href="#linear-gradient"/>
    <linearGradient id="linear-gradient-4" x1="29.67" y1="293.99" x2="88.55" y2="293.99" xlink:href="#linear-gradient"/>
    <linearGradient id="linear-gradient-5" x1="47.24" y1="187.86" x2="71.77" y2="187.86" xlink:href="#linear-gradient"/>
    <linearGradient id="linear-gradient-6" x1="52.27" y1="153.29" x2="67.03" y2="153.29" xlink:href="#linear-gradient"/>
    <linearGradient id="linear-gradient-7" x1="57.37" y1="118.63" x2="61.92" y2="118.63" xlink:href="#linear-gradient"/>
  </defs>
  <g id="yEHwnD.tif">
    <path class="cls-1"
          d="M177.59,47.45c-28.29,10-57.41,18.16-84.5,30.66C67.43,90,44.23,88.74,20.26,76.22c-1.29-.68-2.65-1.2-5.53-2.49C55.62,59,96,46.6,134.48,29.74c31-13.6,58.73-13.86,89.83-.31C263,46.28,303.52,58.82,345.25,73.94c-23.88,8.7-45.93,16.8-68,24.78Q232.22,115,187.13,131c-3.34,1.18-7.57,2.6-10.56,1.55-34.61-12.14-69.07-24.73-106-38.09,34.74-12.36,67-23.79,99.23-35.36C174.53,57.34,181.76,57,177.59,47.45Z"
          transform="translate(-14.73 -19.4)"/>
    <path class="cls-2"
          d="M75.69,163.36V107.8c16.49,5.82,32.4,11.35,48.25,17,15.36,5.52,30.48,11.77,46.07,16.54a33,33,0,0,0,19,.05c27.76-9.34,55.19-19.66,82.74-29.59,3.76-1.36,7.58-2.53,12.14-4v53c-24.09,8.5-47.56,16.21-70.54,25.17-9.9,3.87-18.62,10.68-28.22,15.45-2.87,1.43-7.91,2-10.26.4C145.08,181.74,112,170.44,75.69,163.36Z"
          transform="translate(-14.73 -19.4)"/>
    <path class="cls-3"
          d="M313.7,281.9c-42.37,6.71-87.42,15.51-134.66,27-30.58,7.44-59.77,15.45-87.52,23.81,8.58-14.92,11.72-30.46,7.06-46.94C94.1,270,85.67,257,70.43,248.7q50.4-4.81,103.49-11.67,67-8.72,129.17-19.59a26.13,26.13,0,0,1,8-1.41c13.39-.18,27.38,10.37,31,23.25C346.65,255.39,335.22,275.92,313.7,281.9Z"
          transform="translate(-14.73 -19.4)"/>
    <path class="cls-4"
          d="M52.8,295.62,65.86,301l2.65-4.47c-4.91-3.16-9.84-8.93-14.72-8.89-8.44.06-9.73,8.19-8.72,15.14.72,5,2.09,10.8,5.33,14.17,3.69,3.83,10.38,8.08,14.68,7.15,5-1.08,10.77-6.84,12.76-11.91,5.59-14.31-4.11-36-17.91-43.1-8.83-4.54-16.79-3-22.77,4.8-3,3.93-4.65,8.91-6.78,13.15-2.72-13.44,2.54-26.72,12.79-31.69,9.47-4.6,21.34-1.15,30.79,9.33C86.82,279,90.72,296,87.45,314.52c-1.61,9.14-6.39,17.26-16.2,19.42-10.16,2.23-19.59-1-25.72-9.58-9.05-12.65-10.65-26.88-4.7-41.28,3.93-9.51,12.37-11.25,19.64-4.1,8,7.9,12.52,17.73,9.89,29.27-.7,3-4.13,7.87-6,7.72-3.28-.27-7.6-3-9.1-6C53.31,306.12,53.61,301.07,52.8,295.62Z"
          transform="translate(-14.73 -19.4)"/>
    <path class="cls-5"
          d="M47.24,213c1.44-13.7,3.34-26.56,3.95-39.48.44-9.32,4.09-12.67,15-9.84,1.77,15.56,3.63,31.94,5.61,49.32Z"
          transform="translate(-14.73 -19.4)"/>
    <path class="cls-6"
          d="M60,162.68c-3.82-4.94-7.71-7.77-7.69-10.58s4-5.47,6.27-8.2c3,2.5,7.47,4.53,8.42,7.65C67.63,153.75,63.47,157.41,60,162.68Z"
          transform="translate(-14.73 -19.4)"/>
    <path class="cls-7" d="M57.37,139.37V97.94l2.74-.06c2.91,13.74,1.67,27.59.64,41.44Z"
          transform="translate(-14.73 -19.4)"/>
  </g>
</svg>
