<?xml version="1.0" encoding="UTF-8"?>
<!-- Generator: Adobe Illustrator 22.1.0, SVG Export Plug-In . SVG Version: 6.00 Build 0)  -->
<svg xmlns="http://www.w3.org/2000/svg" xmlns:xlink="http://www.w3.org/1999/xlink" version="1.1" id="Layer_1" x="0px" y="0px" width="190px" height="100px" viewBox="0 0 190 100" style="enable-background:new 0 0 190 100;" xml:space="preserve">
<style type="text/css">
	.st0{fill:url(#SVGID_1_);}
	.st1{fill:#231F20;}
	.st2{clip-path:url(#SVGID_3_);fill:url(#SVGID_4_);}
	.st3{clip-path:url(#SVGID_6_);fill:url(#SVGID_7_);}
</style>
<g>
	<linearGradient id="SVGID_1_" gradientUnits="userSpaceOnUse" x1="0" y1="33.3335" x2="66.133" y2="33.3335">
		<stop offset="0" style="stop-color:#FFF100"></stop>
		<stop offset="1" style="stop-color:#E0851A"></stop>
	</linearGradient>
	<ellipse class="st0" cx="33.1" cy="33.3" rx="33.1" ry="33.3"></ellipse>
	<g>
		<defs>
			<path id="SVGID_2_" d="M0,33.3c0,18.4,14.8,33.3,33.1,33.3V33.3C45.3,33.3,56,40,61.7,50c2.8-4.9,4.4-10.6,4.4-16.7     C66.1,14.9,51.3,0,33.1,0C14.8,0,0,14.9,0,33.3"></path>
		</defs>
		<clipPath id="SVGID_3_">
			<use xlink:href="#SVGID_2_" style="overflow:visible;"></use>
		</clipPath>

			<linearGradient id="SVGID_4_" gradientUnits="userSpaceOnUse" x1="-497.0994" y1="470.7277" x2="-496.581" y2="470.7277" gradientTransform="matrix(127.5591 0 0 -127.5591 63409.5547 60078.9375)">
			<stop offset="0" style="stop-color:#FFF100"></stop>
			<stop offset="1" style="stop-color:#E0851A"></stop>
		</linearGradient>
		<rect class="st2" width="66.1" height="66.7"></rect>
	</g>
	<g>
		<defs>
			<path id="SVGID_5_" d="M33.1,66.7C20.8,66.7,10.1,60,4.4,50C1.6,54.9,0,60.6,0,66.7C0,85.1,14.8,100,33.1,100     c18.3,0,33.1-14.9,33.1-33.3c0-18.4-14.8-33.3-33.1-33.3V66.7z"></path>
		</defs>
		<clipPath id="SVGID_6_">
			<use xlink:href="#SVGID_5_" style="overflow:visible;"></use>
		</clipPath>

			<linearGradient id="SVGID_7_" gradientUnits="userSpaceOnUse" x1="-500.422" y1="471.0323" x2="-499.9035" y2="471.0323" gradientTransform="matrix(-127.5591 0 0 127.5591 -63767.2461 -60017.7891)">
			<stop offset="0" style="stop-color:#FFF100"></stop>
			<stop offset="1" style="stop-color:#E0851A"></stop>
		</linearGradient>
		<rect y="33.3" class="st3" width="66.1" height="66.7"></rect>
	</g>
</g>
</svg>
